999
"DXF R12 Output" (www.mydxf.blogspot.com)
 0 
SECTION
 2 
HEADER
 9 
$ACADVER
 1 
AC1009
 9 
$EXTMIN
 10 
 0 
 20 
 0 
 9 
$EXTMAX
 10 
 8.5 
 20 
 11 
 0 
ENDSEC
 0 
SECTION
 2 
ENTITIES
0
LINE
8
Layer 1
10
264.591996
20
212.165383
11
263.254846
21
212.305275
0
LINE
8
Layer 1
10
263.254846
20
212.305275
11
262.176306
21
211.932732
0
LINE
8
Layer 1
10
262.176306
20
211.932732
11
261.324897
21
211.156421
0
LINE
8
Layer 1
10
261.324897
20
211.156421
11
260.669139
21
210.085007
0
LINE
8
Layer 1
10
260.669139
20
210.085007
11
260.177552
21
208.827156
0
LINE
8
Layer 1
10
260.177552
20
208.827156
11
259.818656
21
207.491535
0
LINE
8
Layer 1
10
259.818656
20
207.491535
11
259.373017
21
205.021642
0
LINE
8
Layer 1
10
259.373017
20
205.021642
11
258.954268
21
201.166971
0
LINE
8
Layer 1
10
258.954268
20
201.166971
11
258.803075
21
197.346673
0
LINE
8
Layer 1
10
258.803075
20
197.346673
11
258.737065
21
189.675828
0
LINE
8
Layer 1
10
258.737065
20
189.675828
11
258.417866
21
183.731185
0
LINE
8
Layer 1
10
258.417866
20
183.731185
11
258.267446
21
180.758502
0
LINE
8
Layer 1
10
258.267446
20
180.758502
11
258.245867
21
177.769593
0
LINE
8
Layer 1
10
258.245867
20
177.769593
11
258.482933
21
173.932540
0
LINE
8
Layer 1
10
258.482933
20
173.932540
11
258.780563
21
170.096686
0
LINE
8
Layer 1
10
258.780563
20
170.096686
11
258.916796
21
168.711042
0
LINE
8
Layer 1
10
258.916796
20
168.711042
11
259.166473
21
168.047061
0
LINE
8
Layer 1
10
259.166473
20
168.047061
11
259.647786
21
167.638273
0
LINE
8
Layer 1
10
259.647786
20
167.638273
11
260.401560
21
167.607722
0
LINE
8
Layer 1
10
260.401560
20
167.607722
11
261.021782
21
167.981193
0
LINE
8
Layer 1
10
261.021782
20
167.981193
11
261.453653
21
168.600391
0
LINE
8
Layer 1
10
261.453653
20
168.600391
11
261.642372
21
169.307022
0
LINE
8
Layer 1
10
261.642372
20
169.307022
11
261.647255
21
171.400213
0
LINE
8
Layer 1
10
261.647255
20
171.400213
11
261.469784
21
173.527432
0
LINE
8
Layer 1
10
261.469784
20
173.527432
11
261.256118
21
175.660088
0
LINE
8
Layer 1
10
261.256118
20
175.660088
11
261.152417
21
177.769593
0
LINE
8
Layer 1
10
261.152417
20
177.769593
11
261.068360
21
186.430919
0
LINE
8
Layer 1
10
261.068360
20
186.430919
11
261.075426
21
190.830951
0
LINE
8
Layer 1
10
261.075426
20
190.830951
11
261.214898
21
195.231915
0
LINE
8
Layer 1
10
261.214898
20
195.231915
11
261.561533
21
199.599826
0
LINE
8
Layer 1
10
261.561533
20
199.599826
11
262.190090
21
203.900698
0
LINE
8
Layer 1
10
262.190090
20
203.900698
11
263.175325
21
208.100545
0
LINE
8
Layer 1
10
263.175325
20
208.100545
11
264.591996
21
212.165383
0
LINE
8
Layer 1
10
262.739915
20
169.302937
11
263.400701
21
169.579827
0
LINE
8
Layer 1
10
263.400701
20
169.579827
11
263.940688
21
169.960298
0
LINE
8
Layer 1
10
263.940688
20
169.960298
11
264.701403
21
170.987148
0
LINE
8
Layer 1
10
264.701403
20
170.987148
11
265.108349
21
172.293822
0
LINE
8
Layer 1
10
265.108349
20
172.293822
11
265.247811
21
173.790653
0
LINE
8
Layer 1
10
265.247811
20
173.790653
11
265.069437
21
176.996129
0
LINE
8
Layer 1
10
265.069437
20
176.996129
11
264.856579
21
179.886257
0
LINE
8
Layer 1
10
264.856579
20
179.886257
11
264.853470
21
192.497397
0
LINE
8
Layer 1
10
264.853470
20
192.497397
11
265.170144
21
198.833258
0
LINE
8
Layer 1
10
265.170144
20
198.833258
11
265.501536
21
201.953744
0
LINE
8
Layer 1
10
265.501536
20
201.953744
11
265.983914
21
205.021642
0
LINE
8
Layer 1
10
265.983914
20
205.021642
11
266.446509
21
206.866575
0
LINE
8
Layer 1
10
266.446509
20
206.866575
11
267.054767
21
208.632685
0
LINE
8
Layer 1
10
267.054767
20
208.632685
11
268.296158
21
212.165383
0
LINE
8
Layer 1
10
268.296158
20
212.165383
11
267.508473
21
212.302632
0
LINE
8
Layer 1
10
267.508473
20
212.302632
11
266.803923
21
212.251467
0
LINE
8
Layer 1
10
266.803923
20
212.251467
11
266.177408
21
212.031805
0
LINE
8
Layer 1
10
266.177408
20
212.031805
11
265.623831
21
211.663562
0
LINE
8
Layer 1
10
265.623831
20
211.663562
11
264.715101
21
210.560999
0
LINE
8
Layer 1
10
264.715101
20
210.560999
11
264.036947
21
209.103112
0
LINE
8
Layer 1
10
264.036947
20
209.103112
11
263.548586
21
207.449234
0
LINE
8
Layer 1
10
263.548586
20
207.449234
11
263.209234
21
205.758696
0
LINE
8
Layer 1
10
263.209234
20
205.758696
11
262.814421
21
202.904978
0
LINE
8
Layer 1
10
262.814421
20
202.904978
11
262.533316
21
199.516453
0
LINE
8
Layer 1
10
262.533316
20
199.516453
11
262.481728
21
196.147571
0
LINE
8
Layer 1
10
262.481728
20
196.147571
11
262.447762
21
189.411245
0
LINE
8
Layer 1
10
262.447762
20
189.411245
11
261.793898
21
179.306543
0
LINE
8
Layer 1
10
261.793898
20
179.306543
11
261.759424
21
176.728839
0
LINE
8
Layer 1
10
261.759424
20
176.728839
11
261.873339
21
174.184384
0
LINE
8
Layer 1
10
261.873339
20
174.184384
11
262.184037
21
171.700106
0
LINE
8
Layer 1
10
262.184037
20
171.700106
11
262.739915
21
169.302937
0
LINE
8
Layer 1
10
269.668074
20
211.893251
11
268.916784
21
211.283822
0
LINE
8
Layer 1
10
268.916784
20
211.283822
11
268.316362
21
210.439466
0
LINE
8
Layer 1
10
268.316362
20
210.439466
11
267.845473
21
209.423101
0
LINE
8
Layer 1
10
267.845473
20
209.423101
11
267.482787
21
208.297646
0
LINE
8
Layer 1
10
267.482787
20
208.297646
11
266.996690
21
205.971144
0
LINE
8
Layer 1
10
266.996690
20
205.971144
11
266.687414
21
203.963310
0
LINE
8
Layer 1
10
266.687414
20
203.963310
11
265.983885
21
198.028901
0
LINE
8
Layer 1
10
265.983885
20
198.028901
11
265.687551
21
191.957012
0
LINE
8
Layer 1
10
265.687551
20
191.957012
11
265.650328
21
179.886257
0
LINE
8
Layer 1
10
265.650328
20
179.886257
11
265.642635
21
176.034524
0
LINE
8
Layer 1
10
265.642635
20
176.034524
11
265.733084
21
174.080059
0
LINE
8
Layer 1
10
265.733084
20
174.080059
11
265.975342
21
172.218453
0
LINE
8
Layer 1
10
265.975342
20
172.218453
11
266.231796
21
171.565917
0
LINE
8
Layer 1
10
266.231796
20
171.565917
11
266.686392
21
171.124021
0
LINE
8
Layer 1
10
266.686392
20
171.124021
11
267.289771
21
170.946742
0
LINE
8
Layer 1
10
267.289771
20
170.946742
11
267.992575
21
171.088057
0
LINE
8
Layer 1
10
267.992575
20
171.088057
11
268.531719
21
171.524616
0
LINE
8
Layer 1
10
268.531719
20
171.524616
11
268.770406
21
172.143298
0
LINE
8
Layer 1
10
268.770406
20
172.143298
11
268.749785
21
173.536265
0
LINE
8
Layer 1
10
268.749785
20
173.536265
11
268.548405
21
177.234432
0
LINE
8
Layer 1
10
268.548405
20
177.234432
11
268.560741
21
180.944589
0
LINE
8
Layer 1
10
268.560741
20
180.944589
11
268.628173
21
192.078455
0
LINE
8
Layer 1
10
268.628173
20
192.078455
11
268.880859
21
197.662737
0
LINE
8
Layer 1
10
268.880859
20
197.662737
11
269.429208
21
203.169561
0
LINE
8
Layer 1
10
269.429208
20
203.169561
11
269.893602
21
205.163737
0
LINE
8
Layer 1
10
269.893602
20
205.163737
11
270.581745
21
207.171512
0
LINE
8
Layer 1
10
270.581745
20
207.171512
11
271.234625
21
209.158807
0
LINE
8
Layer 1
10
271.234625
20
209.158807
11
271.593232
21
211.091541
0
LINE
8
Layer 1
10
271.593232
20
211.091541
11
271.428470
21
211.729883
0
LINE
8
Layer 1
10
271.428470
20
211.729883
11
270.940215
21
212.055015
0
LINE
8
Layer 1
10
270.940215
20
212.055015
11
270.297179
21
212.098837
0
LINE
8
Layer 1
10
270.297179
20
212.098837
11
269.668074
21
211.893251
0
LINE
8
Layer 1
10
273.115008
20
211.364085
11
272.425717
21
210.778526
0
LINE
8
Layer 1
10
272.425717
20
210.778526
11
271.875989
21
209.956981
0
LINE
8
Layer 1
10
271.875989
20
209.956981
11
271.115445
21
207.864985
0
LINE
8
Layer 1
10
271.115445
20
207.864985
11
270.673824
21
205.606199
0
LINE
8
Layer 1
10
270.673824
20
205.606199
11
270.391576
21
203.698727
0
LINE
8
Layer 1
10
270.391576
20
203.698727
11
269.692992
21
197.768936
0
LINE
8
Layer 1
10
269.692992
20
197.768936
11
269.396109
21
191.694616
0
LINE
8
Layer 1
10
269.396109
20
191.694616
11
269.354490
21
179.621674
0
LINE
8
Layer 1
10
269.354490
20
179.621674
11
269.315378
21
176.027409
0
LINE
8
Layer 1
10
269.315378
20
176.027409
11
269.408559
21
174.185576
0
LINE
8
Layer 1
10
269.408559
20
174.185576
11
269.703184
21
172.492426
0
LINE
8
Layer 1
10
269.703184
20
172.492426
11
270.030901
21
171.879317
0
LINE
8
Layer 1
10
270.030901
20
171.879317
11
270.574251
21
171.466487
0
LINE
8
Layer 1
10
270.574251
20
171.466487
11
271.235323
21
171.322103
0
LINE
8
Layer 1
10
271.235323
20
171.322103
11
271.916209
21
171.514329
0
LINE
8
Layer 1
10
271.916209
20
171.514329
11
272.368117
21
172.012685
0
LINE
8
Layer 1
10
272.368117
20
172.012685
11
272.510624
21
172.677900
0
LINE
8
Layer 1
10
272.510624
20
172.677900
11
272.377192
21
174.065431
0
LINE
8
Layer 1
10
272.377192
20
174.065431
11
272.206361
21
177.630731
0
LINE
8
Layer 1
10
272.206361
20
177.630731
11
272.264903
21
181.209172
0
LINE
8
Layer 1
10
272.264903
20
181.209172
11
272.341126
21
192.077738
0
LINE
8
Layer 1
10
272.341126
20
192.077738
11
272.594910
21
197.529499
0
LINE
8
Layer 1
10
272.594910
20
197.529499
11
273.133370
21
202.904978
0
LINE
8
Layer 1
10
273.133370
20
202.904978
11
273.556772
21
204.835315
0
LINE
8
Layer 1
10
273.556772
20
204.835315
11
274.166924
21
206.763013
0
LINE
8
Layer 1
10
274.166924
20
206.763013
11
274.752767
21
208.676043
0
LINE
8
Layer 1
10
274.752767
20
208.676043
11
275.103243
21
210.562375
0
LINE
8
Layer 1
10
275.103243
20
210.562375
11
274.935628
21
211.202872
0
LINE
8
Layer 1
10
274.935628
20
211.202872
11
274.420275
21
211.528380
0
LINE
8
Layer 1
10
274.420275
20
211.528380
11
273.749348
21
211.571313
0
LINE
8
Layer 1
10
273.749348
20
211.571313
11
273.115008
21
211.364085
0
LINE
8
Layer 1
10
257.977421
20
168.773771
11
257.798645
21
179.465307
0
LINE
8
Layer 1
10
257.798645
20
179.465307
11
257.766270
21
190.034648
0
LINE
8
Layer 1
10
257.766270
20
190.034648
11
257.957590
21
195.296957
0
LINE
8
Layer 1
10
257.957590
20
195.296957
11
258.368637
21
200.556871
0
LINE
8
Layer 1
10
258.368637
20
200.556871
11
259.060455
21
205.823774
0
LINE
8
Layer 1
10
259.060455
20
205.823774
11
260.094085
21
211.107051
0
LINE
8
Layer 1
10
260.094085
20
211.107051
11
256.606599
21
210.697341
0
LINE
8
Layer 1
10
256.606599
20
210.697341
11
252.922601
21
209.796014
0
LINE
8
Layer 1
10
252.922601
20
209.796014
11
249.169633
21
208.457000
0
LINE
8
Layer 1
10
249.169633
20
208.457000
11
245.475238
21
206.734227
0
LINE
8
Layer 1
10
245.475238
20
206.734227
11
241.966956
21
204.681626
0
LINE
8
Layer 1
10
241.966956
20
204.681626
11
238.772331
21
202.353127
0
LINE
8
Layer 1
10
238.772331
20
202.353127
11
236.018905
21
199.802659
0
LINE
8
Layer 1
10
236.018905
20
199.802659
11
233.834219
21
197.084152
0
LINE
8
Layer 1
10
233.834219
20
197.084152
11
232.926150
21
195.265090
0
LINE
8
Layer 1
10
232.926150
20
195.265090
11
232.373479
21
193.155769
0
LINE
8
Layer 1
10
232.373479
20
193.155769
11
232.151527
21
190.858804
0
LINE
8
Layer 1
10
232.151527
20
190.858804
11
232.235615
21
188.476809
0
LINE
8
Layer 1
10
232.235615
20
188.476809
11
232.601062
21
186.112401
0
LINE
8
Layer 1
10
232.601062
20
186.112401
11
233.223188
21
183.868193
0
LINE
8
Layer 1
10
233.223188
20
183.868193
11
234.077315
21
181.846801
0
LINE
8
Layer 1
10
234.077315
20
181.846801
11
235.138762
21
180.150840
0
LINE
8
Layer 1
10
235.138762
20
180.150840
11
236.908881
21
178.264957
0
LINE
8
Layer 1
10
236.908881
20
178.264957
11
238.902403
21
176.806029
0
LINE
8
Layer 1
10
238.902403
20
176.806029
11
241.072816
21
175.685661
0
LINE
8
Layer 1
10
241.072816
20
175.685661
11
243.373608
21
174.815459
0
LINE
8
Layer 1
10
243.373608
20
174.815459
11
248.180285
21
173.471968
0
LINE
8
Layer 1
10
248.180285
20
173.471968
11
252.950341
21
172.068398
0
LINE
8
Layer 1
10
252.950341
20
172.068398
11
254.316643
21
171.419448
0
LINE
8
Layer 1
10
254.316643
20
171.419448
11
255.565353
21
170.585422
0
LINE
8
Layer 1
10
255.565353
20
170.585422
11
257.977421
21
168.773771
0
LINE
8
Layer 1
10
276.601524
20
210.834919
11
275.942088
21
210.234980
0
LINE
8
Layer 1
10
275.942088
20
210.234980
11
275.421842
21
209.404553
0
LINE
8
Layer 1
10
275.421842
20
209.404553
11
274.715239
21
207.308511
0
LINE
8
Layer 1
10
274.715239
20
207.308511
11
274.314359
21
205.059333
0
LINE
8
Layer 1
10
274.314359
20
205.059333
11
274.051843
21
203.169561
0
LINE
8
Layer 1
10
274.051843
20
203.169561
11
273.381694
21
197.382063
0
LINE
8
Layer 1
10
273.381694
20
197.382063
11
273.097503
21
191.430650
0
LINE
8
Layer 1
10
273.097503
20
191.430650
11
273.058652
21
179.621674
0
LINE
8
Layer 1
10
273.058652
20
179.621674
11
273.019346
21
177.472841
0
LINE
8
Layer 1
10
273.019346
20
177.472841
11
273.167313
21
174.429852
0
LINE
8
Layer 1
10
273.167313
20
174.429852
11
273.436157
21
173.035397
0
LINE
8
Layer 1
10
273.436157
20
173.035397
11
273.901379
21
171.972220
0
LINE
8
Layer 1
10
273.901379
20
171.972220
11
274.223211
21
171.622655
0
LINE
8
Layer 1
10
274.223211
20
171.622655
11
274.612832
21
171.425261
0
LINE
8
Layer 1
10
274.612832
20
171.425261
11
275.076475
21
171.403157
0
LINE
8
Layer 1
10
275.076475
20
171.403157
11
275.620371
21
171.579459
0
LINE
8
Layer 1
10
275.620371
20
171.579459
11
276.079802
21
172.041439
0
LINE
8
Layer 1
10
276.079802
20
172.041439
11
276.220085
21
172.697794
0
LINE
8
Layer 1
10
276.220085
20
172.697794
11
276.081354
21
174.065431
0
LINE
8
Layer 1
10
276.081354
20
174.065431
11
275.910523
21
177.630728
0
LINE
8
Layer 1
10
275.910523
20
177.630728
11
275.969065
21
181.209172
0
LINE
8
Layer 1
10
275.969065
20
181.209172
11
276.049753
21
191.944980
0
LINE
8
Layer 1
10
276.049753
20
191.944980
11
276.304095
21
197.330990
0
LINE
8
Layer 1
10
276.304095
20
197.330990
11
276.837532
21
202.640395
0
LINE
8
Layer 1
10
276.837532
20
202.640395
11
277.202447
21
204.453682
0
LINE
8
Layer 1
10
277.202447
20
204.453682
11
277.709895
21
206.231439
0
LINE
8
Layer 1
10
277.709895
20
206.231439
11
278.222235
21
207.998333
0
LINE
8
Layer 1
10
278.222235
20
207.998333
11
278.601824
21
209.779032
0
LINE
8
Layer 1
10
278.601824
20
209.779032
11
278.486984
21
210.506443
0
LINE
8
Layer 1
10
278.486984
20
210.506443
11
278.000980
21
210.947651
0
LINE
8
Layer 1
10
278.000980
20
210.947651
11
277.315322
21
211.068521
0
LINE
8
Layer 1
10
277.315322
20
211.068521
11
276.601524
21
210.834919
0
LINE
8
Layer 1
10
280.010491
20
210.041170
11
279.398203
21
209.479262
0
LINE
8
Layer 1
10
279.398203
20
209.479262
11
278.918528
21
208.679206
0
LINE
8
Layer 1
10
278.918528
20
208.679206
11
278.277340
21
206.633412
0
LINE
8
Layer 1
10
278.277340
20
206.633412
11
277.927577
21
204.441302
0
LINE
8
Layer 1
10
277.927577
20
204.441302
11
277.709889
21
202.640395
0
LINE
8
Layer 1
10
277.709889
20
202.640395
11
277.101840
21
196.835978
0
LINE
8
Layer 1
10
277.101840
20
196.835978
11
276.827283
21
190.895147
0
LINE
8
Layer 1
10
276.827283
20
190.895147
11
276.762814
21
179.092508
0
LINE
8
Layer 1
10
276.762814
20
179.092508
11
276.738545
21
175.624998
0
LINE
8
Layer 1
10
276.738545
20
175.624998
11
276.842161
21
173.835382
0
LINE
8
Layer 1
10
276.842161
20
173.835382
11
277.142146
21
172.224986
0
LINE
8
Layer 1
10
277.142146
20
172.224986
11
277.461244
21
171.613754
0
LINE
8
Layer 1
10
277.461244
20
171.613754
11
277.983150
21
171.154772
0
LINE
8
Layer 1
10
277.983150
20
171.154772
11
278.630151
21
170.938193
0
LINE
8
Layer 1
10
278.630151
20
170.938193
11
279.324533
21
171.054169
0
LINE
8
Layer 1
10
279.324533
20
171.054169
11
279.782569
21
171.503680
0
LINE
8
Layer 1
10
279.782569
20
171.503680
11
279.936679
21
172.165964
0
LINE
8
Layer 1
10
279.936679
20
172.165964
11
279.825521
21
173.536265
0
LINE
8
Layer 1
10
279.825521
20
173.536265
11
279.638229
21
176.969492
0
LINE
8
Layer 1
10
279.638229
20
176.969492
11
279.673227
21
180.415423
0
LINE
8
Layer 1
10
279.673227
20
180.415423
11
279.738331
21
192.225175
0
LINE
8
Layer 1
10
279.738331
20
192.225175
11
280.062728
21
198.151384
0
LINE
8
Layer 1
10
280.062728
20
198.151384
11
280.797705
21
203.963310
0
LINE
8
Layer 1
10
280.797705
20
203.963310
11
281.223442
21
205.639795
0
LINE
8
Layer 1
10
281.223442
20
205.639795
11
281.732526
21
208.164107
0
LINE
8
Layer 1
10
281.732526
20
208.164107
11
281.784710
21
209.297710
0
LINE
8
Layer 1
10
281.784710
20
209.297710
11
281.577396
21
210.107485
0
LINE
8
Layer 1
10
281.577396
20
210.107485
11
281.347225
21
210.335125
0
LINE
8
Layer 1
10
281.347225
20
210.335125
11
281.017137
21
210.414836
0
LINE
8
Layer 1
10
281.017137
20
210.414836
11
280.010491
21
210.041170
0
LINE
8
Layer 1
10
283.450890
20
209.246606
11
282.864469
21
208.686168
0
LINE
8
Layer 1
10
282.864469
20
208.686168
11
282.405265
21
207.857404
0
LINE
8
Layer 1
10
282.405265
20
207.857404
11
281.795867
21
205.704335
0
LINE
8
Layer 1
10
281.795867
20
205.704335
11
281.477413
21
203.406266
0
LINE
8
Layer 1
10
281.477413
20
203.406266
11
281.304619
21
201.582063
0
LINE
8
Layer 1
10
281.304619
20
201.582063
11
280.799730
21
195.707447
0
LINE
8
Layer 1
10
280.799730
20
195.707447
11
280.507474
21
189.690308
0
LINE
8
Layer 1
10
280.507474
20
189.690308
11
280.405345
21
183.665928
0
LINE
8
Layer 1
10
280.405345
20
183.665928
11
280.470839
21
177.769593
0
LINE
8
Layer 1
10
280.470839
20
177.769593
11
280.478191
21
174.411220
0
LINE
8
Layer 1
10
280.478191
20
174.411220
11
280.605986
21
172.660529
0
LINE
8
Layer 1
10
280.605986
20
172.660529
11
280.967964
21
171.159920
0
LINE
8
Layer 1
10
280.967964
20
171.159920
11
281.317560
21
170.569929
0
LINE
8
Layer 1
10
281.317560
20
170.569929
11
281.871148
21
170.023714
0
LINE
8
Layer 1
10
281.871148
20
170.023714
11
282.535587
21
169.721712
0
LINE
8
Layer 1
10
282.535587
20
169.721712
11
283.217739
21
169.864360
0
LINE
8
Layer 1
10
283.217739
20
169.864360
11
283.551759
21
170.316415
0
LINE
8
Layer 1
10
283.551759
20
170.316415
11
283.670256
21
170.955972
0
LINE
8
Layer 1
10
283.670256
20
170.955972
11
283.638109
21
172.213350
0
LINE
8
Layer 1
10
283.638109
20
172.213350
11
283.377389
21
179.092508
0
LINE
8
Layer 1
10
283.377389
20
179.092508
11
283.412211
21
191.164572
0
LINE
8
Layer 1
10
283.412211
20
191.164572
11
283.708244
21
197.225569
0
LINE
8
Layer 1
10
283.708244
20
197.225569
11
284.414475
21
203.169561
0
LINE
8
Layer 1
10
284.414475
20
203.169561
11
284.798207
21
204.840763
0
LINE
8
Layer 1
10
284.798207
20
204.840763
11
285.228160
21
207.350454
0
LINE
8
Layer 1
10
285.228160
20
207.350454
11
285.243607
21
208.479209
0
LINE
8
Layer 1
10
285.243607
20
208.479209
11
285.010374
21
209.288959
0
LINE
8
Layer 1
10
285.010374
20
209.288959
11
284.773395
21
209.519142
0
LINE
8
Layer 1
10
284.773395
20
209.519142
11
284.441717
21
209.603495
0
LINE
8
Layer 1
10
284.441717
20
209.603495
11
283.450890
21
209.246606
0
LINE
8
Layer 1
10
310.894021
20
197.348735
11
308.777357
21
197.877901
0
LINE
8
Layer 1
10
308.777357
20
197.877901
11
308.485329
21
196.169237
0
LINE
8
Layer 1
10
308.485329
20
196.169237
11
308.576450
21
194.649249
0
LINE
8
Layer 1
10
308.576450
20
194.649249
11
308.966514
21
193.264530
0
LINE
8
Layer 1
10
308.966514
20
193.264530
11
309.571314
21
191.961676
0
LINE
8
Layer 1
10
309.571314
20
191.961676
11
311.088301
21
189.387949
0
LINE
8
Layer 1
10
311.088301
20
189.387949
11
311.832076
21
188.010266
0
LINE
8
Layer 1
10
311.832076
20
188.010266
11
312.453764
21
186.500832
0
LINE
8
Layer 1
10
312.453764
20
186.500832
11
312.747364
21
185.299337
0
LINE
8
Layer 1
10
312.747364
20
185.299337
11
312.858067
21
184.068269
0
LINE
8
Layer 1
10
312.858067
20
184.068269
11
312.655191
21
181.563873
0
LINE
8
Layer 1
10
312.655191
20
181.563873
11
312.093958
21
179.080563
0
LINE
8
Layer 1
10
312.093958
20
179.080563
11
311.423187
21
176.711261
0
LINE
8
Layer 1
10
311.423187
20
176.711261
11
316.209067
21
175.407171
0
LINE
8
Layer 1
10
316.209067
20
175.407171
11
318.571374
21
174.696569
0
LINE
8
Layer 1
10
318.571374
20
174.696569
11
320.948175
21
173.800646
0
LINE
8
Layer 1
10
320.948175
20
173.800646
11
323.887351
21
172.745564
0
LINE
8
Layer 1
10
323.887351
20
172.745564
11
325.351313
21
172.219521
0
LINE
8
Layer 1
10
325.351313
20
172.219521
11
326.769001
21
171.575776
0
LINE
8
Layer 1
10
326.769001
20
171.575776
11
328.561976
21
171.046159
0
LINE
8
Layer 1
10
328.561976
20
171.046159
11
330.963753
21
170.904931
0
LINE
8
Layer 1
10
330.963753
20
170.904931
11
332.099751
21
171.075248
0
LINE
8
Layer 1
10
332.099751
20
171.075248
11
333.036123
21
171.457006
0
LINE
8
Layer 1
10
333.036123
20
171.457006
11
333.655591
21
172.088319
0
LINE
8
Layer 1
10
333.655591
20
172.088319
11
333.840881
21
173.007300
0
LINE
8
Layer 1
10
333.840881
20
173.007300
11
333.630663
21
174.105946
0
LINE
8
Layer 1
10
333.630663
20
174.105946
11
333.183898
21
175.180930
0
LINE
8
Layer 1
10
333.183898
20
175.180930
11
331.806588
21
177.246385
0
LINE
8
Layer 1
10
331.806588
20
177.246385
11
328.697837
21
180.944589
0
LINE
8
Layer 1
10
328.697837
20
180.944589
11
327.794976
21
182.338362
0
LINE
8
Layer 1
10
327.794976
20
182.338362
11
327.046501
21
183.753514
0
LINE
8
Layer 1
10
327.046501
20
183.753514
11
325.741628
21
186.588240
0
LINE
8
Layer 1
10
325.741628
20
186.588240
11
324.241062
21
189.329345
0
LINE
8
Layer 1
10
324.241062
20
189.329345
11
323.247969
21
190.627471
0
LINE
8
Layer 1
10
323.247969
20
190.627471
11
322.002644
21
191.857410
0
LINE
8
Layer 1
10
322.002644
20
191.857410
11
320.244647
21
193.250791
0
LINE
8
Layer 1
10
320.244647
20
193.250791
11
319.275420
21
193.866047
0
LINE
8
Layer 1
10
319.275420
20
193.866047
11
318.272926
21
194.335414
0
LINE
8
Layer 1
10
318.272926
20
194.335414
11
317.257333
21
194.590192
0
LINE
8
Layer 1
10
317.257333
20
194.590192
11
316.248803
21
194.561680
0
LINE
8
Layer 1
10
316.248803
20
194.561680
11
315.267504
21
194.181179
0
LINE
8
Layer 1
10
315.267504
20
194.181179
11
314.333600
21
193.379990
0
LINE
8
Layer 1
10
314.333600
20
193.379990
11
314.116407
21
193.864092
0
LINE
8
Layer 1
10
314.116407
20
193.864092
11
314.058766
21
194.326439
0
LINE
8
Layer 1
10
314.058766
20
194.326439
11
314.314365
21
195.198432
0
LINE
8
Layer 1
10
314.314365
20
195.198432
11
314.884844
21
196.021099
0
LINE
8
Layer 1
10
314.884844
20
196.021099
11
315.554650
21
196.819569
0
LINE
8
Layer 1
10
315.554650
20
196.819569
11
316.777241
21
198.340940
0
LINE
8
Layer 1
10
316.777241
20
198.340940
11
317.834648
21
199.867267
0
LINE
8
Layer 1
10
317.834648
20
199.867267
11
318.626139
21
201.523389
0
LINE
8
Layer 1
10
318.626139
20
201.523389
11
319.050982
21
203.434144
0
LINE
8
Layer 1
10
319.050982
20
203.434144
11
318.902522
21
205.227422
0
LINE
8
Layer 1
10
318.902522
20
205.227422
11
318.236837
21
207.484928
0
LINE
8
Layer 1
10
318.236837
20
207.484928
11
317.713925
21
208.395913
0
LINE
8
Layer 1
10
317.713925
20
208.395913
11
317.066373
21
208.952733
0
LINE
8
Layer 1
10
317.066373
20
208.952733
11
316.696343
21
209.049348
0
LINE
8
Layer 1
10
316.696343
20
209.049348
11
316.295737
21
208.998645
0
LINE
8
Layer 1
10
316.295737
20
208.998645
11
315.403573
21
208.376909
0
LINE
8
Layer 1
10
315.403573
20
208.376909
11
314.544475
21
207.289000
0
LINE
8
Layer 1
10
314.544475
20
207.289000
11
313.808820
21
206.020368
0
LINE
8
Layer 1
10
313.808820
20
206.020368
11
312.629755
21
203.136318
0
LINE
8
Layer 1
10
312.629755
20
203.136318
11
310.894021
21
197.348735
0
LINE
8
Layer 1
10
286.552385
20
208.196638
11
285.858116
21
206.337786
0
LINE
8
Layer 1
10
285.858116
20
206.337786
11
285.359783
21
204.402551
0
LINE
8
Layer 1
10
285.359783
20
204.402551
11
284.823487
21
200.383973
0
LINE
8
Layer 1
10
284.823487
20
200.383973
11
284.688620
21
196.302983
0
LINE
8
Layer 1
10
284.688620
20
196.302983
11
284.700304
21
192.321658
0
LINE
8
Layer 1
10
284.700304
20
192.321658
11
284.408624
21
183.717193
0
LINE
8
Layer 1
10
284.408624
20
183.717193
11
284.291090
21
179.424773
0
LINE
8
Layer 1
10
284.291090
20
179.424773
11
284.412041
21
175.123763
0
LINE
8
Layer 1
10
284.412041
20
175.123763
11
284.378141
21
171.890173
0
LINE
8
Layer 1
10
284.378141
20
171.890173
11
284.541246
21
170.211898
0
LINE
8
Layer 1
10
284.541246
20
170.211898
11
284.766298
21
169.483803
0
LINE
8
Layer 1
10
284.766298
20
169.483803
11
285.124536
21
168.877892
0
LINE
8
Layer 1
10
285.124536
20
168.877892
11
285.699283
21
168.356010
0
LINE
8
Layer 1
10
285.699283
20
168.356010
11
286.396822
21
168.002797
0
LINE
8
Layer 1
10
286.396822
20
168.002797
11
288.028434
21
167.680227
0
LINE
8
Layer 1
10
288.028434
20
167.680227
11
291.314879
21
167.715439
0
LINE
8
Layer 1
10
291.314879
20
167.715439
11
293.617603
21
167.808604
0
LINE
8
Layer 1
10
293.617603
20
167.808604
11
296.158995
21
168.098501
0
LINE
8
Layer 1
10
296.158995
20
168.098501
11
298.822777
21
168.601024
0
LINE
8
Layer 1
10
298.822777
20
168.601024
11
301.492669
21
169.332068
0
LINE
8
Layer 1
10
301.492669
20
169.332068
11
304.052393
21
170.307531
0
LINE
8
Layer 1
10
304.052393
20
170.307531
11
306.385668
21
171.543306
0
LINE
8
Layer 1
10
306.385668
20
171.543306
11
308.376218
21
173.055291
0
LINE
8
Layer 1
10
308.376218
20
173.055291
11
309.206633
21
173.919829
0
LINE
8
Layer 1
10
309.206633
20
173.919829
11
309.907761
21
174.859381
0
LINE
8
Layer 1
10
309.907761
20
174.859381
11
310.533947
21
176.023253
0
LINE
8
Layer 1
10
310.533947
20
176.023253
11
311.068103
21
177.404000
0
LINE
8
Layer 1
10
311.068103
20
177.404000
11
311.803353
21
180.548832
0
LINE
8
Layer 1
10
311.803353
20
180.548832
11
311.999568
21
183.759301
0
LINE
8
Layer 1
10
311.999568
20
183.759301
11
311.859930
21
185.222095
0
LINE
8
Layer 1
10
311.859930
20
185.222095
11
311.542805
21
186.500832
0
LINE
8
Layer 1
10
311.542805
20
186.500832
11
310.873651
21
187.963639
0
LINE
8
Layer 1
10
310.873651
20
187.963639
11
310.034020
21
189.327945
0
LINE
8
Layer 1
10
310.034020
20
189.327945
11
308.347833
21
192.057075
0
LINE
8
Layer 1
10
308.347833
20
192.057075
11
307.636171
21
193.984634
0
LINE
8
Layer 1
10
307.636171
20
193.984634
11
307.480917
21
194.999475
0
LINE
8
Layer 1
10
307.480917
20
194.999475
11
307.503628
21
196.025820
0
LINE
8
Layer 1
10
307.503628
20
196.025820
11
307.958112
21
197.595964
0
LINE
8
Layer 1
10
307.958112
20
197.595964
11
308.111676
21
198.396737
0
LINE
8
Layer 1
10
308.111676
20
198.396737
11
307.964822
21
199.154881
0
LINE
8
Layer 1
10
307.964822
20
199.154881
11
307.566180
21
199.748379
0
LINE
8
Layer 1
10
307.566180
20
199.748379
11
307.015076
21
200.287337
0
LINE
8
Layer 1
10
307.015076
20
200.287337
11
305.611565
21
201.217387
0
LINE
8
Layer 1
10
305.611565
20
201.217387
11
302.691948
21
202.596302
0
LINE
8
Layer 1
10
302.691948
20
202.596302
11
298.761771
21
204.285172
0
LINE
8
Layer 1
10
298.761771
20
204.285172
11
294.742548
21
205.733328
0
LINE
8
Layer 1
10
294.742548
20
205.733328
11
286.552385
21
208.196638
0
LINE
8
Layer 1
10
315.391932
20
195.232071
11
317.857081
21
195.844682
0
LINE
8
Layer 1
10
317.857081
20
195.844682
11
319.948054
21
196.571577
0
LINE
8
Layer 1
10
319.948054
20
196.571577
11
320.870578
21
197.104938
0
LINE
8
Layer 1
10
320.870578
20
197.104938
11
321.720382
21
197.819341
0
LINE
8
Layer 1
10
321.720382
20
197.819341
11
322.504407
21
198.765609
0
LINE
8
Layer 1
10
322.504407
20
198.765609
11
323.229595
21
199.994565
0
LINE
8
Layer 1
10
323.229595
20
199.994565
11
323.783766
21
201.291604
0
LINE
8
Layer 1
10
323.783766
20
201.291604
11
324.232897
21
202.819448
0
LINE
8
Layer 1
10
324.232897
20
202.819448
11
324.441229
21
204.380260
0
LINE
8
Layer 1
10
324.441229
20
204.380260
11
324.273004
21
205.776198
0
LINE
8
Layer 1
10
324.273004
20
205.776198
11
323.999421
21
206.223084
0
LINE
8
Layer 1
10
323.999421
20
206.223084
11
323.564466
21
206.484757
0
LINE
8
Layer 1
10
323.564466
20
206.484757
11
322.406738
21
206.557053
0
LINE
8
Layer 1
10
322.406738
20
206.557053
11
321.192411
21
206.202276
0
LINE
8
Layer 1
10
321.192411
20
206.202276
11
320.314075
21
205.629614
0
LINE
8
Layer 1
10
320.314075
20
205.629614
11
319.856267
21
204.688239
0
LINE
8
Layer 1
10
319.856267
20
204.688239
11
319.696231
21
203.456835
0
LINE
8
Layer 1
10
319.696231
20
203.456835
11
319.611418
21
202.167641
0
LINE
8
Layer 1
10
319.611418
20
202.167641
11
319.379277
21
201.052897
0
LINE
8
Layer 1
10
319.379277
20
201.052897
11
318.542705
21
199.480749
0
LINE
8
Layer 1
10
318.542705
20
199.480749
11
317.492810
21
198.067328
0
LINE
8
Layer 1
10
317.492810
20
198.067328
11
316.389313
21
196.691485
0
LINE
8
Layer 1
10
316.389313
20
196.691485
11
315.391932
21
195.232071
0
LINE
8
Layer 1
10
313.804434
20
204.227893
11
314.598183
21
196.554986
0
LINE
8
Layer 1
10
314.598183
20
196.554986
11
314.333600
21
196.554986
0
LINE
8
Layer 1
10
314.333600
20
196.554986
11
314.397515
21
197.542014
0
LINE
8
Layer 1
10
314.397515
20
197.542014
11
314.257589
21
198.492805
0
LINE
8
Layer 1
10
314.257589
20
198.492805
11
313.699576
21
200.342199
0
LINE
8
Layer 1
10
313.699576
20
200.342199
11
313.448170
21
201.269063
0
LINE
8
Layer 1
10
313.448170
20
201.269063
11
313.326284
21
202.216213
0
LINE
8
Layer 1
10
313.326284
20
202.216213
11
313.417259
21
203.197779
0
LINE
8
Layer 1
10
313.417259
20
203.197779
11
313.804434
21
204.227893
0
LINE
8
Layer 1
10
231.519118
20
193.379990
11
225.559893
21
186.644798
0
LINE
8
Layer 1
10
225.559893
20
186.644798
11
222.559334
21
183.474233
0
LINE
8
Layer 1
10
222.559334
20
183.474233
11
219.459784
21
180.473236
0
LINE
8
Layer 1
10
219.459784
20
180.473236
11
216.197470
21
177.670468
0
LINE
8
Layer 1
10
216.197470
20
177.670468
11
212.708622
21
175.094588
0
LINE
8
Layer 1
10
212.708622
20
175.094588
11
208.929467
21
172.774257
0
LINE
8
Layer 1
10
208.929467
20
172.774257
11
204.796235
21
170.738135
0
LINE
8
Layer 1
10
204.796235
20
170.738135
11
200.780551
21
169.149571
0
LINE
8
Layer 1
10
200.780551
20
169.149571
11
196.687374
21
167.780448
0
LINE
8
Layer 1
10
196.687374
20
167.780448
11
188.392089
21
165.371350
0
LINE
8
Layer 1
10
188.392089
20
165.371350
11
184.102870
21
164.192065
0
LINE
8
Layer 1
10
184.102870
20
164.192065
11
182.066631
21
163.274392
0
LINE
8
Layer 1
10
182.066631
20
163.274392
11
181.191091
21
162.653676
0
LINE
8
Layer 1
10
181.191091
20
162.653676
11
180.454599
21
161.894613
0
LINE
8
Layer 1
10
180.454599
20
161.894613
11
184.410933
21
161.440003
0
LINE
8
Layer 1
10
184.410933
20
161.440003
11
188.395244
21
161.447635
0
LINE
8
Layer 1
10
188.395244
20
161.447635
11
192.377978
21
161.783181
0
LINE
8
Layer 1
10
192.377978
20
161.783181
11
196.329579
21
162.312312
0
LINE
8
Layer 1
10
196.329579
20
162.312312
11
201.420380
21
163.241633
0
LINE
8
Layer 1
10
201.420380
20
163.241633
11
206.508418
21
164.537070
0
LINE
8
Layer 1
10
206.508418
20
164.537070
11
211.524550
21
166.210798
0
LINE
8
Layer 1
10
211.524550
20
166.210798
11
216.399632
21
168.274996
0
LINE
8
Layer 1
10
216.399632
20
168.274996
11
221.064523
21
170.741838
0
LINE
8
Layer 1
10
221.064523
20
170.741838
11
225.450079
21
173.623503
0
LINE
8
Layer 1
10
225.450079
20
173.623503
11
229.487158
21
176.932167
0
LINE
8
Layer 1
10
229.487158
20
176.932167
11
231.353411
21
178.750428
0
LINE
8
Layer 1
10
231.353411
20
178.750428
11
233.106616
21
180.680006
0
LINE
8
Layer 1
10
233.106616
20
180.680006
11
230.247649
21
171.948767
0
LINE
8
Layer 1
10
230.247649
20
171.948767
11
232.577450
21
164.275860
0
LINE
8
Layer 1
10
232.577450
20
164.275860
11
233.333944
21
164.173989
0
LINE
8
Layer 1
10
233.333944
20
164.173989
11
233.946801
21
163.891592
0
LINE
8
Layer 1
10
233.946801
20
163.891592
11
234.902185
21
162.961908
0
LINE
8
Layer 1
10
234.902185
20
162.961908
11
235.764761
21
161.840177
0
LINE
8
Layer 1
10
235.764761
20
161.840177
11
236.855691
21
160.879770
0
LINE
8
Layer 1
10
236.855691
20
160.879770
11
238.400528
21
160.260928
0
LINE
8
Layer 1
10
238.400528
20
160.260928
11
240.089637
21
159.903752
0
LINE
8
Layer 1
10
240.089637
20
159.903752
11
241.804189
21
159.560693
0
LINE
8
Layer 1
10
241.804189
20
159.560693
11
243.425353
21
158.984200
0
LINE
8
Layer 1
10
243.425353
20
158.984200
11
242.102438
21
161.100864
0
LINE
8
Layer 1
10
242.102438
20
161.100864
11
246.335766
21
159.777949
0
LINE
8
Layer 1
10
246.335766
20
159.777949
11
245.511294
21
161.068362
0
LINE
8
Layer 1
10
245.511294
20
161.068362
11
244.421879
21
162.164479
0
LINE
8
Layer 1
10
244.421879
20
162.164479
11
241.910808
21
164.124295
0
LINE
8
Layer 1
10
241.910808
20
164.124295
11
240.720445
21
165.163227
0
LINE
8
Layer 1
10
240.720445
20
165.163227
11
239.727726
21
166.358330
0
LINE
8
Layer 1
10
239.727726
20
166.358330
11
239.048298
21
167.797222
0
LINE
8
Layer 1
10
239.048298
20
167.797222
11
238.797807
21
169.567520
0
LINE
8
Layer 1
10
238.797807
20
169.567520
11
238.935160
21
170.571171
0
LINE
8
Layer 1
10
238.935160
20
170.571171
11
239.261888
21
171.574084
0
LINE
8
Layer 1
10
239.261888
20
171.574084
11
239.985774
21
173.536265
0
LINE
8
Layer 1
10
239.985774
20
173.536265
11
241.061204
21
173.084345
0
LINE
8
Layer 1
10
241.061204
20
173.084345
11
241.897936
21
172.550285
0
LINE
8
Layer 1
10
241.897936
20
172.550285
11
242.548806
21
171.935772
0
LINE
8
Layer 1
10
242.548806
20
171.935772
11
243.066648
21
171.242492
0
LINE
8
Layer 1
10
243.066648
20
171.242492
11
243.914587
21
169.626379
0
LINE
8
Layer 1
10
243.914587
20
169.626379
11
244.864431
21
167.715439
0
LINE
8
Layer 1
10
244.864431
20
167.715439
11
247.985516
21
162.080340
0
LINE
8
Layer 1
10
247.985516
20
162.080340
11
249.603584
21
159.329488
0
LINE
8
Layer 1
10
249.603584
20
159.329488
11
251.362843
21
156.602953
0
LINE
8
Layer 1
10
251.362843
20
156.602953
11
254.537842
21
155.923731
0
LINE
8
Layer 1
10
254.537842
20
155.923731
11
259.829502
21
155.544621
0
LINE
8
Layer 1
10
259.829502
20
155.544621
11
257.183672
21
157.396702
0
LINE
8
Layer 1
10
257.183672
20
157.396702
11
257.183672
21
157.661285
0
LINE
8
Layer 1
10
257.183672
20
157.661285
11
262.739915
21
156.602953
0
LINE
8
Layer 1
10
262.739915
20
156.602953
11
262.509354
21
157.347112
0
LINE
8
Layer 1
10
262.509354
20
157.347112
11
262.139331
21
157.948905
0
LINE
8
Layer 1
10
262.139331
20
157.948905
11
261.606322
21
158.416533
0
LINE
8
Layer 1
10
261.606322
20
158.416533
11
260.886802
21
158.758195
0
LINE
8
Layer 1
10
260.886802
20
158.758195
11
259.748274
21
158.950617
0
LINE
8
Layer 1
10
259.748274
20
158.950617
11
258.598394
21
158.942973
0
LINE
8
Layer 1
10
258.598394
20
158.942973
11
257.469463
21
159.012339
0
LINE
8
Layer 1
10
257.469463
20
159.012339
11
256.393786
21
159.435787
0
LINE
8
Layer 1
10
256.393786
20
159.435787
11
255.079196
21
160.527279
0
LINE
8
Layer 1
10
255.079196
20
160.527279
11
254.175341
21
161.727820
0
LINE
8
Layer 1
10
254.175341
20
161.727820
11
253.688205
21
162.965358
0
LINE
8
Layer 1
10
253.688205
20
162.965358
11
253.623776
21
164.167844
0
LINE
8
Layer 1
10
253.623776
20
164.167844
11
253.988039
21
165.263229
0
LINE
8
Layer 1
10
253.988039
20
165.263229
11
254.786980
21
166.179462
0
LINE
8
Layer 1
10
254.786980
20
166.179462
11
256.026584
21
166.844493
0
LINE
8
Layer 1
10
256.026584
20
166.844493
11
257.712838
21
167.186273
0
LINE
8
Layer 1
10
257.712838
20
167.186273
11
256.997823
21
168.356327
0
LINE
8
Layer 1
10
256.997823
20
168.356327
11
256.090898
21
169.307545
0
LINE
8
Layer 1
10
256.090898
20
169.307545
11
255.029523
21
170.071416
0
LINE
8
Layer 1
10
255.029523
20
170.071416
11
253.851159
21
170.679432
0
LINE
8
Layer 1
10
253.851159
20
170.679432
11
251.293303
21
171.553854
0
LINE
8
Layer 1
10
251.293303
20
171.553854
11
248.717013
21
172.182732
0
LINE
8
Layer 1
10
248.717013
20
172.182732
11
245.741485
21
172.974693
0
LINE
8
Layer 1
10
245.741485
20
172.974693
11
242.775018
21
173.993691
0
LINE
8
Layer 1
10
242.775018
20
173.993691
11
239.935281
21
175.298852
0
LINE
8
Layer 1
10
239.935281
20
175.298852
11
237.339944
21
176.949303
0
LINE
8
Layer 1
10
237.339944
20
176.949303
11
236.098427
21
177.998134
0
LINE
8
Layer 1
10
236.098427
20
177.998134
11
235.000062
21
179.151960
0
LINE
8
Layer 1
10
235.000062
20
179.151960
11
234.047113
21
180.402636
0
LINE
8
Layer 1
10
234.047113
20
180.402636
11
233.241843
21
181.742020
0
LINE
8
Layer 1
10
233.241843
20
181.742020
11
232.586514
21
183.161966
0
LINE
8
Layer 1
10
232.586514
20
183.161966
11
232.083389
21
184.654332
0
LINE
8
Layer 1
10
232.083389
20
184.654332
11
231.734730
21
186.210973
0
LINE
8
Layer 1
10
231.734730
20
186.210973
11
231.542801
21
187.823747
0
LINE
8
Layer 1
10
231.542801
20
187.823747
11
231.574091
21
189.188836
0
LINE
8
Layer 1
10
231.574091
20
189.188836
11
231.711464
21
190.660810
0
LINE
8
Layer 1
10
231.711464
20
190.660810
11
231.758586
21
192.103313
0
LINE
8
Layer 1
10
231.758586
20
192.103313
11
231.519121
21
193.379990
0
LINE
8
Layer 1
10
315.391932
20
193.379990
11
315.429436
21
192.007391
0
LINE
8
Layer 1
10
315.429436
20
192.007391
11
315.581439
21
190.518804
0
LINE
8
Layer 1
10
315.581439
20
190.518804
11
315.984267
21
189.124676
0
LINE
8
Layer 1
10
315.984267
20
189.124676
11
316.322342
21
188.528800
0
LINE
8
Layer 1
10
316.322342
20
188.528800
11
316.774246
21
188.035458
0
LINE
8
Layer 1
10
316.774246
20
188.035458
11
318.075243
21
187.276051
0
LINE
8
Layer 1
10
318.075243
20
187.276051
11
319.516056
21
186.778209
0
LINE
8
Layer 1
10
319.516056
20
186.778209
11
320.934094
21
186.238959
0
LINE
8
Layer 1
10
320.934094
20
186.238959
11
321.583763
21
185.859127
0
LINE
8
Layer 1
10
321.583763
20
185.859127
11
322.166765
21
185.355327
0
LINE
8
Layer 1
10
322.166765
20
185.355327
11
322.741365
21
184.463011
0
LINE
8
Layer 1
10
322.741365
20
184.463011
11
323.052833
21
183.474655
0
LINE
8
Layer 1
10
323.052833
20
183.474655
11
323.298132
21
182.456241
0
LINE
8
Layer 1
10
323.298132
20
182.456241
11
323.674226
21
181.473755
0
LINE
8
Layer 1
10
323.674226
20
181.473755
11
324.261186
21
180.572315
0
LINE
8
Layer 1
10
324.261186
20
180.572315
11
324.982830
21
179.765806
0
LINE
8
Layer 1
10
324.982830
20
179.765806
11
326.729935
21
178.422649
0
LINE
8
Layer 1
10
326.729935
20
178.422649
11
328.715066
21
177.414421
0
LINE
8
Layer 1
10
328.715066
20
177.414421
11
330.737746
21
176.711261
0
LINE
8
Layer 1
10
330.737746
20
176.711261
11
330.737746
21
176.446678
0
LINE
8
Layer 1
10
330.737746
20
176.446678
11
328.493808
21
176.841738
0
LINE
8
Layer 1
10
328.493808
20
176.841738
11
326.251460
21
177.780943
0
LINE
8
Layer 1
10
326.251460
20
177.780943
11
324.273802
21
179.177494
0
LINE
8
Layer 1
10
324.273802
20
179.177494
11
323.466452
21
180.020148
0
LINE
8
Layer 1
10
323.466452
20
180.020148
11
322.823936
21
180.944589
0
LINE
8
Layer 1
10
322.823936
20
180.944589
11
322.449576
21
181.852536
0
LINE
8
Layer 1
10
322.449576
20
181.852536
11
322.197228
21
182.803756
0
LINE
8
Layer 1
10
322.197228
20
182.803756
11
321.893877
21
183.729641
0
LINE
8
Layer 1
10
321.893877
20
183.729641
11
321.366507
21
184.561578
0
LINE
8
Layer 1
10
321.366507
20
184.561578
11
320.332458
21
185.368413
0
LINE
8
Layer 1
10
320.332458
20
185.368413
11
319.130989
21
185.924160
0
LINE
8
Layer 1
10
319.130989
20
185.924160
11
317.885641
21
186.413680
0
LINE
8
Layer 1
10
317.885641
20
186.413680
11
316.719953
21
187.021835
0
LINE
8
Layer 1
10
316.719953
20
187.021835
11
316.116743
21
187.562613
0
LINE
8
Layer 1
10
316.116743
20
187.562613
11
315.646126
21
188.256381
0
LINE
8
Layer 1
10
315.646126
20
188.256381
11
315.087321
21
189.942044
0
LINE
8
Layer 1
10
315.087321
20
189.942044
11
315.012826
21
191.757141
0
LINE
8
Layer 1
10
315.012826
20
191.757141
11
315.391932
21
193.379990
0
LINE
8
Layer 1
10
230.196206
20
190.734160
11
230.989955
21
185.971666
0
LINE
8
Layer 1
10
230.989955
20
185.971666
11
230.725372
21
185.971666
0
LINE
8
Layer 1
10
230.725372
20
185.971666
11
230.173312
21
187.137968
0
LINE
8
Layer 1
10
230.173312
20
187.137968
11
229.800171
21
188.321855
0
LINE
8
Layer 1
10
229.800171
20
188.321855
11
229.757340
21
189.521271
0
LINE
8
Layer 1
10
229.757340
20
189.521271
11
230.196206
21
190.734160
0
LINE
8
Layer 1
10
228.079542
20
187.029998
11
228.698677
21
185.289211
0
LINE
8
Layer 1
10
228.698677
20
185.289211
11
229.628934
21
183.837964
0
LINE
8
Layer 1
10
229.628934
20
183.837964
11
230.842828
21
182.593673
0
LINE
8
Layer 1
10
230.842828
20
182.593673
11
232.312870
21
181.473755
0
LINE
8
Layer 1
10
232.312870
20
181.473755
11
232.312870
21
181.209172
0
LINE
8
Layer 1
10
232.312870
20
181.209172
11
230.485118
21
181.970036
0
LINE
8
Layer 1
10
230.485118
20
181.970036
11
229.625987
21
182.570994
0
LINE
8
Layer 1
10
229.625987
20
182.570994
11
228.876745
21
183.293934
0
LINE
8
Layer 1
10
228.876745
20
183.293934
11
228.292436
21
184.120080
0
LINE
8
Layer 1
10
228.292436
20
184.120080
11
227.928103
21
185.030657
0
LINE
8
Layer 1
10
227.928103
20
185.030657
11
227.838790
21
186.006888
0
LINE
8
Layer 1
10
227.838790
20
186.006888
11
228.079542
21
187.029998
0
LINE
8
Layer 1
10
319.889843
20
182.267504
11
319.889843
21
182.532087
0
LINE
8
Layer 1
10
319.889843
20
182.532087
11
320.419009
21
183.061253
0
LINE
8
Layer 1
10
320.419009
20
183.061253
11
318.831511
21
184.384168
0
LINE
8
Layer 1
10
318.831511
20
184.384168
11
319.532163
21
184.703272
0
LINE
8
Layer 1
10
319.532163
20
184.703272
11
320.139070
21
184.710455
0
LINE
8
Layer 1
10
320.139070
20
184.710455
11
320.617911
21
184.478294
0
LINE
8
Layer 1
10
320.617911
20
184.478294
11
320.934364
21
184.079365
0
LINE
8
Layer 1
10
320.934364
20
184.079365
11
321.054105
21
183.586245
0
LINE
8
Layer 1
10
321.054105
20
183.586245
11
320.942814
21
183.071510
0
LINE
8
Layer 1
10
320.942814
20
183.071510
11
320.566167
21
182.607738
0
LINE
8
Layer 1
10
320.566167
20
182.607738
11
319.889843
21
182.267504
0
LINE
8
Layer 1
10
225.433712
20
184.384168
11
229.402457
21
178.298759
0
LINE
8
Layer 1
10
229.402457
20
178.298759
11
227.710640
21
179.231568
0
LINE
8
Layer 1
10
227.710640
20
179.231568
11
226.934843
21
179.893915
0
LINE
8
Layer 1
10
226.934843
20
179.893915
11
226.261678
21
180.660861
0
LINE
8
Layer 1
10
226.261678
20
180.660861
11
225.733064
21
181.512882
0
LINE
8
Layer 1
10
225.733064
20
181.512882
11
225.390919
21
182.430455
0
LINE
8
Layer 1
10
225.390919
20
182.430455
11
225.277162
21
183.394058
0
LINE
8
Layer 1
10
225.277162
20
183.394058
11
225.433712
21
184.384168
0
LINE
8
Layer 1
10
319.625260
20
184.119585
11
319.625260
21
183.590419
0
LINE
8
Layer 1
10
319.625260
20
183.590419
11
320.948175
21
183.590419
0
LINE
8
Layer 1
10
320.948175
20
183.590419
11
320.948175
21
184.119585
0
LINE
8
Layer 1
10
320.948175
20
184.119585
11
319.625260
21
184.119585
0
LINE
8
Layer 1
10
222.258716
20
181.473755
11
222.923964
21
179.744361
0
LINE
8
Layer 1
10
222.923964
20
179.744361
11
223.757885
21
178.234850
0
LINE
8
Layer 1
10
223.757885
20
178.234850
11
224.834408
21
176.889584
0
LINE
8
Layer 1
10
224.834408
20
176.889584
11
226.227461
21
175.652929
0
LINE
8
Layer 1
10
226.227461
20
175.652929
11
226.227461
21
175.388346
0
LINE
8
Layer 1
10
226.227461
20
175.388346
11
225.322899
21
175.744154
0
LINE
8
Layer 1
10
225.322899
20
175.744154
11
224.461726
21
176.259149
0
LINE
8
Layer 1
10
224.461726
20
176.259149
11
223.680599
21
176.911575
0
LINE
8
Layer 1
10
223.680599
20
176.911575
11
223.016177
21
177.679677
0
LINE
8
Layer 1
10
223.016177
20
177.679677
11
222.505119
21
178.541701
0
LINE
8
Layer 1
10
222.505119
20
178.541701
11
222.184083
21
179.475892
0
LINE
8
Layer 1
10
222.184083
20
179.475892
11
222.089729
21
180.460495
0
LINE
8
Layer 1
10
222.089729
20
180.460495
11
222.258716
21
181.473755
0
LINE
8
Layer 1
10
218.554554
20
177.769593
11
222.258716
21
172.742516
0
LINE
8
Layer 1
10
222.258716
20
172.742516
11
220.802761
21
173.512762
0
LINE
8
Layer 1
10
220.802761
20
173.512762
11
219.506667
21
174.669781
0
LINE
8
Layer 1
10
219.506667
20
174.669781
11
219.009232
21
175.364069
0
LINE
8
Layer 1
10
219.009232
20
175.364069
11
218.660557
21
176.119936
0
LINE
8
Layer 1
10
218.660557
20
176.119936
11
218.496910
21
176.925679
0
LINE
8
Layer 1
10
218.496910
20
176.925679
11
218.554554
21
177.769593
0
LINE
8
Layer 1
10
214.056643
20
174.859180
11
217.231639
21
169.832103
0
LINE
8
Layer 1
10
217.231639
20
169.832103
11
215.808480
21
170.574422
0
LINE
8
Layer 1
10
215.808480
20
170.574422
11
214.653144
21
171.757531
0
LINE
8
Layer 1
10
214.653144
20
171.757531
11
214.247059
21
172.468526
0
LINE
8
Layer 1
10
214.247059
20
172.468526
11
213.993307
21
173.234694
0
LINE
8
Layer 1
10
213.993307
20
173.234694
11
213.920349
21
174.037692
0
LINE
8
Layer 1
10
213.920349
20
174.037692
11
214.056643
21
174.859180
0
LINE
8
Layer 1
10
325.446086
20
174.330014
11
329.414831
21
171.419601
0
LINE
8
Layer 1
10
329.414831
20
171.419601
11
325.181503
21
174.065431
0
LINE
8
Layer 1
10
325.181503
20
174.065431
11
325.446086
21
174.330014
0
LINE
8
Layer 1
10
209.558732
20
171.948767
11
211.939979
21
167.186273
0
LINE
8
Layer 1
10
211.939979
20
167.186273
11
210.811660
21
168.050542
0
LINE
8
Layer 1
10
210.811660
20
168.050542
11
209.928692
21
169.190221
0
LINE
8
Layer 1
10
209.928692
20
169.190221
11
209.456056
21
170.518549
0
LINE
8
Layer 1
10
209.456056
20
170.518549
11
209.425169
21
171.226344
0
LINE
8
Layer 1
10
209.425169
20
171.226344
11
209.558732
21
171.948767
0
LINE
8
Layer 1
10
298.987786
20
166.392524
11
298.987786
21
166.127941
0
LINE
8
Layer 1
10
298.987786
20
166.127941
11
300.953686
21
164.526405
0
LINE
8
Layer 1
10
300.953686
20
164.526405
11
302.816315
21
162.921217
0
LINE
8
Layer 1
10
302.816315
20
162.921217
11
303.639060
21
162.040670
0
LINE
8
Layer 1
10
303.639060
20
162.040670
11
304.352177
21
161.067310
0
LINE
8
Layer 1
10
304.352177
20
161.067310
11
304.927729
21
159.970503
0
LINE
8
Layer 1
10
304.927729
20
159.970503
11
305.337778
21
158.719617
0
LINE
8
Layer 1
10
305.337778
20
158.719617
11
306.850954
21
160.424298
0
LINE
8
Layer 1
10
306.850954
20
160.424298
11
309.835689
21
159.217551
0
LINE
8
Layer 1
10
309.835689
20
159.217551
11
313.539851
21
159.408834
0
LINE
8
Layer 1
10
313.539851
20
159.408834
11
316.185681
21
158.190451
0
LINE
8
Layer 1
10
316.185681
20
158.190451
11
315.656515
21
159.777949
0
LINE
8
Layer 1
10
315.656515
20
159.777949
11
317.508596
21
158.719617
0
LINE
8
Layer 1
10
317.508596
20
158.719617
11
317.154649
21
159.906994
0
LINE
8
Layer 1
10
317.154649
20
159.906994
11
316.622844
21
160.714327
0
LINE
8
Layer 1
10
316.622844
20
160.714327
11
315.944007
21
161.228220
0
LINE
8
Layer 1
10
315.944007
20
161.228220
11
315.148962
21
161.535277
0
LINE
8
Layer 1
10
315.148962
20
161.535277
11
313.333544
21
161.875306
0
LINE
8
Layer 1
10
313.333544
20
161.875306
11
312.374821
21
162.081486
0
LINE
8
Layer 1
10
312.374821
20
162.081486
11
311.423187
21
162.427250
0
LINE
8
Layer 1
10
311.423187
20
162.427250
11
310.357934
21
163.034386
0
LINE
8
Layer 1
10
310.357934
20
163.034386
11
309.353885
21
163.804898
0
LINE
8
Layer 1
10
309.353885
20
163.804898
11
307.599933
21
165.729076
0
LINE
8
Layer 1
10
307.599933
20
165.729076
11
306.302401
21
167.985845
0
LINE
8
Layer 1
10
306.302401
20
167.985845
11
305.868877
21
169.172096
0
LINE
8
Layer 1
10
305.868877
20
169.172096
11
305.602361
21
170.361269
0
LINE
8
Layer 1
10
305.602361
20
170.361269
11
303.715041
21
169.726214
0
LINE
8
Layer 1
10
303.715041
20
169.726214
11
301.948076
21
168.892777
0
LINE
8
Layer 1
10
301.948076
20
168.892777
11
300.354610
21
167.801400
0
LINE
8
Layer 1
10
300.354610
20
167.801400
11
298.987786
21
166.392524
0
LINE
8
Layer 1
10
204.531655
20
169.832103
11
206.383736
21
165.069609
0
LINE
8
Layer 1
10
206.383736
20
165.069609
11
205.395330
21
165.999452
0
LINE
8
Layer 1
10
205.395330
20
165.999452
11
204.674831
21
167.165603
0
LINE
8
Layer 1
10
204.674831
20
167.165603
11
204.345763
21
168.474380
0
LINE
8
Layer 1
10
204.345763
20
168.474380
11
204.531655
21
169.832103
0
LINE
8
Layer 1
10
199.769161
20
167.715439
11
200.562910
21
164.011277
0
LINE
8
Layer 1
10
200.562910
20
164.011277
11
199.908912
21
164.801940
0
LINE
8
Layer 1
10
199.908912
20
164.801940
11
199.555693
21
165.719844
0
LINE
8
Layer 1
10
199.555693
20
165.719844
11
199.507645
21
166.709504
0
LINE
8
Layer 1
10
199.507645
20
166.709504
11
199.769161
21
167.715439
0
LINE
8
Layer 1
10
289.198215
20
166.657107
11
288.900789
21
165.148899
0
LINE
8
Layer 1
10
288.900789
20
165.148899
11
288.417755
21
163.598336
0
LINE
8
Layer 1
10
288.417755
20
163.598336
11
288.011982
21
162.055805
0
LINE
8
Layer 1
10
288.011982
20
162.055805
11
287.946340
21
160.571698
0
LINE
8
Layer 1
10
287.946340
20
160.571698
11
288.334118
21
159.179435
0
LINE
8
Layer 1
10
288.334118
20
159.179435
11
289.054340
21
157.983934
0
LINE
8
Layer 1
10
289.054340
20
157.983934
11
290.040033
21
156.981765
0
LINE
8
Layer 1
10
290.040033
20
156.981765
11
291.224226
21
156.169499
0
LINE
8
Layer 1
10
291.224226
20
156.169499
11
292.539946
21
155.543705
0
LINE
8
Layer 1
10
292.539946
20
155.543705
11
293.920219
21
155.100956
0
LINE
8
Layer 1
10
293.920219
20
155.100956
11
295.298075
21
154.837821
0
LINE
8
Layer 1
10
295.298075
20
154.837821
11
296.606539
21
154.750872
0
LINE
8
Layer 1
10
296.606539
20
154.750872
11
295.812790
21
156.073787
0
LINE
8
Layer 1
10
295.812790
20
156.073787
11
299.516952
21
155.015455
0
LINE
8
Layer 1
10
299.516952
20
155.015455
11
299.143237
21
155.896184
0
LINE
8
Layer 1
10
299.143237
20
155.896184
11
298.658195
21
156.509737
0
LINE
8
Layer 1
10
298.658195
20
156.509737
11
298.089290
21
156.931071
0
LINE
8
Layer 1
10
298.089290
20
156.931071
11
297.463983
21
157.235144
0
LINE
8
Layer 1
10
297.463983
20
157.235144
11
296.154017
21
157.791344
0
LINE
8
Layer 1
10
296.154017
20
157.791344
11
295.524284
21
158.193386
0
LINE
8
Layer 1
10
295.524284
20
158.193386
11
294.948000
21
158.778002
0
LINE
8
Layer 1
10
294.948000
20
158.778002
11
294.651257
21
159.282201
0
LINE
8
Layer 1
10
294.651257
20
159.282201
11
294.499936
21
159.819406
0
LINE
8
Layer 1
10
294.499936
20
159.819406
11
294.571678
21
160.970763
0
LINE
8
Layer 1
10
294.571678
20
160.970763
11
295.039471
21
162.187920
0
LINE
8
Layer 1
10
295.039471
20
162.187920
11
295.779562
21
163.426727
0
LINE
8
Layer 1
10
295.779562
20
163.426727
11
297.581611
21
165.792688
0
LINE
8
Layer 1
10
297.581611
20
165.792688
11
298.987786
21
167.715439
0
LINE
8
Layer 1
10
298.987786
20
167.715439
11
289.198215
21
166.657107
0
LINE
8
Layer 1
10
194.212918
20
166.127941
11
195.006667
21
162.952945
0
LINE
8
Layer 1
10
195.006667
20
162.952945
11
194.742084
21
162.952945
0
LINE
8
Layer 1
10
194.742084
20
162.952945
11
194.084348
21
164.498621
0
LINE
8
Layer 1
10
194.084348
20
164.498621
11
194.015104
21
165.295949
0
LINE
8
Layer 1
10
194.015104
20
165.295949
11
194.212918
21
166.127941
0
LINE
8
Layer 1
10
189.715007
20
164.805026
11
190.244173
21
162.159196
0
LINE
8
Layer 1
10
190.244173
20
162.159196
11
189.681095
21
162.841854
0
LINE
8
Layer 1
10
189.681095
20
162.841854
11
189.715007
21
164.805026
0
LINE
8
Layer 1
10
186.275428
20
163.746694
11
186.540011
21
161.894613
0
LINE
8
Layer 1
10
186.540011
20
161.894613
11
186.100613
21
162.307761
0
LINE
8
Layer 1
10
186.100613
20
162.307761
11
185.918743
21
162.744825
0
LINE
8
Layer 1
10
185.918743
20
162.744825
11
185.981361
21
163.219804
0
LINE
8
Layer 1
10
185.981361
20
163.219804
11
186.275428
21
163.746694
0
LINE
8
Layer 1
10
240.779526
20
162.159196
11
242.102441
21
161.365447
0
LINE
8
Layer 1
10
242.102441
20
161.365447
11
242.102441
21
161.100864
0
LINE
8
Layer 1
10
242.102441
20
161.100864
11
240.514943
21
161.894613
0
LINE
8
Layer 1
10
240.514943
20
161.894613
11
240.779526
21
162.159196
0
LINE
8
Layer 1
10
315.127349
20
160.571698
11
315.656515
21
159.777949
0
LINE
8
Layer 1
10
315.656515
20
159.777949
11
315.127349
21
160.571698
0
LINE
8
Layer 1
10
295.812790
20
156.338370
11
295.548207
21
156.073787
0
LINE
8
Layer 1
10
295.548207
20
156.073787
11
295.812790
21
156.338370
 0 
ENDSEC
 0 
EOF