999
"DXF R12 Output" (www.mydxf.blogspot.com)
 0 
SECTION
 2 
HEADER
 9 
$ACADVER
 1 
AC1009
 9 
$EXTMIN
 10 
 0 
 20 
 0 
 9 
$EXTMAX
 10 
 8.5 
 20 
 11 
 0 
ENDSEC
 0 
SECTION
 2 
ENTITIES
0
LINE
8
Layer 1
10
282.693944
20
206.169215
11
281.909641
21
206.553915
0
LINE
8
Layer 1
10
281.909641
20
206.553915
11
281.203046
21
207.137538
0
LINE
8
Layer 1
10
281.203046
20
207.137538
11
279.066141
21
209.514166
0
LINE
8
Layer 1
10
279.066141
20
209.514166
11
278.106454
21
210.667244
0
LINE
8
Layer 1
10
278.106454
20
210.667244
11
277.671382
21
211.569730
0
LINE
8
Layer 1
10
277.671382
20
211.569730
11
277.690141
21
212.540069
0
LINE
8
Layer 1
10
277.690141
20
212.540069
11
278.091947
21
213.896705
0
LINE
8
Layer 1
10
278.091947
20
213.896705
11
278.777825
21
216.546567
0
LINE
8
Layer 1
10
278.777825
20
216.546567
11
278.952291
21
217.709907
0
LINE
8
Layer 1
10
278.952291
20
217.709907
11
281.736736
21
217.889924
0
LINE
8
Layer 1
10
281.736736
20
217.889924
11
286.540928
21
218.456433
0
LINE
8
Layer 1
10
286.540928
20
218.456433
11
288.630605
21
218.842971
0
LINE
8
Layer 1
10
288.630605
20
218.842971
11
287.839971
21
217.525819
0
LINE
8
Layer 1
10
287.839971
20
217.525819
11
286.225545
21
215.403437
0
LINE
8
Layer 1
10
286.225545
20
215.403437
11
285.064449
21
213.874756
0
LINE
8
Layer 1
10
285.064449
20
213.874756
11
284.363232
21
212.513257
0
LINE
8
Layer 1
10
284.363232
20
212.513257
11
284.116028
21
211.303025
0
LINE
8
Layer 1
10
284.116028
20
211.303025
11
284.316976
21
210.228145
0
LINE
8
Layer 1
10
284.316976
20
210.228145
11
284.566230
21
209.752212
0
LINE
8
Layer 1
10
284.566230
20
209.752212
11
284.912777
21
209.416374
0
LINE
8
Layer 1
10
284.912777
20
209.416374
11
286.357017
21
208.856113
0
LINE
8
Layer 1
10
286.357017
20
208.856113
11
287.818395
21
208.279676
0
LINE
8
Layer 1
10
287.818395
20
208.279676
11
288.646321
21
207.451725
0
LINE
8
Layer 1
10
288.646321
20
207.451725
11
289.263011
21
206.539906
0
LINE
8
Layer 1
10
289.263011
20
206.539906
11
288.298077
21
206.456687
0
LINE
8
Layer 1
10
288.298077
20
206.456687
11
287.522306
21
206.476155
0
LINE
8
Layer 1
10
287.522306
20
206.476155
11
287.012204
21
206.639821
0
LINE
8
Layer 1
10
287.012204
20
206.639821
11
285.910163
21
207.203150
0
LINE
8
Layer 1
10
285.910163
20
207.203150
11
285.129061
21
207.500128
0
LINE
8
Layer 1
10
285.129061
20
207.500128
11
285.720404
21
206.870672
0
LINE
8
Layer 1
10
285.720404
20
206.870672
11
286.311747
21
206.059833
0
LINE
8
Layer 1
10
286.311747
20
206.059833
11
285.886866
21
205.927105
0
LINE
8
Layer 1
10
285.886866
20
205.927105
11
284.877247
21
205.909106
0
LINE
8
Layer 1
10
284.877247
20
205.909106
11
282.693944
21
206.169215
0
LINE
8
Layer 1
10
282.693944
20
206.169215
11
282.693944
21
206.169215
0
LINE
8
Layer 1
10
247.418019
20
206.959056
11
245.108482
21
207.029938
0
LINE
8
Layer 1
10
245.108482
20
207.029938
11
244.190584
21
207.063088
0
LINE
8
Layer 1
10
244.190584
20
207.063088
11
243.116254
21
207.546830
0
LINE
8
Layer 1
10
243.116254
20
207.546830
11
242.164787
21
207.989315
0
LINE
8
Layer 1
10
242.164787
20
207.989315
11
241.579863
21
207.990673
0
LINE
8
Layer 1
10
241.579863
20
207.990673
11
241.266992
21
208.064009
0
LINE
8
Layer 1
10
241.266992
20
208.064009
11
240.782760
21
208.468117
0
LINE
8
Layer 1
10
240.782760
20
208.468117
11
239.520853
21
209.971024
0
LINE
8
Layer 1
10
239.520853
20
209.971024
11
238.235432
21
211.904150
0
LINE
8
Layer 1
10
238.235432
20
211.904150
11
237.367786
21
213.672249
0
LINE
8
Layer 1
10
237.367786
20
213.672249
11
236.617522
21
215.368366
0
LINE
8
Layer 1
10
236.617522
20
215.368366
11
235.535303
21
217.348876
0
LINE
8
Layer 1
10
235.535303
20
217.348876
11
234.375251
21
219.469522
0
LINE
8
Layer 1
10
234.375251
20
219.469522
11
233.437861
21
221.502564
0
LINE
8
Layer 1
10
233.437861
20
221.502564
11
232.637055
21
223.180842
0
LINE
8
Layer 1
10
232.637055
20
223.180842
11
232.246193
21
223.619020
0
LINE
8
Layer 1
10
232.246193
20
223.619020
11
231.766281
21
223.928351
0
LINE
8
Layer 1
10
231.766281
20
223.928351
11
230.686262
21
224.404170
0
LINE
8
Layer 1
10
230.686262
20
224.404170
11
229.986897
21
224.425636
0
LINE
8
Layer 1
10
229.986897
20
224.425636
11
229.486464
21
223.919312
0
LINE
8
Layer 1
10
229.486464
20
223.919312
11
229.003241
21
222.811761
0
LINE
8
Layer 1
10
229.003241
20
222.811761
11
228.505283
21
221.093111
0
LINE
8
Layer 1
10
228.505283
20
221.093111
11
228.689162
21
219.379839
0
LINE
8
Layer 1
10
228.689162
20
219.379839
11
228.919867
21
218.392685
0
LINE
8
Layer 1
10
228.919867
20
218.392685
11
229.265371
21
217.601000
0
LINE
8
Layer 1
10
229.265371
20
217.601000
11
230.923867
21
215.530841
0
LINE
8
Layer 1
10
230.923867
20
215.530841
11
232.694108
21
213.754915
0
LINE
8
Layer 1
10
232.694108
20
213.754915
11
234.166906
21
212.767894
0
LINE
8
Layer 1
10
234.166906
20
212.767894
11
235.158118
21
212.177146
0
LINE
8
Layer 1
10
235.158118
20
212.177146
11
235.664152
21
211.636021
0
LINE
8
Layer 1
10
235.664152
20
211.636021
11
235.745456
21
211.226095
0
LINE
8
Layer 1
10
235.745456
20
211.226095
11
235.666675
21
211.009011
0
LINE
8
Layer 1
10
235.666675
20
211.009011
11
235.426263
21
210.983595
0
LINE
8
Layer 1
10
235.426263
20
210.983595
11
235.022673
21
211.148672
0
LINE
8
Layer 1
10
235.022673
20
211.148672
11
233.902921
21
211.434692
0
LINE
8
Layer 1
10
233.902921
20
211.434692
11
233.068169
21
211.714381
0
LINE
8
Layer 1
10
233.068169
20
211.714381
11
231.883150
21
212.386825
0
LINE
8
Layer 1
10
231.883150
20
212.386825
11
230.348457
21
213.238716
0
LINE
8
Layer 1
10
230.348457
20
213.238716
11
231.689377
21
212.023386
0
LINE
8
Layer 1
10
231.689377
20
212.023386
11
232.691097
21
211.149591
0
LINE
8
Layer 1
10
232.691097
20
211.149591
11
233.136082
21
210.558688
0
LINE
8
Layer 1
10
233.136082
20
210.558688
11
233.137722
21
210.401902
0
LINE
8
Layer 1
10
233.137722
20
210.401902
11
232.985685
21
210.354937
0
LINE
8
Layer 1
10
232.985685
20
210.354937
11
232.201253
21
210.642596
0
LINE
8
Layer 1
10
232.201253
20
210.642596
11
230.892392
21
211.069832
0
LINE
8
Layer 1
10
230.892392
20
211.069832
11
229.050509
21
211.431710
0
LINE
8
Layer 1
10
229.050509
20
211.431710
11
227.571421
21
211.690951
0
LINE
8
Layer 1
10
227.571421
20
211.690951
11
226.577325
21
212.091598
0
LINE
8
Layer 1
10
226.577325
20
212.091598
11
225.722936
21
212.850191
0
LINE
8
Layer 1
10
225.722936
20
212.850191
11
224.662971
21
214.183267
0
LINE
8
Layer 1
10
224.662971
20
214.183267
11
223.695192
21
215.281567
0
LINE
8
Layer 1
10
223.695192
20
215.281567
11
223.344162
21
215.471414
0
LINE
8
Layer 1
10
223.344162
20
215.471414
11
223.006666
21
215.480496
0
LINE
8
Layer 1
10
223.006666
20
215.480496
11
222.650601
21
215.517080
0
LINE
8
Layer 1
10
222.650601
20
215.517080
11
222.311243
21
215.951168
0
LINE
8
Layer 1
10
222.311243
20
215.951168
11
221.153465
21
219.023596
0
LINE
8
Layer 1
10
221.153465
20
219.023596
11
219.896696
21
223.076442
0
LINE
8
Layer 1
10
219.896696
20
223.076442
11
221.183181
21
226.652217
0
LINE
8
Layer 1
10
221.183181
20
226.652217
11
222.644295
21
230.885447
0
LINE
8
Layer 1
10
222.644295
20
230.885447
11
222.823614
21
231.939874
0
LINE
8
Layer 1
10
222.823614
20
231.939874
11
221.967767
21
230.881542
0
LINE
8
Layer 1
10
221.967767
20
230.881542
11
219.629845
21
228.450821
0
LINE
8
Layer 1
10
219.629845
20
228.450821
11
216.402256
21
225.910155
0
LINE
8
Layer 1
10
216.402256
20
225.910155
11
212.559198
21
223.372613
0
LINE
8
Layer 1
10
212.559198
20
223.372613
11
208.205853
21
220.809591
0
LINE
8
Layer 1
10
208.205853
20
220.809591
11
203.912505
21
218.539830
0
LINE
8
Layer 1
10
203.912505
20
218.539830
11
200.249437
21
216.882072
0
LINE
8
Layer 1
10
200.249437
20
216.882072
11
196.803669
21
215.759641
0
LINE
8
Layer 1
10
196.803669
20
215.759641
11
192.376513
21
214.671802
0
LINE
8
Layer 1
10
192.376513
20
214.671802
11
187.406110
21
213.713932
0
LINE
8
Layer 1
10
187.406110
20
213.713932
11
182.330601
21
212.981409
0
LINE
8
Layer 1
10
182.330601
20
212.981409
11
179.445212
21
212.755877
0
LINE
8
Layer 1
10
179.445212
20
212.755877
11
176.095243
21
212.650682
0
LINE
8
Layer 1
10
176.095243
20
212.650682
11
173.061851
21
212.675643
0
LINE
8
Layer 1
10
173.061851
20
212.675643
11
171.126191
21
212.840577
0
LINE
8
Layer 1
10
171.126191
20
212.840577
11
170.317000
21
213.094837
0
LINE
8
Layer 1
10
170.317000
20
213.094837
11
170.326250
21
213.266748
0
LINE
8
Layer 1
10
170.326250
20
213.266748
11
170.549744
21
213.543714
0
LINE
8
Layer 1
10
170.549744
20
213.543714
11
171.385090
21
214.146692
0
LINE
8
Layer 1
10
171.385090
20
214.146692
11
173.090758
21
214.862052
0
LINE
8
Layer 1
10
173.090758
20
214.862052
11
180.798584
21
217.237386
0
LINE
8
Layer 1
10
180.798584
20
217.237386
11
186.644336
21
218.978418
0
LINE
8
Layer 1
10
186.644336
20
218.978418
11
190.828753
21
220.371957
0
LINE
8
Layer 1
10
190.828753
20
220.371957
11
194.184470
21
221.720839
0
LINE
8
Layer 1
10
194.184470
20
221.720839
11
197.544124
21
223.327901
0
LINE
8
Layer 1
10
197.544124
20
223.327901
11
200.633774
21
224.950302
0
LINE
8
Layer 1
10
200.633774
20
224.950302
11
203.341112
21
226.532436
0
LINE
8
Layer 1
10
203.341112
20
226.532436
11
205.786317
21
228.175951
0
LINE
8
Layer 1
10
205.786317
20
228.175951
11
208.089569
21
229.982494
0
LINE
8
Layer 1
10
208.089569
20
229.982494
11
210.371049
21
232.053716
0
LINE
8
Layer 1
10
210.371049
20
232.053716
11
212.750937
21
234.491263
0
LINE
8
Layer 1
10
212.750937
20
234.491263
11
218.286658
21
240.871929
0
LINE
8
Layer 1
10
218.286658
20
240.871929
11
221.360586
21
244.507567
0
LINE
8
Layer 1
10
221.360586
20
244.507567
11
221.286479
21
241.503666
0
LINE
8
Layer 1
10
221.286479
20
241.503666
11
221.385418
21
237.914830
0
LINE
8
Layer 1
10
221.385418
20
237.914830
11
221.642492
21
236.286588
0
LINE
8
Layer 1
10
221.642492
20
236.286588
11
222.044174
21
234.762922
0
LINE
8
Layer 1
10
222.044174
20
234.762922
11
222.595115
21
233.339177
0
LINE
8
Layer 1
10
222.595115
20
233.339177
11
223.299969
21
232.010697
0
LINE
8
Layer 1
10
223.299969
20
232.010697
11
224.163387
21
230.772827
0
LINE
8
Layer 1
10
224.163387
20
230.772827
11
225.190024
21
229.620910
0
LINE
8
Layer 1
10
225.190024
20
229.620910
11
226.384531
21
228.550292
0
LINE
8
Layer 1
10
226.384531
20
228.550292
11
227.751562
21
227.556316
0
LINE
8
Layer 1
10
227.751562
20
227.556316
11
231.021803
21
225.779671
0
LINE
8
Layer 1
10
231.021803
20
225.779671
11
235.037970
21
224.253729
0
LINE
8
Layer 1
10
235.037970
20
224.253729
11
239.837285
21
222.941245
0
LINE
8
Layer 1
10
239.837285
20
222.941245
11
243.460585
21
221.879870
0
LINE
8
Layer 1
10
243.460585
20
221.879870
11
245.786159
21
220.175817
0
LINE
8
Layer 1
10
245.786159
20
220.175817
11
246.929742
21
219.179745
0
LINE
8
Layer 1
10
246.929742
20
219.179745
11
247.418019
21
218.617326
0
LINE
8
Layer 1
10
247.418019
20
218.617326
11
246.905696
21
218.369725
0
LINE
8
Layer 1
10
246.905696
20
218.369725
11
245.673941
21
218.064263
0
LINE
8
Layer 1
10
245.673941
20
218.064263
11
244.151439
21
217.631893
0
LINE
8
Layer 1
10
244.151439
20
217.631893
11
243.749214
21
217.331484
0
LINE
8
Layer 1
10
243.749214
20
217.331484
11
243.425975
21
216.891245
0
LINE
8
Layer 1
10
243.425975
20
216.891245
11
243.012152
21
215.965815
0
LINE
8
Layer 1
10
243.012152
20
215.965815
11
242.973965
21
215.048092
0
LINE
8
Layer 1
10
242.973965
20
215.048092
11
243.333634
21
214.002386
0
LINE
8
Layer 1
10
243.333634
20
214.002386
11
244.113375
21
212.693003
0
LINE
8
Layer 1
10
244.113375
20
212.693003
11
245.153679
21
211.274010
0
LINE
8
Layer 1
10
245.153679
20
211.274010
11
246.056980
21
210.455424
0
LINE
8
Layer 1
10
246.056980
20
210.455424
11
247.052182
21
210.095105
0
LINE
8
Layer 1
10
247.052182
20
210.095105
11
248.368187
21
210.050912
0
LINE
8
Layer 1
10
248.368187
20
210.050912
11
249.589802
21
210.043856
0
LINE
8
Layer 1
10
249.589802
20
210.043856
11
250.526428
21
209.886518
0
LINE
8
Layer 1
10
250.526428
20
209.886518
11
251.264517
21
209.553590
0
LINE
8
Layer 1
10
251.264517
20
209.553590
11
251.890525
21
209.019763
0
LINE
8
Layer 1
10
251.890525
20
209.019763
11
252.288749
21
208.487990
0
LINE
8
Layer 1
10
252.288749
20
208.487990
11
252.441192
21
208.062561
0
LINE
8
Layer 1
10
252.441192
20
208.062561
11
252.341187
21
207.827402
0
LINE
8
Layer 1
10
252.341187
20
207.827402
11
251.982071
21
207.866441
0
LINE
8
Layer 1
10
251.982071
20
207.866441
11
249.799266
21
208.263371
0
LINE
8
Layer 1
10
249.799266
20
208.263371
11
247.418019
21
208.648096
0
LINE
8
Layer 1
10
247.418019
20
208.648096
11
247.259231
21
208.661464
0
LINE
8
Layer 1
10
247.259231
20
208.661464
11
247.315859
21
208.564564
0
LINE
8
Layer 1
10
247.315859
20
208.564564
11
247.999094
21
208.110518
0
LINE
8
Layer 1
10
247.999094
20
208.110518
11
248.917234
21
207.497693
0
LINE
8
Layer 1
10
248.917234
20
207.497693
11
249.379849
21
207.032411
0
LINE
8
Layer 1
10
249.379849
20
207.032411
11
249.433801
21
206.809886
0
LINE
8
Layer 1
10
249.433801
20
206.809886
11
249.246974
21
206.728052
0
LINE
8
Layer 1
10
249.246974
20
206.728052
11
247.418019
21
206.959056
0
LINE
8
Layer 1
10
247.418019
20
206.959056
11
247.418019
21
206.959056
0
LINE
8
Layer 1
10
176.245192
20
213.529715
11
176.073934
21
214.461218
0
LINE
8
Layer 1
10
176.073934
20
214.461218
11
175.895737
21
214.761393
0
LINE
8
Layer 1
10
175.895737
20
214.761393
11
175.687718
21
214.874271
0
LINE
8
Layer 1
10
175.687718
20
214.874271
11
175.528371
21
214.737397
0
LINE
8
Layer 1
10
175.528371
20
214.737397
11
175.459315
21
214.389811
0
LINE
8
Layer 1
10
175.459315
20
214.389811
11
175.612042
21
213.440704
0
LINE
8
Layer 1
10
175.612042
20
213.440704
11
175.805170
21
213.122898
0
LINE
8
Layer 1
10
175.805170
20
213.122898
11
176.012349
21
213.037038
0
LINE
8
Layer 1
10
176.012349
20
213.037038
11
176.177662
21
213.175265
0
LINE
8
Layer 1
10
176.177662
20
213.175265
11
176.245192
21
213.529715
0
LINE
8
Layer 1
10
176.245192
20
213.529715
11
176.245192
21
213.529715
0
LINE
8
Layer 1
10
179.813089
20
214.411250
11
179.397047
21
215.765648
0
LINE
8
Layer 1
10
179.397047
20
215.765648
11
179.225600
21
215.746766
0
LINE
8
Layer 1
10
179.225600
20
215.746766
11
179.155605
21
215.174377
0
LINE
8
Layer 1
10
179.155605
20
215.174377
11
179.388196
21
213.919370
0
LINE
8
Layer 1
10
179.388196
20
213.919370
11
179.612464
21
213.465009
0
LINE
8
Layer 1
10
179.612464
20
213.465009
11
179.849630
21
213.286773
0
LINE
8
Layer 1
10
179.849630
20
213.286773
11
179.813089
21
214.411250
0
LINE
8
Layer 1
10
179.813089
20
214.411250
11
179.813089
21
214.411250
0
LINE
8
Layer 1
10
184.450496
20
215.654555
11
183.911511
21
217.087960
0
LINE
8
Layer 1
10
183.911511
20
217.087960
11
183.725359
21
217.055625
0
LINE
8
Layer 1
10
183.725359
20
217.055625
11
183.653516
21
216.464245
0
LINE
8
Layer 1
10
183.653516
20
216.464245
11
183.770302
21
215.713029
0
LINE
8
Layer 1
10
183.770302
20
215.713029
11
184.046224
21
214.906127
0
LINE
8
Layer 1
10
184.046224
20
214.906127
11
184.369635
21
214.305709
0
LINE
8
Layer 1
10
184.369635
20
214.305709
11
184.628883
21
214.173943
0
LINE
8
Layer 1
10
184.628883
20
214.173943
11
184.450496
21
215.654555
0
LINE
8
Layer 1
10
184.450496
20
215.654555
11
184.450496
21
215.654555
0
LINE
8
Layer 1
10
189.805383
20
217.145586
11
189.342051
21
218.975307
0
LINE
8
Layer 1
10
189.342051
20
218.975307
11
189.260474
21
217.695649
0
LINE
8
Layer 1
10
189.260474
20
217.695649
11
189.307245
21
216.570032
0
LINE
8
Layer 1
10
189.307245
20
216.570032
11
189.612343
21
215.754464
0
LINE
8
Layer 1
10
189.612343
20
215.754464
11
189.990235
21
215.266780
0
LINE
8
Layer 1
10
189.990235
20
215.266780
11
190.145883
21
215.318130
0
LINE
8
Layer 1
10
190.145883
20
215.318130
11
189.805383
21
217.145586
0
LINE
8
Layer 1
10
189.805383
20
217.145586
11
189.805383
21
217.145586
0
LINE
8
Layer 1
10
195.453188
20
217.546011
11
194.505896
21
219.861909
0
LINE
8
Layer 1
10
194.505896
20
219.861909
11
194.253060
21
220.672940
0
LINE
8
Layer 1
10
194.253060
20
220.672940
11
194.101196
21
220.852088
0
LINE
8
Layer 1
10
194.101196
20
220.852088
11
194.152363
21
219.384876
0
LINE
8
Layer 1
10
194.152363
20
219.384876
11
194.458779
21
218.088949
0
LINE
8
Layer 1
10
194.458779
20
218.088949
11
195.107137
21
217.076464
0
LINE
8
Layer 1
10
195.107137
20
217.076464
11
195.995699
21
216.280355
0
LINE
8
Layer 1
10
195.995699
20
216.280355
11
195.453188
21
217.546011
0
LINE
8
Layer 1
10
195.453188
20
217.546011
11
195.453188
21
217.546011
0
LINE
8
Layer 1
10
200.748703
20
219.857387
11
200.054169
21
221.047290
0
LINE
8
Layer 1
10
200.054169
20
221.047290
11
199.662970
21
222.008071
0
LINE
8
Layer 1
10
199.662970
20
222.008071
11
199.262490
21
222.924765
0
LINE
8
Layer 1
10
199.262490
20
222.924765
11
199.077276
21
223.011621
0
LINE
8
Layer 1
10
199.077276
20
223.011621
11
198.999330
21
222.743107
0
LINE
8
Layer 1
10
198.999330
20
222.743107
11
199.147980
21
221.758221
0
LINE
8
Layer 1
10
199.147980
20
221.758221
11
199.533355
21
220.669563
0
LINE
8
Layer 1
10
199.533355
20
220.669563
11
200.064596
21
219.682855
0
LINE
8
Layer 1
10
200.064596
20
219.682855
11
200.650841
21
219.003819
0
LINE
8
Layer 1
10
200.650841
20
219.003819
11
201.577990
21
218.423067
0
LINE
8
Layer 1
10
201.577990
20
218.423067
11
200.748703
21
219.857387
0
LINE
8
Layer 1
10
200.748703
20
219.857387
11
200.748703
21
219.857387
0
LINE
8
Layer 1
10
205.839840
20
222.216449
11
204.872273
21
223.477940
0
LINE
8
Layer 1
10
204.872273
20
223.477940
11
204.188115
21
224.746063
0
LINE
8
Layer 1
10
204.188115
20
224.746063
11
203.786807
21
225.669564
0
LINE
8
Layer 1
10
203.786807
20
225.669564
11
203.593678
21
225.842279
0
LINE
8
Layer 1
10
203.593678
20
225.842279
11
203.916941
21
224.128805
0
LINE
8
Layer 1
10
203.916941
20
224.128805
11
204.489118
21
222.652797
0
LINE
8
Layer 1
10
204.489118
20
222.652797
11
205.432197
21
221.723811
0
LINE
8
Layer 1
10
205.432197
20
221.723811
11
206.341066
21
221.123382
0
LINE
8
Layer 1
10
206.341066
20
221.123382
11
206.717968
21
221.012602
0
LINE
8
Layer 1
10
206.717968
20
221.012602
11
206.553896
21
221.380586
0
LINE
8
Layer 1
10
206.553896
20
221.380586
11
205.839840
21
222.216449
0
LINE
8
Layer 1
10
205.839840
20
222.216449
11
205.839840
21
222.216449
0
LINE
8
Layer 1
10
210.708580
20
225.278566
11
209.598355
21
226.605446
0
LINE
8
Layer 1
10
209.598355
20
226.605446
11
208.799662
21
227.817745
0
LINE
8
Layer 1
10
208.799662
20
227.817745
11
208.328154
21
228.633721
0
LINE
8
Layer 1
10
208.328154
20
228.633721
11
208.116144
21
228.774668
0
LINE
8
Layer 1
10
208.116144
20
228.774668
11
208.539791
21
227.196763
0
LINE
8
Layer 1
10
208.539791
20
227.196763
11
209.241277
21
225.815662
0
LINE
8
Layer 1
10
209.241277
20
225.815662
11
210.335029
21
224.787283
0
LINE
8
Layer 1
10
210.335029
20
224.787283
11
211.355806
21
224.088204
0
LINE
8
Layer 1
10
211.355806
20
224.088204
11
211.759728
21
223.938905
0
LINE
8
Layer 1
10
211.759728
20
223.938905
11
211.544688
21
224.336616
0
LINE
8
Layer 1
10
211.544688
20
224.336616
11
210.708580
21
225.278566
0
LINE
8
Layer 1
10
210.708580
20
225.278566
11
210.708580
21
225.278566
0
LINE
8
Layer 1
10
214.502047
20
227.904983
11
213.263150
21
229.353506
0
LINE
8
Layer 1
10
213.263150
20
229.353506
11
212.485533
21
230.954022
0
LINE
8
Layer 1
10
212.485533
20
230.954022
11
211.793850
21
232.519478
0
LINE
8
Layer 1
10
211.793850
20
232.519478
11
211.791647
21
231.904461
0
LINE
8
Layer 1
10
211.791647
20
231.904461
11
212.055346
21
230.726046
0
LINE
8
Layer 1
10
212.055346
20
230.726046
11
212.457949
21
229.451726
0
LINE
8
Layer 1
10
212.457949
20
229.451726
11
212.872457
21
228.548997
0
LINE
8
Layer 1
10
212.872457
20
228.548997
11
213.448059
21
227.926719
0
LINE
8
Layer 1
10
213.448059
20
227.926719
11
214.277558
21
227.266381
0
LINE
8
Layer 1
10
214.277558
20
227.266381
11
215.118538
21
226.740170
0
LINE
8
Layer 1
10
215.118538
20
226.740170
11
215.728585
21
226.520275
0
LINE
8
Layer 1
10
215.728585
20
226.520275
11
215.447828
21
226.925242
0
LINE
8
Layer 1
10
215.447828
20
226.925242
11
214.502047
21
227.904983
0
LINE
8
Layer 1
10
214.502047
20
227.904983
11
214.502047
21
227.904983
0
LINE
8
Layer 1
10
218.026793
20
230.469668
11
216.951463
21
231.634291
0
LINE
8
Layer 1
10
216.951463
20
231.634291
11
216.150989
21
233.047643
0
LINE
8
Layer 1
10
216.150989
20
233.047643
11
215.042607
21
235.499988
0
LINE
8
Layer 1
10
215.042607
20
235.499988
11
214.968354
21
235.559964
0
LINE
8
Layer 1
10
214.968354
20
235.559964
11
214.949530
21
235.436891
0
LINE
8
Layer 1
10
214.949530
20
235.436891
11
215.026750
21
234.717996
0
LINE
8
Layer 1
10
215.026750
20
234.717996
11
215.324092
21
233.411403
0
LINE
8
Layer 1
10
215.324092
20
233.411403
11
215.851864
21
232.200128
0
LINE
8
Layer 1
10
215.851864
20
232.200128
11
216.579032
21
231.140332
0
LINE
8
Layer 1
10
216.579032
20
231.140332
11
217.474563
21
230.288178
0
LINE
8
Layer 1
10
217.474563
20
230.288178
11
218.444421
21
229.629967
0
LINE
8
Layer 1
10
218.444421
20
229.629967
11
218.902224
21
229.454772
0
LINE
8
Layer 1
10
218.902224
20
229.454772
11
218.784254
21
229.741653
0
LINE
8
Layer 1
10
218.784254
20
229.741653
11
218.026793
21
230.469668
0
LINE
8
Layer 1
10
218.026793
20
230.469668
11
218.026793
21
230.469668
0
LINE
8
Layer 1
10
221.488885
20
232.813226
11
220.402907
21
233.654235
0
LINE
8
Layer 1
10
220.402907
20
233.654235
11
219.478910
21
234.590651
0
LINE
8
Layer 1
10
219.478910
20
234.590651
11
218.727032
21
235.610640
0
LINE
8
Layer 1
10
218.727032
20
235.610640
11
218.157409
21
236.702368
0
LINE
8
Layer 1
10
218.157409
20
236.702368
11
217.486165
21
238.289866
0
LINE
8
Layer 1
10
217.486165
20
238.289866
11
217.608945
21
237.175244
0
LINE
8
Layer 1
10
217.608945
20
237.175244
11
217.862520
21
235.952475
0
LINE
8
Layer 1
10
217.862520
20
235.952475
11
218.340214
21
234.889969
0
LINE
8
Layer 1
10
218.340214
20
234.889969
11
219.049397
21
233.975449
0
LINE
8
Layer 1
10
219.049397
20
233.975449
11
219.997436
21
233.196643
0
LINE
8
Layer 1
10
219.997436
20
233.196643
11
221.033376
21
232.593419
0
LINE
8
Layer 1
10
221.033376
20
232.593419
11
221.717226
21
232.350626
0
LINE
8
Layer 1
10
221.717226
20
232.350626
11
221.904556
21
232.462146
0
LINE
8
Layer 1
10
221.904556
20
232.462146
11
221.488885
21
232.813226
0
LINE
8
Layer 1
10
221.488885
20
232.813226
11
221.488885
21
232.813226
0
LINE
8
Layer 1
10
220.466058
20
238.485996
11
220.008086
21
240.670155
0
LINE
8
Layer 1
10
220.008086
20
240.670155
11
219.817558
21
241.600774
0
LINE
8
Layer 1
10
219.817558
20
241.600774
11
219.723666
21
241.654320
0
LINE
8
Layer 1
10
219.723666
20
241.654320
11
219.615585
21
241.463904
0
LINE
8
Layer 1
10
219.615585
20
241.463904
11
219.429436
21
240.725033
0
LINE
8
Layer 1
10
219.429436
20
240.725033
11
219.423553
21
239.929025
0
LINE
8
Layer 1
10
219.423553
20
239.929025
11
219.597336
21
239.081747
0
LINE
8
Layer 1
10
219.597336
20
239.081747
11
219.950184
21
238.189065
0
LINE
8
Layer 1
10
219.950184
20
238.189065
11
220.356640
21
237.493667
0
LINE
8
Layer 1
10
220.356640
20
237.493667
11
220.607921
21
237.328519
0
LINE
8
Layer 1
10
220.607921
20
237.328519
11
220.659302
21
237.667877
0
LINE
8
Layer 1
10
220.659302
20
237.667877
11
220.466058
21
238.485996
0
LINE
8
Layer 1
10
220.466058
20
238.485996
11
220.466058
21
238.485996
0
LINE
8
Layer 1
10
304.832557
20
210.024530
11
303.840040
21
210.540157
0
LINE
8
Layer 1
10
303.840040
20
210.540157
11
302.583601
21
210.477854
0
LINE
8
Layer 1
10
302.583601
20
210.477854
11
301.112729
21
210.296800
0
LINE
8
Layer 1
10
301.112729
20
210.296800
11
300.036100
21
210.304945
0
LINE
8
Layer 1
10
300.036100
20
210.304945
11
299.205092
21
210.519650
0
LINE
8
Layer 1
10
299.205092
20
210.519650
11
298.471082
21
210.958278
0
LINE
8
Layer 1
10
298.471082
20
210.958278
11
297.463074
21
211.557256
0
LINE
8
Layer 1
10
297.463074
20
211.557256
11
296.623783
21
211.750043
0
LINE
8
Layer 1
10
296.623783
20
211.750043
11
296.049554
21
211.537955
0
LINE
8
Layer 1
10
296.049554
20
211.537955
11
295.836735
21
210.922308
0
LINE
8
Layer 1
10
295.836735
20
210.922308
11
295.724743
21
210.489549
0
LINE
8
Layer 1
10
295.724743
20
210.489549
11
295.455470
21
210.124752
0
LINE
8
Layer 1
10
295.455470
20
210.124752
11
295.256106
21
209.999729
0
LINE
8
Layer 1
10
295.256106
20
209.999729
11
295.115157
21
210.034921
0
LINE
8
Layer 1
10
295.115157
20
210.034921
11
294.909107
21
210.688528
0
LINE
8
Layer 1
10
294.909107
20
210.688528
11
294.489334
21
211.794585
0
LINE
8
Layer 1
10
294.489334
20
211.794585
11
293.642141
21
213.023354
0
LINE
8
Layer 1
10
293.642141
20
213.023354
11
292.406710
21
214.327189
0
LINE
8
Layer 1
10
292.406710
20
214.327189
11
290.822225
21
215.658447
0
LINE
8
Layer 1
10
290.822225
20
215.658447
11
288.691062
21
217.280761
0
LINE
8
Layer 1
10
288.691062
20
217.280761
11
289.351303
21
218.252384
0
LINE
8
Layer 1
10
289.351303
20
218.252384
11
289.837000
21
218.852216
0
LINE
8
Layer 1
10
289.837000
20
218.852216
11
290.635767
21
219.408641
0
LINE
8
Layer 1
10
290.635767
20
219.408641
11
294.976840
21
221.401237
0
LINE
8
Layer 1
10
294.976840
20
221.401237
11
295.217779
21
221.364622
0
LINE
8
Layer 1
10
295.217779
20
221.364622
11
295.307569
21
221.023534
0
LINE
8
Layer 1
10
295.307569
20
221.023534
11
295.594001
21
220.023144
0
LINE
8
Layer 1
10
295.594001
20
220.023144
11
296.297995
21
218.550437
0
LINE
8
Layer 1
10
296.297995
20
218.550437
11
297.186596
21
217.041546
0
LINE
8
Layer 1
10
297.186596
20
217.041546
11
298.026847
21
215.932603
0
LINE
8
Layer 1
10
298.026847
20
215.932603
11
299.366640
21
214.636865
0
LINE
8
Layer 1
10
299.366640
20
214.636865
11
300.456327
21
213.825397
0
LINE
8
Layer 1
10
300.456327
20
213.825397
11
301.451995
21
213.406075
0
LINE
8
Layer 1
10
301.451995
20
213.406075
11
302.509730
21
213.286773
0
LINE
8
Layer 1
10
302.509730
20
213.286773
11
303.831898
21
213.133411
0
LINE
8
Layer 1
10
303.831898
20
213.133411
11
305.052571
21
212.707141
0
LINE
8
Layer 1
10
305.052571
20
212.707141
11
306.066293
21
212.058685
0
LINE
8
Layer 1
10
306.066293
20
212.058685
11
306.767611
21
211.238768
0
LINE
8
Layer 1
10
306.767611
20
211.238768
11
307.137344
21
210.446537
0
LINE
8
Layer 1
10
307.137344
20
210.446537
11
307.096702
21
210.092944
0
LINE
8
Layer 1
10
307.096702
20
210.092944
11
306.658219
21
210.184835
0
LINE
8
Layer 1
10
306.658219
20
210.184835
11
305.834427
21
210.729062
0
LINE
8
Layer 1
10
305.834427
20
210.729062
11
304.605968
21
211.666768
0
LINE
8
Layer 1
10
304.605968
20
211.666768
11
305.248428
21
210.720058
0
LINE
8
Layer 1
10
305.248428
20
210.720058
11
305.890889
21
209.545688
0
LINE
8
Layer 1
10
305.890889
20
209.545688
11
305.879967
21
209.389054
0
LINE
8
Layer 1
10
305.879967
20
209.389054
11
305.773569
21
209.383335
0
LINE
8
Layer 1
10
305.773569
20
209.383335
11
304.832557
21
210.024530
0
LINE
8
Layer 1
10
304.832557
20
210.024530
11
304.832557
21
210.024530
0
LINE
8
Layer 1
10
248.905648
20
218.790557
11
248.648719
21
220.082121
0
LINE
8
Layer 1
10
248.648719
20
220.082121
11
248.404930
21
222.754654
0
LINE
8
Layer 1
10
248.404930
20
222.754654
11
248.123723
21
229.875703
0
LINE
8
Layer 1
10
248.123723
20
229.875703
11
248.301601
21
244.192976
0
LINE
8
Layer 1
10
248.301601
20
244.192976
11
248.547234
21
250.438608
0
LINE
8
Layer 1
10
248.547234
20
250.438608
11
248.845415
21
254.317360
0
LINE
8
Layer 1
10
248.845415
20
254.317360
11
249.436041
21
257.672414
0
LINE
8
Layer 1
10
249.436041
20
257.672414
11
250.172968
21
260.376921
0
LINE
8
Layer 1
10
250.172968
20
260.376921
11
251.009308
21
262.293173
0
LINE
8
Layer 1
10
251.009308
20
262.293173
11
251.450105
21
262.912668
0
LINE
8
Layer 1
10
251.450105
20
262.912668
11
251.898171
21
263.283459
0
LINE
8
Layer 1
10
251.898171
20
263.283459
11
253.109326
21
263.548517
0
LINE
8
Layer 1
10
253.109326
20
263.548517
11
253.724342
21
263.533572
0
LINE
8
Layer 1
10
253.724342
20
263.533572
11
254.095613
21
263.406329
0
LINE
8
Layer 1
10
254.095613
20
263.406329
11
253.987388
21
262.819334
0
LINE
8
Layer 1
10
253.987388
20
262.819334
11
253.514853
21
261.620394
0
LINE
8
Layer 1
10
253.514853
20
261.620394
11
252.450961
21
258.499198
0
LINE
8
Layer 1
10
252.450961
20
258.499198
11
251.648352
21
254.561721
0
LINE
8
Layer 1
10
251.648352
20
254.561721
11
251.311732
21
249.087178
0
LINE
8
Layer 1
10
251.311732
20
249.087178
11
251.060039
21
239.762832
0
LINE
8
Layer 1
10
251.060039
20
239.762832
11
250.960149
21
230.184154
0
LINE
8
Layer 1
10
250.960149
20
230.184154
11
251.078943
21
223.946615
0
LINE
8
Layer 1
10
251.078943
20
223.946615
11
251.235603
21
219.550688
0
LINE
8
Layer 1
10
251.235603
20
219.550688
11
250.805191
21
219.079161
0
LINE
8
Layer 1
10
250.805191
20
219.079161
11
250.087330
21
218.734595
0
LINE
8
Layer 1
10
250.087330
20
218.734595
11
249.361116
21
218.608043
0
LINE
8
Layer 1
10
249.361116
20
218.608043
11
248.905648
21
218.790557
0
LINE
8
Layer 1
10
248.905648
20
218.790557
11
248.905648
21
218.790557
0
LINE
8
Layer 1
10
275.728427
20
219.433792
11
275.045723
21
219.829606
0
LINE
8
Layer 1
10
275.045723
20
219.829606
11
274.670435
21
220.207015
0
LINE
8
Layer 1
10
274.670435
20
220.207015
11
274.480642
21
220.768630
0
LINE
8
Layer 1
10
274.480642
20
220.768630
11
274.354421
21
221.717064
0
LINE
8
Layer 1
10
274.354421
20
221.717064
11
274.129072
21
227.306258
0
LINE
8
Layer 1
10
274.129072
20
227.306258
11
274.133018
21
235.977674
0
LINE
8
Layer 1
10
274.133018
20
235.977674
11
274.334567
21
245.002346
0
LINE
8
Layer 1
10
274.334567
20
245.002346
11
274.702030
21
251.651308
0
LINE
8
Layer 1
10
274.702030
20
251.651308
11
275.261233
21
255.732234
0
LINE
8
Layer 1
10
275.261233
20
255.732234
11
275.965017
21
258.589169
0
LINE
8
Layer 1
10
275.965017
20
258.589169
11
276.234151
21
259.297000
0
LINE
8
Layer 1
10
276.234151
20
259.297000
11
278.164098
21
258.770135
0
LINE
8
Layer 1
10
278.164098
20
258.770135
11
283.814405
21
256.995627
0
LINE
8
Layer 1
10
283.814405
20
256.995627
11
289.461224
21
254.842920
0
LINE
8
Layer 1
10
289.461224
20
254.842920
11
294.206998
21
252.684358
0
LINE
8
Layer 1
10
294.206998
20
252.684358
11
295.961508
21
251.719237
0
LINE
8
Layer 1
10
295.961508
20
251.719237
11
297.154173
21
250.892280
0
LINE
8
Layer 1
10
297.154173
20
250.892280
11
298.074763
21
250.110665
0
LINE
8
Layer 1
10
298.074763
20
250.110665
11
297.615897
21
248.830469
0
LINE
8
Layer 1
10
297.615897
20
248.830469
11
297.181512
21
247.043612
0
LINE
8
Layer 1
10
297.181512
20
247.043612
11
297.248268
21
245.335446
0
LINE
8
Layer 1
10
297.248268
20
245.335446
11
297.847744
21
243.539906
0
LINE
8
Layer 1
10
297.847744
20
243.539906
11
299.011519
21
241.490929
0
LINE
8
Layer 1
10
299.011519
20
241.490929
11
300.424683
21
239.264319
0
LINE
8
Layer 1
10
300.424683
20
239.264319
11
301.174468
21
237.767692
0
LINE
8
Layer 1
10
301.174468
20
237.767692
11
301.468359
21
236.439450
0
LINE
8
Layer 1
10
301.468359
20
236.439450
11
301.513839
21
234.717996
0
LINE
8
Layer 1
10
301.513839
20
234.717996
11
301.330367
21
232.085810
0
LINE
8
Layer 1
10
301.330367
20
232.085810
11
300.622882
21
229.092183
0
LINE
8
Layer 1
10
300.622882
20
229.092183
11
299.682845
21
226.252968
0
LINE
8
Layer 1
10
299.682845
20
226.252968
11
299.186789
21
225.529778
0
LINE
8
Layer 1
10
299.186789
20
225.529778
11
298.434993
21
224.803605
0
LINE
8
Layer 1
10
298.434993
20
224.803605
11
296.503485
21
223.440590
0
LINE
8
Layer 1
10
296.503485
20
223.440590
11
293.785535
21
221.977255
0
LINE
8
Layer 1
10
293.785535
20
221.977255
11
290.791450
21
220.661849
0
LINE
8
Layer 1
10
290.791450
20
220.661849
11
288.031536
21
219.742619
0
LINE
8
Layer 1
10
288.031536
20
219.742619
11
285.067314
21
219.169739
0
LINE
8
Layer 1
10
285.067314
20
219.169739
11
281.152378
21
218.925915
0
LINE
8
Layer 1
10
281.152378
20
218.925915
11
277.334323
21
218.898083
0
LINE
8
Layer 1
10
277.334323
20
218.898083
11
276.485740
21
219.073875
0
LINE
8
Layer 1
10
276.485740
20
219.073875
11
275.728427
21
219.433792
0
LINE
8
Layer 1
10
275.728427
20
219.433792
11
275.728427
21
219.433792
0
LINE
8
Layer 1
10
246.372580
20
220.973409
11
245.054401
21
221.989741
0
LINE
8
Layer 1
10
245.054401
20
221.989741
11
243.686826
21
222.767594
0
LINE
8
Layer 1
10
243.686826
20
222.767594
11
242.139639
21
223.368566
0
LINE
8
Layer 1
10
242.139639
20
223.368566
11
240.282620
21
223.854257
0
LINE
8
Layer 1
10
240.282620
20
223.854257
11
237.127908
21
224.629227
0
LINE
8
Layer 1
10
237.127908
20
224.629227
11
234.286072
21
225.508735
0
LINE
8
Layer 1
10
234.286072
20
225.508735
11
231.757392
21
226.492628
0
LINE
8
Layer 1
10
231.757392
20
226.492628
11
229.542144
21
227.580752
0
LINE
8
Layer 1
10
229.542144
20
227.580752
11
227.640607
21
228.772953
0
LINE
8
Layer 1
10
227.640607
20
228.772953
11
226.053059
21
230.069076
0
LINE
8
Layer 1
10
226.053059
20
230.069076
11
224.779776
21
231.468970
0
LINE
8
Layer 1
10
224.779776
20
231.468970
11
223.821039
21
232.972478
0
LINE
8
Layer 1
10
223.821039
20
232.972478
11
222.901891
21
235.158959
0
LINE
8
Layer 1
10
222.901891
20
235.158959
11
222.361644
21
237.497500
0
LINE
8
Layer 1
10
222.361644
20
237.497500
11
222.175376
21
240.159646
0
LINE
8
Layer 1
10
222.175376
20
240.159646
11
222.318165
21
243.316943
0
LINE
8
Layer 1
10
222.318165
20
243.316943
11
222.616733
21
245.718547
0
LINE
8
Layer 1
10
222.616733
20
245.718547
11
223.178561
21
247.461815
0
LINE
8
Layer 1
10
223.178561
20
247.461815
11
224.254578
21
249.058441
0
LINE
8
Layer 1
10
224.254578
20
249.058441
11
226.095712
21
251.020118
0
LINE
8
Layer 1
10
226.095712
20
251.020118
11
229.203397
21
253.703648
0
LINE
8
Layer 1
10
229.203397
20
253.703648
11
232.924033
21
256.145185
0
LINE
8
Layer 1
10
232.924033
20
256.145185
11
237.217533
21
258.321631
0
LINE
8
Layer 1
10
237.217533
20
258.321631
11
242.043809
21
260.209886
0
LINE
8
Layer 1
10
242.043809
20
260.209886
11
247.104273
21
261.745160
0
LINE
8
Layer 1
10
247.104273
20
261.745160
11
248.877453
21
262.152145
0
LINE
8
Layer 1
10
248.877453
20
262.152145
11
249.664197
21
262.193308
0
LINE
8
Layer 1
10
249.664197
20
262.193308
11
249.292825
21
260.580887
0
LINE
8
Layer 1
10
249.292825
20
260.580887
11
248.332815
21
256.773728
0
LINE
8
Layer 1
10
248.332815
20
256.773728
11
247.703988
21
252.048182
0
LINE
8
Layer 1
10
247.703988
20
252.048182
11
247.433212
21
246.032178
0
LINE
8
Layer 1
10
247.433212
20
246.032178
11
247.270929
21
237.266365
0
LINE
8
Layer 1
10
247.270929
20
237.266365
11
247.248784
21
228.721092
0
LINE
8
Layer 1
10
247.248784
20
228.721092
11
247.398424
21
223.366708
0
LINE
8
Layer 1
10
247.398424
20
223.366708
11
247.620190
21
220.020069
0
LINE
8
Layer 1
10
247.620190
20
220.020069
11
246.372580
21
220.973409
0
LINE
8
Layer 1
10
246.372580
20
220.973409
11
246.372580
21
220.973409
0
LINE
8
Layer 1
10
252.031680
20
223.274781
11
251.830561
21
229.905290
0
LINE
8
Layer 1
10
251.830561
20
229.905290
11
251.878880
21
239.069829
0
LINE
8
Layer 1
10
251.878880
20
239.069829
11
252.130691
21
247.998490
0
LINE
8
Layer 1
10
252.130691
20
247.998490
11
252.540050
21
253.921364
0
LINE
8
Layer 1
10
252.540050
20
253.921364
11
253.307874
21
258.187148
0
LINE
8
Layer 1
10
253.307874
20
258.187148
11
253.772916
21
259.845447
0
LINE
8
Layer 1
10
253.772916
20
259.845447
11
254.294605
21
261.192903
0
LINE
8
Layer 1
10
254.294605
20
261.192903
11
254.874863
21
262.233678
0
LINE
8
Layer 1
10
254.874863
20
262.233678
11
255.515611
21
262.971934
0
LINE
8
Layer 1
10
255.515611
20
262.971934
11
256.218770
21
263.411835
0
LINE
8
Layer 1
10
256.218770
20
263.411835
11
256.986261
21
263.557543
0
LINE
8
Layer 1
10
256.986261
20
263.557543
11
257.588008
21
263.480345
0
LINE
8
Layer 1
10
257.588008
20
263.480345
11
257.842409
21
263.202105
0
LINE
8
Layer 1
10
257.842409
20
263.202105
11
257.764382
21
262.652858
0
LINE
8
Layer 1
10
257.764382
20
262.652858
11
257.368848
21
261.762636
0
LINE
8
Layer 1
10
257.368848
20
261.762636
11
256.312587
21
258.887304
0
LINE
8
Layer 1
10
256.312587
20
258.887304
11
255.455754
21
254.826304
0
LINE
8
Layer 1
10
255.455754
20
254.826304
11
255.105988
21
250.073220
0
LINE
8
Layer 1
10
255.105988
20
250.073220
11
254.807275
21
241.929434
0
LINE
8
Layer 1
10
254.807275
20
241.929434
11
254.634946
21
233.108064
0
LINE
8
Layer 1
10
254.634946
20
233.108064
11
254.664334
21
226.322229
0
LINE
8
Layer 1
10
254.664334
20
226.322229
11
254.818427
21
221.498336
0
LINE
8
Layer 1
10
254.818427
20
221.498336
11
254.041770
21
221.096715
0
LINE
8
Layer 1
10
254.041770
20
221.096715
11
253.068077
21
220.678082
0
LINE
8
Layer 1
10
253.068077
20
220.678082
11
252.744399
21
220.660386
0
LINE
8
Layer 1
10
252.744399
20
220.660386
11
252.505300
21
220.796658
0
LINE
8
Layer 1
10
252.505300
20
220.796658
11
252.208236
21
221.609780
0
LINE
8
Layer 1
10
252.208236
20
221.609780
11
252.031680
21
223.274781
0
LINE
8
Layer 1
10
252.031680
20
223.274781
11
252.031680
21
223.274781
0
LINE
8
Layer 1
10
271.575585
20
221.208861
11
270.896532
21
221.812648
0
LINE
8
Layer 1
10
270.896532
20
221.812648
11
270.580700
21
222.600703
0
LINE
8
Layer 1
10
270.580700
20
222.600703
11
270.388460
21
227.427443
0
LINE
8
Layer 1
10
270.388460
20
227.427443
11
270.422691
21
236.043359
0
LINE
8
Layer 1
10
270.422691
20
236.043359
11
270.638750
21
245.266744
0
LINE
8
Layer 1
10
270.638750
20
245.266744
11
270.991994
21
251.915891
0
LINE
8
Layer 1
10
270.991994
20
251.915891
11
271.715546
21
256.590256
0
LINE
8
Layer 1
10
271.715546
20
256.590256
11
272.201307
21
258.542190
0
LINE
8
Layer 1
10
272.201307
20
258.542190
11
272.689109
21
259.859938
0
LINE
8
Layer 1
10
272.689109
20
259.859938
11
273.129442
21
260.392805
0
LINE
8
Layer 1
10
273.129442
20
260.392805
11
273.704899
21
260.643335
0
LINE
8
Layer 1
10
273.704899
20
260.643335
11
274.335804
21
260.597976
0
LINE
8
Layer 1
10
274.335804
20
260.597976
11
274.942483
21
260.243178
0
LINE
8
Layer 1
10
274.942483
20
260.243178
11
275.176881
21
259.977434
0
LINE
8
Layer 1
10
275.176881
20
259.977434
11
275.250328
21
259.638594
0
LINE
8
Layer 1
10
275.250328
20
259.638594
11
274.902081
21
258.083744
0
LINE
8
Layer 1
10
274.902081
20
258.083744
11
274.273455
21
255.320693
0
LINE
8
Layer 1
10
274.273455
20
255.320693
11
273.841877
21
251.972593
0
LINE
8
Layer 1
10
273.841877
20
251.972593
11
273.545187
21
247.359985
0
LINE
8
Layer 1
10
273.545187
20
247.359985
11
273.321224
21
240.803405
0
LINE
8
Layer 1
10
273.321224
20
240.803405
11
273.131227
21
225.728026
0
LINE
8
Layer 1
10
273.131227
20
225.728026
11
273.155137
21
222.591087
0
LINE
8
Layer 1
10
273.155137
20
222.591087
11
272.995658
21
221.059005
0
LINE
8
Layer 1
10
272.995658
20
221.059005
11
272.804105
21
220.769742
0
LINE
8
Layer 1
10
272.804105
20
220.769742
11
272.515053
21
220.731642
0
LINE
8
Layer 1
10
272.515053
20
220.731642
11
271.575585
21
221.208861
0
LINE
8
Layer 1
10
271.575585
20
221.208861
11
271.575585
21
221.208861
0
LINE
8
Layer 1
10
255.899434
20
222.519600
11
255.682258
21
224.521511
0
LINE
8
Layer 1
10
255.682258
20
224.521511
11
255.566568
21
229.040605
0
LINE
8
Layer 1
10
255.566568
20
229.040605
11
255.673083
21
242.655486
0
LINE
8
Layer 1
10
255.673083
20
242.655486
11
255.938387
21
249.611047
0
LINE
8
Layer 1
10
255.938387
20
249.611047
11
256.405009
21
254.767331
0
LINE
8
Layer 1
10
256.405009
20
254.767331
11
257.129971
21
258.552181
0
LINE
8
Layer 1
10
257.129971
20
258.552181
11
258.170297
21
261.393442
0
LINE
8
Layer 1
10
258.170297
20
261.393442
11
258.735691
21
262.354657
0
LINE
8
Layer 1
10
258.735691
20
262.354657
11
259.340180
21
262.963550
0
LINE
8
Layer 1
10
259.340180
20
262.963550
11
260.007142
21
263.236330
0
LINE
8
Layer 1
10
260.007142
20
263.236330
11
260.759956
21
263.189207
0
LINE
8
Layer 1
10
260.759956
20
263.189207
11
261.184608
21
262.954317
0
LINE
8
Layer 1
10
261.184608
20
262.954317
11
261.426596
21
262.578180
0
LINE
8
Layer 1
10
261.426596
20
262.578180
11
261.447500
21
262.174722
0
LINE
8
Layer 1
10
261.447500
20
262.174722
11
261.208900
21
261.857873
0
LINE
8
Layer 1
10
261.208900
20
261.857873
11
260.779775
21
261.018849
0
LINE
8
Layer 1
10
260.779775
20
261.018849
11
260.201659
21
259.223171
0
LINE
8
Layer 1
10
260.201659
20
259.223171
11
259.190925
21
254.826304
0
LINE
8
Layer 1
10
259.190925
20
254.826304
11
258.833777
21
250.033576
0
LINE
8
Layer 1
10
258.833777
20
250.033576
11
258.518193
21
241.915435
0
LINE
8
Layer 1
10
258.518193
20
241.915435
11
258.327065
21
233.222049
0
LINE
8
Layer 1
10
258.327065
20
233.222049
11
258.343281
21
226.703583
0
LINE
8
Layer 1
10
258.343281
20
226.703583
11
258.371853
21
223.471719
0
LINE
8
Layer 1
10
258.371853
20
223.471719
11
258.273373
21
222.758943
0
LINE
8
Layer 1
10
258.273373
20
222.758943
11
258.085048
21
222.404110
0
LINE
8
Layer 1
10
258.085048
20
222.404110
11
257.553091
21
222.100792
0
LINE
8
Layer 1
10
257.553091
20
222.100792
11
256.904075
21
222.024611
0
LINE
8
Layer 1
10
256.904075
20
222.024611
11
256.299142
21
222.167052
0
LINE
8
Layer 1
10
256.299142
20
222.167052
11
255.899434
21
222.519600
0
LINE
8
Layer 1
10
255.899434
20
222.519600
11
255.899434
21
222.519600
0
LINE
8
Layer 1
10
267.315904
20
222.493033
11
267.045625
21
222.901772
0
LINE
8
Layer 1
10
267.045625
20
222.901772
11
266.867294
21
223.646602
0
LINE
8
Layer 1
10
266.867294
20
223.646602
11
266.632698
21
227.204981
0
LINE
8
Layer 1
10
266.632698
20
227.204981
11
266.585225
21
231.379955
0
LINE
8
Layer 1
10
266.585225
20
231.379955
11
266.719561
21
235.511745
0
LINE
8
Layer 1
10
266.719561
20
235.511745
11
266.990282
21
244.716431
0
LINE
8
Layer 1
10
266.990282
20
244.716431
11
267.054404
21
248.607723
0
LINE
8
Layer 1
10
267.054404
20
248.607723
11
267.246914
21
251.853865
0
LINE
8
Layer 1
10
267.246914
20
251.853865
11
267.585296
21
254.654070
0
LINE
8
Layer 1
10
267.585296
20
254.654070
11
268.087031
21
257.207551
0
LINE
8
Layer 1
10
268.087031
20
257.207551
11
268.622547
21
259.235134
0
LINE
8
Layer 1
10
268.622547
20
259.235134
11
269.127484
21
260.495514
0
LINE
8
Layer 1
10
269.127484
20
260.495514
11
269.696903
21
261.158915
0
LINE
8
Layer 1
10
269.696903
20
261.158915
11
270.425866
21
261.395559
0
LINE
8
Layer 1
10
270.425866
20
261.395559
11
271.208543
21
261.353893
0
LINE
8
Layer 1
10
271.208543
20
261.353893
11
271.677082
21
261.059574
0
LINE
8
Layer 1
10
271.677082
20
261.059574
11
271.821518
21
260.526059
0
LINE
8
Layer 1
10
271.821518
20
260.526059
11
271.631888
21
259.766805
0
LINE
8
Layer 1
10
271.631888
20
259.766805
11
271.133759
21
258.143732
0
LINE
8
Layer 1
10
271.133759
20
258.143732
11
270.643717
21
255.815715
0
LINE
8
Layer 1
10
270.643717
20
255.815715
11
269.920618
21
250.328393
0
LINE
8
Layer 1
10
269.920618
20
250.328393
11
269.683820
21
244.191721
0
LINE
8
Layer 1
10
269.683820
20
244.191721
11
269.518955
21
234.453413
0
LINE
8
Layer 1
10
269.518955
20
234.453413
11
269.405316
21
222.150303
0
LINE
8
Layer 1
10
269.405316
20
222.150303
11
268.613710
21
222.068558
0
LINE
8
Layer 1
10
268.613710
20
222.068558
11
267.895662
21
222.138320
0
LINE
8
Layer 1
10
267.895662
20
222.138320
11
267.315904
21
222.493033
0
LINE
8
Layer 1
10
267.315904
20
222.493033
11
267.315904
21
222.493033
0
LINE
8
Layer 1
10
316.436744
20
222.784067
11
315.269522
21
223.391373
0
LINE
8
Layer 1
10
315.269522
20
223.391373
11
314.187788
21
223.746763
0
LINE
8
Layer 1
10
314.187788
20
223.746763
11
312.543236
21
224.262184
0
LINE
8
Layer 1
10
312.543236
20
224.262184
11
310.022881
21
225.254248
0
LINE
8
Layer 1
10
310.022881
20
225.254248
11
305.372253
21
227.026168
0
LINE
8
Layer 1
10
305.372253
20
227.026168
11
303.779653
21
227.439152
0
LINE
8
Layer 1
10
303.779653
20
227.439152
11
302.561535
21
227.572233
0
LINE
8
Layer 1
10
302.561535
20
227.572233
11
301.341940
21
227.713470
0
LINE
8
Layer 1
10
301.341940
20
227.713470
11
301.840361
21
230.293154
0
LINE
8
Layer 1
10
301.840361
20
230.293154
11
302.317652
21
232.665866
0
LINE
8
Layer 1
10
302.317652
20
232.665866
11
302.487584
21
234.908696
0
LINE
8
Layer 1
10
302.487584
20
234.908696
11
302.386172
21
236.599383
0
LINE
8
Layer 1
10
302.386172
20
236.599383
11
302.005834
21
238.117923
0
LINE
8
Layer 1
10
302.005834
20
238.117923
11
301.256825
21
239.711571
0
LINE
8
Layer 1
10
301.256825
20
239.711571
11
300.049399
21
241.627578
0
LINE
8
Layer 1
10
300.049399
20
241.627578
11
298.557663
21
244.309699
0
LINE
8
Layer 1
10
298.557663
20
244.309699
11
298.114498
21
245.496563
0
LINE
8
Layer 1
10
298.114498
20
245.496563
11
297.953399
21
246.397935
0
LINE
8
Layer 1
10
297.953399
20
246.397935
11
298.258330
21
247.977507
0
LINE
8
Layer 1
10
298.258330
20
247.977507
11
298.619192
21
248.792752
0
LINE
8
Layer 1
10
298.619192
20
248.792752
11
298.852173
21
248.886295
0
LINE
8
Layer 1
10
298.852173
20
248.886295
11
299.192838
21
248.837287
0
LINE
8
Layer 1
10
299.192838
20
248.837287
11
300.027815
21
248.689373
0
LINE
8
Layer 1
10
300.027815
20
248.689373
11
300.326369
21
248.762746
0
LINE
8
Layer 1
10
300.326369
20
248.762746
11
300.588430
21
248.986924
0
LINE
8
Layer 1
10
300.588430
20
248.986924
11
301.131459
21
250.045454
0
LINE
8
Layer 1
10
301.131459
20
250.045454
11
301.913677
21
252.180474
0
LINE
8
Layer 1
10
301.913677
20
252.180474
11
303.635438
21
256.720695
0
LINE
8
Layer 1
10
303.635438
20
256.720695
11
304.324417
21
258.211895
0
LINE
8
Layer 1
10
304.324417
20
258.211895
11
304.940106
21
259.240727
0
LINE
8
Layer 1
10
304.940106
20
259.240727
11
305.513487
21
259.849870
0
LINE
8
Layer 1
10
305.513487
20
259.849870
11
306.075542
21
260.082003
0
LINE
8
Layer 1
10
306.075542
20
260.082003
11
306.657255
21
259.979804
0
LINE
8
Layer 1
10
306.657255
20
259.979804
11
307.289607
21
259.585954
0
LINE
8
Layer 1
10
307.289607
20
259.585954
11
307.995101
21
258.787004
0
LINE
8
Layer 1
10
307.995101
20
258.787004
11
308.479698
21
257.699218
0
LINE
8
Layer 1
10
308.479698
20
257.699218
11
308.728189
21
256.372671
0
LINE
8
Layer 1
10
308.728189
20
256.372671
11
308.725366
21
254.857437
0
LINE
8
Layer 1
10
308.725366
20
254.857437
11
308.479825
21
253.292123
0
LINE
8
Layer 1
10
308.479825
20
253.292123
11
307.991542
21
251.881333
0
LINE
8
Layer 1
10
307.991542
20
251.881333
11
307.210837
21
250.516393
0
LINE
8
Layer 1
10
307.210837
20
250.516393
11
306.088029
21
249.088625
0
LINE
8
Layer 1
10
306.088029
20
249.088625
11
303.947887
21
246.300805
0
LINE
8
Layer 1
10
303.947887
20
246.300805
11
303.513466
21
245.393638
0
LINE
8
Layer 1
10
303.513466
20
245.393638
11
303.538375
21
244.869812
0
LINE
8
Layer 1
10
303.538375
20
244.869812
11
303.910898
21
244.702548
0
LINE
8
Layer 1
10
303.910898
20
244.702548
11
304.551490
21
245.066398
0
LINE
8
Layer 1
10
304.551490
20
245.066398
11
305.387754
21
245.490148
0
LINE
8
Layer 1
10
305.387754
20
245.490148
11
306.374652
21
245.752115
0
LINE
8
Layer 1
10
306.374652
20
245.752115
11
307.009562
21
245.793201
0
LINE
8
Layer 1
10
307.009562
20
245.793201
11
307.579940
21
245.681478
0
LINE
8
Layer 1
10
307.579940
20
245.681478
11
309.221830
21
244.756738
0
LINE
8
Layer 1
10
309.221830
20
244.756738
11
311.710109
21
242.857426
0
LINE
8
Layer 1
10
311.710109
20
242.857426
11
313.792855
21
240.678716
0
LINE
8
Layer 1
10
313.792855
20
240.678716
11
315.437446
21
238.260841
0
LINE
8
Layer 1
10
315.437446
20
238.260841
11
316.611263
21
235.644036
0
LINE
8
Layer 1
10
316.611263
20
235.644036
11
317.235204
21
234.067700
0
LINE
8
Layer 1
10
317.235204
20
234.067700
11
318.025703
21
232.591667
0
LINE
8
Layer 1
10
318.025703
20
232.591667
11
319.102062
21
231.021247
0
LINE
8
Layer 1
10
319.102062
20
231.021247
11
320.583579
21
229.161753
0
LINE
8
Layer 1
10
320.583579
20
229.161753
11
321.757318
21
227.617139
0
LINE
8
Layer 1
10
321.757318
20
227.617139
11
322.722647
21
226.089362
0
LINE
8
Layer 1
10
322.722647
20
226.089362
11
323.377035
21
224.759322
0
LINE
8
Layer 1
10
323.377035
20
224.759322
11
323.617950
21
223.807918
0
LINE
8
Layer 1
10
323.617950
20
223.807918
11
323.464811
21
223.103919
0
LINE
8
Layer 1
10
323.464811
20
223.103919
11
322.922950
21
222.634927
0
LINE
8
Layer 1
10
322.922950
20
222.634927
11
321.868693
21
222.341898
0
LINE
8
Layer 1
10
321.868693
20
222.341898
11
320.178371
21
222.165787
0
LINE
8
Layer 1
10
320.178371
20
222.165787
11
317.834542
21
222.123471
0
LINE
8
Layer 1
10
317.834542
20
222.123471
11
317.182911
21
222.338554
0
LINE
8
Layer 1
10
317.182911
20
222.338554
11
316.436744
21
222.784067
0
LINE
8
Layer 1
10
316.436744
20
222.784067
11
316.436744
21
222.784067
0
LINE
8
Layer 1
10
318.441939
20
223.365599
11
317.599072
21
224.062597
0
LINE
8
Layer 1
10
317.599072
20
224.062597
11
316.497833
21
224.765845
0
LINE
8
Layer 1
10
316.497833
20
224.765845
11
315.499756
21
225.267789
0
LINE
8
Layer 1
10
315.499756
20
225.267789
11
314.966377
21
225.360875
0
LINE
8
Layer 1
10
314.966377
20
225.360875
11
315.249844
21
225.075609
0
LINE
8
Layer 1
10
315.249844
20
225.075609
11
316.117154
21
224.575529
0
LINE
8
Layer 1
10
316.117154
20
224.575529
11
317.211754
21
223.912311
0
LINE
8
Layer 1
10
317.211754
20
223.912311
11
318.041678
21
223.234824
0
LINE
8
Layer 1
10
318.041678
20
223.234824
11
318.951076
21
222.547178
0
LINE
8
Layer 1
10
318.951076
20
222.547178
11
318.912050
21
222.787589
0
LINE
8
Layer 1
10
318.912050
20
222.787589
11
318.441939
21
223.365599
0
LINE
8
Layer 1
10
318.441939
20
223.365599
11
318.441939
21
223.365599
0
LINE
8
Layer 1
10
320.329183
20
227.808844
11
319.189095
21
228.224907
0
LINE
8
Layer 1
10
319.189095
20
228.224907
11
318.035361
21
228.648292
0
LINE
8
Layer 1
10
318.035361
20
228.648292
11
316.595384
21
229.456364
0
LINE
8
Layer 1
10
316.595384
20
229.456364
11
315.181080
21
230.452011
0
LINE
8
Layer 1
10
315.181080
20
230.452011
11
314.104365
21
231.438124
0
LINE
8
Layer 1
10
314.104365
20
231.438124
11
313.647686
21
232.033000
0
LINE
8
Layer 1
10
313.647686
20
232.033000
11
313.301442
21
232.718047
0
LINE
8
Layer 1
10
313.301442
20
232.718047
11
312.649132
21
235.089018
0
LINE
8
Layer 1
10
312.649132
20
235.089018
11
312.258510
21
235.942674
0
LINE
8
Layer 1
10
312.258510
20
235.942674
11
311.492240
21
236.715042
0
LINE
8
Layer 1
10
311.492240
20
236.715042
11
310.350957
21
237.405633
0
LINE
8
Layer 1
10
310.350957
20
237.405633
11
308.835300
21
238.013956
0
LINE
8
Layer 1
10
308.835300
20
238.013956
11
307.339811
21
238.582560
0
LINE
8
Layer 1
10
307.339811
20
238.582560
11
306.354699
21
239.151992
0
LINE
8
Layer 1
10
306.354699
20
239.151992
11
305.780507
21
239.799898
0
LINE
8
Layer 1
10
305.780507
20
239.799898
11
305.517774
21
240.603922
0
LINE
8
Layer 1
10
305.517774
20
240.603922
11
304.955832
21
243.933991
0
LINE
8
Layer 1
10
304.955832
20
243.933991
11
304.914991
21
243.914990
0
LINE
8
Layer 1
10
304.914991
20
243.914990
11
304.900912
21
243.587985
0
LINE
8
Layer 1
10
304.900912
20
243.587985
11
304.926854
21
242.075162
0
LINE
8
Layer 1
10
304.926854
20
242.075162
11
305.074799
21
239.889309
0
LINE
8
Layer 1
10
305.074799
20
239.889309
11
305.241852
21
239.329603
0
LINE
8
Layer 1
10
305.241852
20
239.329603
11
305.505576
21
238.937716
0
LINE
8
Layer 1
10
305.505576
20
238.937716
11
307.085692
21
237.845430
0
LINE
8
Layer 1
10
307.085692
20
237.845430
11
309.370975
21
236.858715
0
LINE
8
Layer 1
10
309.370975
20
236.858715
11
310.371665
21
236.413803
0
LINE
8
Layer 1
10
310.371665
20
236.413803
11
311.111670
21
235.787454
0
LINE
8
Layer 1
10
311.111670
20
235.787454
11
311.632486
21
234.930864
0
LINE
8
Layer 1
10
311.632486
20
234.930864
11
311.975610
21
233.795228
0
LINE
8
Layer 1
10
311.975610
20
233.795228
11
312.443564
21
232.364113
0
LINE
8
Layer 1
10
312.443564
20
232.364113
11
313.301170
21
231.178375
0
LINE
8
Layer 1
10
313.301170
20
231.178375
11
314.311192
21
230.256909
0
LINE
8
Layer 1
10
314.311192
20
230.256909
11
315.589317
21
229.336902
0
LINE
8
Layer 1
10
315.589317
20
229.336902
11
316.962048
21
228.531295
0
LINE
8
Layer 1
10
316.962048
20
228.531295
11
318.255884
21
227.953029
0
LINE
8
Layer 1
10
318.255884
20
227.953029
11
319.802229
21
227.598472
0
LINE
8
Layer 1
10
319.802229
20
227.598472
11
320.256187
21
227.628657
0
LINE
8
Layer 1
10
320.256187
20
227.628657
11
320.329183
21
227.808844
0
LINE
8
Layer 1
10
320.329183
20
227.808844
11
320.329183
21
227.808844
0
LINE
8
Layer 1
10
310.640101
20
233.775956
11
310.848131
21
234.267030
0
LINE
8
Layer 1
10
310.848131
20
234.267030
11
310.857680
21
234.880227
0
LINE
8
Layer 1
10
310.857680
20
234.880227
11
310.689310
21
235.460986
0
LINE
8
Layer 1
10
310.689310
20
235.460986
11
310.363585
21
235.854747
0
LINE
8
Layer 1
10
310.363585
20
235.854747
11
309.844483
21
235.985046
0
LINE
8
Layer 1
10
309.844483
20
235.985046
11
309.172961
21
235.905246
0
LINE
8
Layer 1
10
309.172961
20
235.905246
11
308.704659
21
235.719034
0
LINE
8
Layer 1
10
308.704659
20
235.719034
11
308.839031
21
235.587773
0
LINE
8
Layer 1
10
308.839031
20
235.587773
11
309.129656
21
235.376679
0
LINE
8
Layer 1
10
309.129656
20
235.376679
11
309.134808
21
234.953019
0
LINE
8
Layer 1
10
309.134808
20
234.953019
11
309.156389
21
234.509619
0
LINE
8
Layer 1
10
309.156389
20
234.509619
11
309.560099
21
234.274631
0
LINE
8
Layer 1
10
309.560099
20
234.274631
11
310.101916
21
233.937438
0
LINE
8
Layer 1
10
310.101916
20
233.937438
11
310.058699
21
233.743376
0
LINE
8
Layer 1
10
310.058699
20
233.743376
11
309.793488
21
233.570309
0
LINE
8
Layer 1
10
309.793488
20
233.570309
11
309.661630
21
233.466262
0
LINE
8
Layer 1
10
309.661630
20
233.466262
11
309.893368
21
233.415969
0
LINE
8
Layer 1
10
309.893368
20
233.415969
11
310.290358
21
233.513101
0
LINE
8
Layer 1
10
310.290358
20
233.513101
11
310.640101
21
233.775956
0
LINE
8
Layer 1
10
310.640101
20
233.775956
11
310.640101
21
233.775956
0
LINE
8
Layer 1
10
309.457547
20
234.726399
11
309.406886
21
235.021159
0
LINE
8
Layer 1
10
309.406886
20
235.021159
11
309.547399
21
235.305346
0
LINE
8
Layer 1
10
309.547399
20
235.305346
11
309.880235
21
235.455663
0
LINE
8
Layer 1
10
309.880235
20
235.455663
11
310.254940
21
235.407089
0
LINE
8
Layer 1
10
310.254940
20
235.407089
11
310.535855
21
235.210381
0
LINE
8
Layer 1
10
310.535855
20
235.210381
11
310.587316
21
234.916293
0
LINE
8
Layer 1
10
310.587316
20
234.916293
11
310.381538
21
234.646836
0
LINE
8
Layer 1
10
310.381538
20
234.646836
11
310.054876
21
234.513640
0
LINE
8
Layer 1
10
310.054876
20
234.513640
11
309.711992
21
234.534297
0
LINE
8
Layer 1
10
309.711992
20
234.534297
11
309.457547
21
234.726399
0
LINE
8
Layer 1
10
309.457547
20
234.726399
11
309.457547
21
234.726399
0
LINE
8
Layer 1
10
304.567841
20
248.954948
11
304.412339
21
250.053521
0
LINE
8
Layer 1
10
304.412339
20
250.053521
11
304.038675
21
251.323418
0
LINE
8
Layer 1
10
304.038675
20
251.323418
11
303.657286
21
252.713649
0
LINE
8
Layer 1
10
303.657286
20
252.713649
11
303.483263
21
254.101539
0
LINE
8
Layer 1
10
303.483263
20
254.101539
11
303.418860
21
255.068501
0
LINE
8
Layer 1
10
303.418860
20
255.068501
11
303.349693
21
255.086249
0
LINE
8
Layer 1
10
303.349693
20
255.086249
11
303.245059
21
254.826304
0
LINE
8
Layer 1
10
303.245059
20
254.826304
11
303.032983
21
253.768442
0
LINE
8
Layer 1
10
303.032983
20
253.768442
11
303.035089
21
252.632066
0
LINE
8
Layer 1
10
303.035089
20
252.632066
11
303.246610
21
251.468436
0
LINE
8
Layer 1
10
303.246610
20
251.468436
11
303.662782
21
250.328811
0
LINE
8
Layer 1
10
303.662782
20
250.328811
11
304.108022
21
249.128723
0
LINE
8
Layer 1
10
304.108022
20
249.128723
11
304.227588
21
248.286299
0
LINE
8
Layer 1
10
304.227588
20
248.286299
11
304.214702
21
247.912315
0
LINE
8
Layer 1
10
304.214702
20
247.912315
11
304.341596
21
247.838476
0
LINE
8
Layer 1
10
304.341596
20
247.838476
11
304.501431
21
248.224148
0
LINE
8
Layer 1
10
304.501431
20
248.224148
11
304.567841
21
248.954948
0
LINE
8
Layer 1
10
304.567841
20
248.954948
11
304.567841
21
248.954948
0
LINE
8
Layer 1
10
260.059181
20
222.658506
11
259.722505
21
222.909665
0
LINE
8
Layer 1
10
259.722505
20
222.909665
11
259.513932
21
223.429783
0
LINE
8
Layer 1
10
259.513932
20
223.429783
11
259.235164
21
226.390722
0
LINE
8
Layer 1
10
259.235164
20
226.390722
11
259.153890
21
230.561345
0
LINE
8
Layer 1
10
259.153890
20
230.561345
11
259.321894
21
236.045165
0
LINE
8
Layer 1
10
259.321894
20
236.045165
11
259.463578
21
242.930117
0
LINE
8
Layer 1
10
259.463578
20
242.930117
11
259.418476
21
244.979462
0
LINE
8
Layer 1
10
259.418476
20
244.979462
11
259.595496
21
248.717549
0
LINE
8
Layer 1
10
259.595496
20
248.717549
11
259.906754
21
252.746383
0
LINE
8
Layer 1
10
259.906754
20
252.746383
11
260.264365
21
255.667966
0
LINE
8
Layer 1
10
260.264365
20
255.667966
11
261.162949
21
259.337006
0
LINE
8
Layer 1
10
261.162949
20
259.337006
11
261.691246
21
260.806504
0
LINE
8
Layer 1
10
261.691246
20
260.806504
11
262.231593
21
261.903900
0
LINE
8
Layer 1
10
262.231593
20
261.903900
11
262.825998
21
262.593237
0
LINE
8
Layer 1
10
262.825998
20
262.593237
11
263.633089
21
262.763794
0
LINE
8
Layer 1
10
263.633089
20
262.763794
11
264.448984
21
262.680379
0
LINE
8
Layer 1
10
264.448984
20
262.680379
11
264.825840
21
262.359224
0
LINE
8
Layer 1
10
264.825840
20
262.359224
11
264.801681
21
261.693966
0
LINE
8
Layer 1
10
264.801681
20
261.693966
11
264.414535
21
260.578241
0
LINE
8
Layer 1
10
264.414535
20
260.578241
11
263.804274
21
258.738824
0
LINE
8
Layer 1
10
263.804274
20
258.738824
11
263.272118
21
256.466664
0
LINE
8
Layer 1
10
263.272118
20
256.466664
11
262.514591
21
250.989850
0
LINE
8
Layer 1
10
262.514591
20
250.989850
11
262.166396
21
239.101405
0
LINE
8
Layer 1
10
262.166396
20
239.101405
11
261.970105
21
222.836600
0
LINE
8
Layer 1
10
261.970105
20
222.836600
11
261.761877
21
222.603764
0
LINE
8
Layer 1
10
261.761877
20
222.603764
11
261.255586
21
222.485435
0
LINE
8
Layer 1
10
261.255586
20
222.485435
11
260.628823
21
222.498166
0
LINE
8
Layer 1
10
260.628823
20
222.498166
11
260.059181
21
222.658506
0
LINE
8
Layer 1
10
260.059181
20
222.658506
11
260.059181
21
222.658506
0
LINE
8
Layer 1
10
263.497940
20
222.866130
11
263.255335
21
223.216305
0
LINE
8
Layer 1
10
263.255335
20
223.216305
11
263.107131
21
224.033173
0
LINE
8
Layer 1
10
263.107131
20
224.033173
11
262.968774
21
228.368004
0
LINE
8
Layer 1
10
262.968774
20
228.368004
11
263.077643
21
240.796126
0
LINE
8
Layer 1
10
263.077643
20
240.796126
11
263.436583
21
251.254433
0
LINE
8
Layer 1
10
263.436583
20
251.254433
11
263.798482
21
254.323529
0
LINE
8
Layer 1
10
263.798482
20
254.323529
11
264.325707
21
257.103283
0
LINE
8
Layer 1
10
264.325707
20
257.103283
11
264.995296
21
259.494452
0
LINE
8
Layer 1
10
264.995296
20
259.494452
11
265.784286
21
261.397797
0
LINE
8
Layer 1
10
265.784286
20
261.397797
11
266.304298
21
262.073791
0
LINE
8
Layer 1
10
266.304298
20
262.073791
11
267.103867
21
262.234628
0
LINE
8
Layer 1
10
267.103867
20
262.234628
11
267.925531
21
262.136296
0
LINE
8
Layer 1
10
267.925531
20
262.136296
11
268.312486
21
261.770306
0
LINE
8
Layer 1
10
268.312486
20
261.770306
11
268.300865
21
261.030169
0
LINE
8
Layer 1
10
268.300865
20
261.030169
11
267.926800
21
259.809394
0
LINE
8
Layer 1
10
267.926800
20
259.809394
11
266.962190
21
256.367550
0
LINE
8
Layer 1
10
266.962190
20
256.367550
11
266.348496
21
251.785489
0
LINE
8
Layer 1
10
266.348496
20
251.785489
11
265.996025
21
245.008676
0
LINE
8
Layer 1
10
265.996025
20
245.008676
11
265.815084
21
234.982579
0
LINE
8
Layer 1
10
265.815084
20
234.982579
11
265.686867
21
222.679469
0
LINE
8
Layer 1
10
265.686867
20
222.679469
11
264.820675
21
222.601547
0
LINE
8
Layer 1
10
264.820675
20
222.601547
11
264.074811
21
222.647125
0
LINE
8
Layer 1
10
264.074811
20
222.647125
11
263.497940
21
222.866130
0
LINE
8
Layer 1
10
263.497940
20
222.866130
11
263.497940
21
222.866130
0
LINE
8
Layer 1
10
305.401331
20
246.834712
11
306.901940
21
248.596670
0
LINE
8
Layer 1
10
306.901940
20
248.596670
11
308.041890
21
250.055710
0
LINE
8
Layer 1
10
308.041890
20
250.055710
11
308.831844
21
251.478492
0
LINE
8
Layer 1
10
308.831844
20
251.478492
11
309.323463
21
252.983023
0
LINE
8
Layer 1
10
309.323463
20
252.983023
11
309.568407
21
254.687310
0
LINE
8
Layer 1
10
309.568407
20
254.687310
11
309.727342
21
256.797272
0
LINE
8
Layer 1
10
309.727342
20
256.797272
11
310.917966
21
257.252606
0
LINE
8
Layer 1
10
310.917966
20
257.252606
11
312.963430
21
257.722329
0
LINE
8
Layer 1
10
312.963430
20
257.722329
11
313.603492
21
257.599376
0
LINE
8
Layer 1
10
313.603492
20
257.599376
11
313.962876
21
257.145312
0
LINE
8
Layer 1
10
313.962876
20
257.145312
11
314.072641
21
256.272274
0
LINE
8
Layer 1
10
314.072641
20
256.272274
11
313.963845
21
254.892399
0
LINE
8
Layer 1
10
313.963845
20
254.892399
11
313.662858
21
253.384041
0
LINE
8
Layer 1
10
313.662858
20
253.384041
11
313.162721
21
251.930805
0
LINE
8
Layer 1
10
313.162721
20
251.930805
11
312.497575
21
250.577687
0
LINE
8
Layer 1
10
312.497575
20
250.577687
11
311.701558
21
249.369687
0
LINE
8
Layer 1
10
311.701558
20
249.369687
11
310.808809
21
248.351802
0
LINE
8
Layer 1
10
310.808809
20
248.351802
11
309.853467
21
247.569029
0
LINE
8
Layer 1
10
309.853467
20
247.569029
11
308.869671
21
247.066367
0
LINE
8
Layer 1
10
308.869671
20
247.066367
11
307.891559
21
246.888814
0
LINE
8
Layer 1
10
307.891559
20
246.888814
11
305.932878
21
246.636274
0
LINE
8
Layer 1
10
305.932878
20
246.636274
11
305.244483
21
246.493681
0
LINE
8
Layer 1
10
305.244483
20
246.493681
11
305.401331
21
246.834712
0
LINE
8
Layer 1
10
305.401331
20
246.834712
11
305.401331
21
246.834712
 0 
ENDSEC
 0 
EOF