999
"DXF R12 Output" (www.mydxf.blogspot.com)
 0 
SECTION
 2 
HEADER
 9 
$ACADVER
 1 
AC1009
 9 
$EXTMIN
 10 
 0 
 20 
 0 
 9 
$EXTMAX
 10 
 8.5 
 20 
 11 
 0 
ENDSEC
 0 
SECTION
 2 
ENTITIES
0
LINE
8
Image
10
1.938571
20
7.201736
11
1.657238
21
7.473553
0
LINE
8
Image
10
1.657238
20
7.473553
11
1.700754
21
7.919240
0
LINE
8
Image
10
1.700754
20
7.919240
11
2.063278
21
8.523691
0
LINE
8
Image
10
2.063278
20
8.523691
11
2.738969
21
9.271802
0
LINE
8
Image
10
2.738969
20
9.271802
11
3.825506
21
10.634908
0
LINE
8
Image
10
3.825506
20
10.634908
11
4.870937
21
12.431256
0
LINE
8
Image
10
4.870937
20
12.431256
11
5.786283
21
14.014707
0
LINE
8
Image
10
5.786283
20
14.014707
11
6.818472
21
15.285452
0
LINE
8
Image
10
6.818472
20
15.285452
11
7.973556
21
16.249672
0
LINE
8
Image
10
7.973556
20
16.249672
11
9.257583
21
16.913549
0
LINE
8
Image
10
9.257583
20
16.913549
11
10.359770
21
17.334479
0
LINE
8
Image
10
10.359770
20
17.334479
11
10.359770
21
18.753234
0
LINE
8
Image
10
10.359770
20
18.753234
11
10.481369
21
20.112102
0
LINE
8
Image
10
10.481369
20
20.112102
11
10.773723
21
21.386875
0
LINE
8
Image
10
10.773723
20
21.386875
11
11.187677
21
22.601761
0
LINE
8
Image
10
11.187677
20
22.601761
11
11.906284
21
21.743220
0
LINE
8
Image
10
11.906284
20
21.743220
11
12.481104
21
20.939879
0
LINE
8
Image
10
12.481104
20
20.939879
11
12.761853
21
20.200319
0
LINE
8
Image
10
12.761853
20
20.200319
11
12.768438
21
19.419195
0
LINE
8
Image
10
12.768438
20
19.419195
11
12.520764
21
18.491162
0
LINE
8
Image
10
12.520764
20
18.491162
11
12.129875
21
17.195804
0
LINE
8
Image
10
12.129875
20
17.195804
11
12.203278
21
17.081839
0
LINE
8
Image
10
12.203278
20
17.081839
11
12.451395
21
17.242388
0
LINE
8
Image
10
12.451395
20
17.242388
11
12.631235
21
17.339809
0
LINE
8
Image
10
12.631235
20
17.339809
11
12.762089
21
17.257326
0
LINE
8
Image
10
12.762089
20
17.257326
11
12.963949
21
16.411429
0
LINE
8
Image
10
12.963949
20
16.411429
11
13.041328
21
15.442711
0
LINE
8
Image
10
13.041328
20
15.442711
11
12.969401
21
14.437359
0
LINE
8
Image
10
12.969401
20
14.437359
11
12.321873
21
11.927395
0
LINE
8
Image
10
12.321873
20
11.927395
11
12.013378
21
10.790136
0
LINE
8
Image
10
12.013378
20
10.790136
11
11.959701
21
10.122621
0
LINE
8
Image
10
11.959701
20
10.122621
11
11.933029
21
9.950275
0
LINE
8
Image
10
11.933029
20
9.950275
11
11.714109
21
9.775534
0
LINE
8
Image
10
11.714109
20
9.775534
11
10.662215
21
9.398037
0
LINE
8
Image
10
10.662215
20
9.398037
11
7.496488
21
8.391776
0
LINE
8
Image
10
7.496488
20
8.391776
11
5.580429
21
7.503115
0
LINE
8
Image
10
5.580429
20
7.503115
11
4.857542
21
7.220992
0
LINE
8
Image
10
4.857542
20
7.220992
11
3.825930
21
7.061521
0
LINE
8
Image
10
3.825930
20
7.061521
11
2.761103
21
7.047503
0
LINE
8
Image
10
2.761103
20
7.047503
11
1.938571
21
7.201736
0
LINE
8
Image
10
1.938571
20
7.201736
11
1.938571
21
7.201736
0
LINE
8
Image
10
4.380290
20
9.220372
11
5.687225
21
10.096355
0
LINE
8
Image
10
5.687225
20
10.096355
11
6.864585
21
11.438514
0
LINE
8
Image
10
6.864585
20
11.438514
11
7.662003
21
12.433778
0
LINE
8
Image
10
7.662003
20
12.433778
11
8.284829
21
12.983385
0
LINE
8
Image
10
8.284829
20
12.983385
11
8.787264
21
13.120409
0
LINE
8
Image
10
8.787264
20
13.120409
11
9.223510
21
12.877923
0
LINE
8
Image
10
9.223510
20
12.877923
11
9.547902
21
12.615390
0
LINE
8
Image
10
9.547902
20
12.615390
11
9.836413
21
12.556681
0
LINE
8
Image
10
9.836413
20
12.556681
11
10.534612
21
13.087271
0
LINE
8
Image
10
10.534612
20
13.087271
11
11.113036
21
13.800812
0
LINE
8
Image
10
11.113036
20
13.800812
11
11.408101
21
14.402637
0
LINE
8
Image
10
11.408101
20
14.402637
11
11.445654
21
14.984741
0
LINE
8
Image
10
11.445654
20
14.984741
11
11.251541
21
15.639121
0
LINE
8
Image
10
11.251541
20
15.639121
11
10.847496
21
16.306183
0
LINE
8
Image
10
10.847496
20
16.306183
11
10.364488
21
16.518130
0
LINE
8
Image
10
10.364488
20
16.518130
11
9.690656
21
16.424013
0
LINE
8
Image
10
9.690656
20
16.424013
11
8.980263
21
16.152671
0
LINE
8
Image
10
8.980263
20
16.152671
11
7.523907
21
15.144345
0
LINE
8
Image
10
7.523907
20
15.144345
11
6.143650
21
13.625227
0
LINE
8
Image
10
6.143650
20
13.625227
11
4.987724
21
11.727391
0
LINE
8
Image
10
4.987724
20
11.727391
11
4.170963
21
10.246053
0
LINE
8
Image
10
4.170963
20
10.246053
11
3.443967
21
9.225688
0
LINE
8
Image
10
3.443967
20
9.225688
11
3.005918
21
8.742852
0
LINE
8
Image
10
3.005918
20
8.742852
11
2.970466
21
8.581280
0
LINE
8
Image
10
2.970466
20
8.581280
11
4.380290
21
9.220369
0
LINE
8
Image
10
4.380290
20
9.220369
11
4.380290
21
9.220372
0
LINE
8
Image
10
9.049922
20
11.964444
11
8.979114
21
12.188995
0
LINE
8
Image
10
8.979114
20
12.188995
11
8.633944
21
12.276340
0
LINE
8
Image
10
8.633944
20
12.276340
11
8.259096
21
12.166853
0
LINE
8
Image
10
8.259096
20
12.166853
11
8.114117
21
11.883770
0
LINE
8
Image
10
8.114117
20
11.883770
11
8.238230
21
11.636517
0
LINE
8
Image
10
8.238230
20
11.636517
11
8.523069
21
11.575089
0
LINE
8
Image
10
8.523069
20
11.575089
11
8.837383
21
11.688170
0
LINE
8
Image
10
8.837383
20
11.688170
11
9.049922
21
11.964444
0
LINE
8
Image
10
9.049922
20
11.964444
11
9.049922
21
11.964444
0
LINE
8
Image
10
17.096730
20
7.660277
11
17.023434
21
8.100832
0
LINE
8
Image
10
17.023434
20
8.100832
11
16.847213
21
8.284071
0
LINE
8
Image
10
16.847213
20
8.284071
11
16.597696
21
8.533589
0
LINE
8
Image
10
16.597696
20
8.533589
11
16.854231
21
8.709809
0
LINE
8
Image
10
16.854231
20
8.709809
11
17.471006
21
8.783104
0
LINE
8
Image
10
17.471006
20
8.783104
11
18.087780
21
8.709809
0
LINE
8
Image
10
18.087780
20
8.709809
11
18.344315
21
8.533589
0
LINE
8
Image
10
18.344315
20
8.533589
11
18.234372
21
8.357366
0
LINE
8
Image
10
18.234372
20
8.357366
11
17.970039
21
8.284071
0
LINE
8
Image
10
17.970039
20
8.284071
11
17.695571
21
8.117726
0
LINE
8
Image
10
17.695571
20
8.117726
11
17.595764
21
7.660277
0
LINE
8
Image
10
17.595764
20
7.660277
11
17.522468
21
7.219724
0
LINE
8
Image
10
17.522468
20
7.219724
11
17.346247
21
7.036486
0
LINE
8
Image
10
17.346247
20
7.036486
11
17.170026
21
7.219724
0
LINE
8
Image
10
17.170026
20
7.219724
11
17.096730
21
7.660277
0
LINE
8
Image
10
17.096730
20
7.660277
11
17.096730
21
7.660277
0
LINE
8
Image
10
18.843349
20
7.926368
11
18.947850
21
8.667330
0
LINE
8
Image
10
18.947850
20
8.667330
11
19.523198
21
8.737299
0
LINE
8
Image
10
19.523198
20
8.737299
11
20.085790
21
8.524309
0
LINE
8
Image
10
20.085790
20
8.524309
11
20.242552
21
7.847417
0
LINE
8
Image
10
20.242552
20
7.847417
11
20.208059
21
7.334195
0
LINE
8
Image
10
20.208059
20
7.334195
11
20.073493
21
7.066822
0
LINE
8
Image
10
20.073493
20
7.066822
11
19.883489
21
7.080224
0
LINE
8
Image
10
19.883489
20
7.080224
11
19.682682
21
7.409328
0
LINE
8
Image
10
19.682682
20
7.409328
11
19.514826
21
7.631356
0
LINE
8
Image
10
19.514826
20
7.631356
11
19.312168
21
7.641603
0
LINE
8
Image
10
19.312168
20
7.641603
11
19.193706
21
7.474098
0
LINE
8
Image
10
19.193706
20
7.474098
11
19.228280
21
7.268760
0
LINE
8
Image
10
19.228280
20
7.268760
11
19.252045
21
7.104716
0
LINE
8
Image
10
19.252045
20
7.104716
11
19.107592
21
7.036486
0
LINE
8
Image
10
19.107592
20
7.036486
11
18.920970
21
7.297888
0
LINE
8
Image
10
18.920970
20
7.297888
11
18.843349
21
7.926368
0
LINE
8
Image
10
18.843349
20
7.926368
11
18.843349
21
7.926368
0
LINE
8
Image
10
19.841417
20
8.284071
11
19.606626
21
8.533589
0
LINE
8
Image
10
19.606626
20
8.533589
11
19.217625
21
8.284071
0
LINE
8
Image
10
19.217625
20
8.284071
11
19.222983
21
8.107850
0
LINE
8
Image
10
19.222983
20
8.107850
11
19.452416
21
8.034553
0
LINE
8
Image
10
19.452416
20
8.034553
11
19.727148
21
8.107850
0
LINE
8
Image
10
19.727148
20
8.107850
11
19.841417
21
8.284071
0
LINE
8
Image
10
19.841417
20
8.284071
11
19.841417
21
8.284071
0
LINE
8
Image
10
20.839486
20
7.173913
11
21.186561
21
8.143570
0
LINE
8
Image
10
21.186561
20
8.143570
11
21.712795
21
8.783104
0
LINE
8
Image
10
21.712795
20
8.783104
11
22.239029
21
8.143570
0
LINE
8
Image
10
22.239029
20
8.143570
11
22.586105
21
7.173913
0
LINE
8
Image
10
22.586105
20
7.173913
11
21.712795
21
7.136292
0
LINE
8
Image
10
21.712795
20
7.136292
11
20.839486
21
7.173913
0
LINE
8
Image
10
20.839486
20
7.173913
11
20.839486
21
7.173913
0
LINE
8
Image
10
21.758485
20
8.081337
11
21.657730
21
8.189608
0
LINE
8
Image
10
21.657730
20
8.189608
11
21.607735
21
7.930588
0
LINE
8
Image
10
21.607735
20
7.930588
11
21.638106
21
7.637114
0
LINE
8
Image
10
21.638106
20
7.637114
11
21.738786
21
7.603098
0
LINE
8
Image
10
21.738786
20
7.603098
11
21.758485
21
8.081337
0
LINE
8
Image
10
21.758485
20
8.081337
11
21.758485
21
8.081337
0
LINE
8
Image
10
23.085139
20
7.909795
11
23.158434
21
8.526570
0
LINE
8
Image
10
23.158434
20
8.526570
11
23.334656
21
8.783104
0
LINE
8
Image
10
23.334656
20
8.783104
11
23.510877
21
8.526570
0
LINE
8
Image
10
23.510877
20
8.526570
11
23.584173
21
7.909795
0
LINE
8
Image
10
23.584173
20
7.909795
11
23.510877
21
7.293021
0
LINE
8
Image
10
23.510877
20
7.293021
11
23.334656
21
7.036486
0
LINE
8
Image
10
23.334656
20
7.036486
11
23.158434
21
7.293021
0
LINE
8
Image
10
23.158434
20
7.293021
11
23.085139
21
7.909795
0
LINE
8
Image
10
23.085139
20
7.909795
11
23.085139
21
7.909795
0
LINE
8
Image
10
24.083207
20
7.909795
11
24.156502
21
8.526570
0
LINE
8
Image
10
24.156502
20
8.526570
11
24.332724
21
8.783104
0
LINE
8
Image
10
24.332724
20
8.783104
11
24.508945
21
8.568315
0
LINE
8
Image
10
24.508945
20
8.568315
11
24.582241
21
8.051907
0
LINE
8
Image
10
24.582241
20
8.051907
11
24.701740
21
7.453332
0
LINE
8
Image
10
24.701740
20
7.453332
11
25.143654
21
7.212579
0
LINE
8
Image
10
25.143654
20
7.212579
11
25.391053
21
7.121413
0
LINE
8
Image
10
25.391053
20
7.121413
11
24.894137
21
7.070466
0
LINE
8
Image
10
24.894137
20
7.070466
11
24.201082
21
7.168371
0
LINE
8
Image
10
24.201082
20
7.168371
11
24.083207
21
7.909795
0
LINE
8
Image
10
24.083207
20
7.909795
11
24.083207
21
7.909795
0
LINE
8
Image
10
26.079342
20
7.909795
11
26.188666
21
8.639353
0
LINE
8
Image
10
26.188666
20
8.639353
11
26.765515
21
8.754161
0
LINE
8
Image
10
26.765515
20
8.754161
11
27.149325
21
8.702283
0
LINE
8
Image
10
27.149325
20
8.702283
11
27.015033
21
8.611106
0
LINE
8
Image
10
27.015033
20
8.611106
11
26.578378
21
8.284071
0
LINE
8
Image
10
26.578378
20
8.284071
11
27.015033
21
7.957036
0
LINE
8
Image
10
27.015033
20
7.957036
11
27.326929
21
7.855092
0
LINE
8
Image
10
27.326929
20
7.855092
11
27.015033
21
7.813981
0
LINE
8
Image
10
27.015033
20
7.813981
11
26.676353
21
7.720411
0
LINE
8
Image
10
26.676353
20
7.720411
11
26.593262
21
7.545564
0
LINE
8
Image
10
26.593262
20
7.545564
11
26.752245
21
7.354575
0
LINE
8
Image
10
26.752245
20
7.354575
11
27.139792
21
7.212579
0
LINE
8
Image
10
27.139792
20
7.212579
11
27.387190
21
7.121413
0
LINE
8
Image
10
27.387190
20
7.121413
11
26.890274
21
7.070466
0
LINE
8
Image
10
26.890274
20
7.070466
11
26.197219
21
7.168371
0
LINE
8
Image
10
26.197219
20
7.168371
11
26.079342
21
7.909795
0
LINE
8
Image
10
26.079342
20
7.909795
11
26.079342
21
7.909795
0
LINE
8
Image
10
28.075479
20
7.909795
11
28.164033
21
8.572062
0
LINE
8
Image
10
28.164033
20
8.572062
11
28.441924
21
8.783104
0
LINE
8
Image
10
28.441924
20
8.783104
11
28.669848
21
8.681462
0
LINE
8
Image
10
28.669848
20
8.681462
11
28.664745
21
8.408830
0
LINE
8
Image
10
28.664745
20
8.408830
11
28.644454
21
8.144497
0
LINE
8
Image
10
28.644454
20
8.144497
11
28.797335
21
8.034553
0
LINE
8
Image
10
28.797335
20
8.034553
11
28.992409
21
8.148823
0
LINE
8
Image
10
28.992409
20
8.148823
11
29.073547
21
8.423554
0
LINE
8
Image
10
29.073547
20
8.423554
11
29.150351
21
8.650821
0
LINE
8
Image
10
29.150351
20
8.650821
11
29.335005
21
8.650968
0
LINE
8
Image
10
29.335005
20
8.650968
11
29.499656
21
8.415070
0
LINE
8
Image
10
29.499656
20
8.415070
11
29.528370
21
8.074828
0
LINE
8
Image
10
29.528370
20
8.074828
11
29.655915
21
7.348381
0
LINE
8
Image
10
29.655915
20
7.348381
11
29.722963
21
7.092855
0
LINE
8
Image
10
29.722963
20
7.092855
11
29.545000
21
7.041724
0
LINE
8
Image
10
29.545000
20
7.041724
11
28.921853
21
7.473140
0
LINE
8
Image
10
28.921853
20
7.473140
11
28.636603
21
7.785036
0
LINE
8
Image
10
28.636603
20
7.785036
11
28.582449
21
7.473140
0
LINE
8
Image
10
28.582449
20
7.473140
11
28.496739
21
7.062624
0
LINE
8
Image
10
28.496739
20
7.062624
11
28.323189
21
7.050655
0
LINE
8
Image
10
28.323189
20
7.050655
11
28.152528
21
7.359092
0
LINE
8
Image
10
28.152528
20
7.359092
11
28.075479
21
7.909795
0
LINE
8
Image
10
28.075479
20
7.909795
11
28.075479
21
7.909795
0
LINE
8
Image
10
31.069683
20
7.909795
11
31.142979
21
8.526570
0
LINE
8
Image
10
31.142979
20
8.526570
11
31.319200
21
8.783104
0
LINE
8
Image
10
31.319200
20
8.783104
11
31.495422
21
8.673161
0
LINE
8
Image
10
31.495422
20
8.673161
11
31.568718
21
8.408830
0
LINE
8
Image
10
31.568718
20
8.408830
11
31.649855
21
8.144497
0
LINE
8
Image
10
31.649855
20
8.144497
11
31.844929
21
8.034553
0
LINE
8
Image
10
31.844929
20
8.034553
11
31.995466
21
8.150622
0
LINE
8
Image
10
31.995466
20
8.150622
11
31.969519
21
8.429679
0
LINE
8
Image
10
31.969519
20
8.429679
11
31.939366
21
8.694076
0
LINE
8
Image
10
31.939366
20
8.694076
11
32.129962
21
8.720898
0
LINE
8
Image
10
32.129962
20
8.720898
11
32.437882
21
8.496368
0
LINE
8
Image
10
32.437882
20
8.496368
11
32.529346
21
8.183366
0
LINE
8
Image
10
32.529346
20
8.183366
11
32.410140
21
7.905164
0
LINE
8
Image
10
32.410140
20
7.905164
11
32.086047
21
7.785036
0
LINE
8
Image
10
32.086047
20
7.785036
11
31.717319
21
7.677527
0
LINE
8
Image
10
31.717319
20
7.677527
11
31.568718
21
7.410762
0
LINE
8
Image
10
31.568718
20
7.410762
11
31.495422
21
7.146429
0
LINE
8
Image
10
31.495422
20
7.146429
11
31.319200
21
7.036486
0
LINE
8
Image
10
31.319200
20
7.036486
11
31.142979
21
7.293021
0
LINE
8
Image
10
31.142979
20
7.293021
11
31.069683
21
7.909795
0
LINE
8
Image
10
31.069683
20
7.909795
11
31.069683
21
7.909795
0
LINE
8
Image
10
32.816304
20
7.173913
11
33.163380
21
8.143570
0
LINE
8
Image
10
33.163380
20
8.143570
11
33.689613
21
8.783104
0
LINE
8
Image
10
33.689613
20
8.783104
11
34.215846
21
8.143570
0
LINE
8
Image
10
34.215846
20
8.143570
11
34.562922
21
7.173913
0
LINE
8
Image
10
34.562922
20
7.173913
11
33.689613
21
7.136292
0
LINE
8
Image
10
33.689613
20
7.136292
11
32.816304
21
7.173913
0
LINE
8
Image
10
32.816304
20
7.173913
11
32.816304
21
7.173913
0
LINE
8
Image
10
33.735304
20
8.081337
11
33.634548
21
8.189608
0
LINE
8
Image
10
33.634548
20
8.189608
11
33.584552
21
7.930588
0
LINE
8
Image
10
33.584552
20
7.930588
11
33.614918
21
7.637114
0
LINE
8
Image
10
33.614918
20
7.637114
11
33.715605
21
7.603098
0
LINE
8
Image
10
33.715605
20
7.603098
11
33.735317
21
8.081337
0
LINE
8
Image
10
33.735317
20
8.081337
11
33.735304
21
8.081337
0
LINE
8
Image
10
35.061957
20
7.909795
11
35.166710
21
8.628897
0
LINE
8
Image
10
35.166710
20
8.628897
11
35.655197
21
8.783104
0
LINE
8
Image
10
35.655197
20
8.783104
11
36.151087
21
8.683682
0
LINE
8
Image
10
36.151087
20
8.683682
11
36.528906
21
8.445202
0
LINE
8
Image
10
36.528906
20
8.445202
11
36.695836
21
8.157347
0
LINE
8
Image
10
36.695836
20
8.157347
11
36.559058
21
7.909795
0
LINE
8
Image
10
36.559058
20
7.909795
11
36.415974
21
7.698387
0
LINE
8
Image
10
36.415974
20
7.698387
11
36.577499
21
7.388548
0
LINE
8
Image
10
36.577499
20
7.388548
11
36.741661
21
7.110724
0
LINE
8
Image
10
36.741661
20
7.110724
11
36.554745
21
7.036486
0
LINE
8
Image
10
36.554745
20
7.036486
11
35.908334
21
7.473140
0
LINE
8
Image
10
35.908334
20
7.473140
11
35.623085
21
7.785036
0
LINE
8
Image
10
35.623085
20
7.785036
11
35.568930
21
7.473140
0
LINE
8
Image
10
35.568930
20
7.473140
11
35.483220
21
7.062624
0
LINE
8
Image
10
35.483220
20
7.062624
11
35.309672
21
7.050655
0
LINE
8
Image
10
35.309672
20
7.050655
11
35.139011
21
7.359092
0
LINE
8
Image
10
35.139011
20
7.359092
11
35.061962
21
7.909795
0
LINE
8
Image
10
35.061962
20
7.909795
11
35.061957
21
7.909795
0
LINE
8
Image
10
36.184784
20
8.284071
11
35.795781
21
8.533589
0
LINE
8
Image
10
35.795781
20
8.533589
11
35.560990
21
8.284071
0
LINE
8
Image
10
35.560990
20
8.284071
11
35.675259
21
8.107850
0
LINE
8
Image
10
35.675259
20
8.107850
11
35.949993
21
8.034553
0
LINE
8
Image
10
35.949993
20
8.034553
11
36.179425
21
8.107850
0
LINE
8
Image
10
36.179425
20
8.107850
11
36.184784
21
8.284071
0
LINE
8
Image
10
36.184784
20
8.284071
11
36.184784
21
8.284071
0
LINE
8
Image
10
37.557126
20
7.660277
11
37.483831
21
8.100832
0
LINE
8
Image
10
37.483831
20
8.100832
11
37.307611
21
8.284071
0
LINE
8
Image
10
37.307611
20
8.284071
11
37.058093
21
8.533589
0
LINE
8
Image
10
37.058093
20
8.533589
11
37.314627
21
8.709809
0
LINE
8
Image
10
37.314627
20
8.709809
11
37.931402
21
8.783104
0
LINE
8
Image
10
37.931402
20
8.783104
11
38.548177
21
8.709809
0
LINE
8
Image
10
38.548177
20
8.709809
11
38.804711
21
8.533589
0
LINE
8
Image
10
38.804711
20
8.533589
11
38.694768
21
8.357366
0
LINE
8
Image
10
38.694768
20
8.357366
11
38.430437
21
8.284071
0
LINE
8
Image
10
38.430437
20
8.284071
11
38.155968
21
8.117726
0
LINE
8
Image
10
38.155968
20
8.117726
11
38.056161
21
7.660277
0
LINE
8
Image
10
38.056161
20
7.660277
11
37.982865
21
7.219724
0
LINE
8
Image
10
37.982865
20
7.219724
11
37.806643
21
7.036486
0
LINE
8
Image
10
37.806643
20
7.036486
11
37.630422
21
7.219724
0
LINE
8
Image
10
37.630422
20
7.219724
11
37.557126
21
7.660277
0
LINE
8
Image
10
37.557126
20
7.660277
11
37.557126
21
7.660277
0
LINE
8
Image
10
39.181644
20
7.281704
11
39.212403
21
7.448485
0
LINE
8
Image
10
39.212403
20
7.448485
11
39.657116
21
7.393712
0
LINE
8
Image
10
39.657116
20
7.393712
11
40.123228
21
7.348529
0
LINE
8
Image
10
40.123228
20
7.348529
11
40.301814
21
7.491116
0
LINE
8
Image
10
40.301814
20
7.491116
11
40.142640
21
7.697607
0
LINE
8
Image
10
40.142640
20
7.697607
11
39.759946
21
7.830063
0
LINE
8
Image
10
39.759946
20
7.830063
11
39.349150
21
7.971773
0
LINE
8
Image
10
39.349150
20
7.971773
11
39.122417
21
8.200518
0
LINE
8
Image
10
39.122417
20
8.200518
11
39.213531
21
8.480151
0
LINE
8
Image
10
39.213531
20
8.480151
11
39.574377
21
8.659395
0
LINE
8
Image
10
39.574377
20
8.659395
11
40.025967
21
8.691653
0
LINE
8
Image
10
40.025967
20
8.691653
11
40.389309
21
8.530329
0
LINE
8
Image
10
40.389309
20
8.530329
11
40.498107
21
8.327017
0
LINE
8
Image
10
40.498107
20
8.327017
11
40.114677
21
8.397598
0
LINE
8
Image
10
40.114677
20
8.397598
11
39.688854
21
8.480907
0
LINE
8
Image
10
39.688854
20
8.480907
11
39.568254
21
8.412956
0
LINE
8
Image
10
39.568254
20
8.412956
11
40.197336
21
8.026844
0
LINE
8
Image
10
40.197336
20
8.026844
11
40.622281
21
7.762730
0
LINE
8
Image
10
40.622281
20
7.762730
11
40.739509
21
7.471606
0
LINE
8
Image
10
40.739509
20
7.471606
11
40.471681
21
7.222616
0
LINE
8
Image
10
40.471681
20
7.222616
11
39.994139
21
7.092291
0
LINE
8
Image
10
39.994139
20
7.092291
11
39.499816
21
7.104147
0
LINE
8
Image
10
39.499816
20
7.104147
11
39.181644
21
7.281704
0
LINE
8
Image
10
39.181644
20
7.281704
11
39.181644
21
7.281704
0
LINE
8
Image
10
50.781529
20
9.531657
11
50.842980
21
9.999665
0
LINE
8
Image
10
50.842980
20
9.999665
11
51.064959
21
10.238708
0
LINE
8
Image
10
51.064959
20
10.238708
11
51.503903
21
10.272046
0
LINE
8
Image
10
51.503903
20
10.272046
11
52.216251
21
10.122939
0
LINE
8
Image
10
52.216251
20
10.122939
11
52.571837
21
9.908297
0
LINE
8
Image
10
52.571837
20
9.908297
11
52.760222
21
9.564606
0
LINE
8
Image
10
52.760222
20
9.564606
11
52.754595
21
9.196313
0
LINE
8
Image
10
52.754595
20
9.196313
11
52.528147
21
8.907863
0
LINE
8
Image
10
52.528147
20
8.907863
11
52.351927
21
8.913224
0
LINE
8
Image
10
52.351927
20
8.913224
11
52.278632
21
9.142654
0
LINE
8
Image
10
52.278632
20
9.142654
11
52.168688
21
9.417387
0
LINE
8
Image
10
52.168688
20
9.417387
11
51.904356
21
9.531657
0
LINE
8
Image
10
51.904356
20
9.531657
11
51.640023
21
9.421713
0
LINE
8
Image
10
51.640023
20
9.421713
11
51.530079
21
9.157380
0
LINE
8
Image
10
51.530079
20
9.157380
11
51.420136
21
8.893048
0
LINE
8
Image
10
51.420136
20
8.893048
11
51.155805
21
8.783104
0
LINE
8
Image
10
51.155805
20
8.783104
11
50.875098
21
8.970242
0
LINE
8
Image
10
50.875098
20
8.970242
11
50.781529
21
9.531657
0
LINE
8
Image
10
50.781529
20
9.531657
11
50.781529
21
9.531657
0
LINE
8
Image
10
53.093640
20
9.253620
11
53.180139
21
9.610041
0
LINE
8
Image
10
53.180139
20
9.610041
11
53.326735
21
9.770576
0
LINE
8
Image
10
53.326735
20
9.770576
11
53.464928
21
9.710953
0
LINE
8
Image
10
53.464928
20
9.710953
11
53.526215
21
9.406898
0
LINE
8
Image
10
53.526215
20
9.406898
11
53.599511
21
9.142566
0
LINE
8
Image
10
53.599511
20
9.142566
11
53.775733
21
9.032621
0
LINE
8
Image
10
53.775733
20
9.032621
11
53.951954
21
9.142566
0
LINE
8
Image
10
53.951954
20
9.142566
11
54.025250
21
9.406898
0
LINE
8
Image
10
54.025250
20
9.406898
11
54.230474
21
9.691553
0
LINE
8
Image
10
54.230474
20
9.691553
11
54.882317
21
9.781172
0
LINE
8
Image
10
54.882317
20
9.781172
11
56.379420
21
10.024514
0
LINE
8
Image
10
56.379420
20
10.024514
11
56.831444
21
10.133784
0
LINE
8
Image
10
56.831444
20
10.133784
11
57.019454
21
10.054785
0
LINE
8
Image
10
57.019454
20
10.054785
11
56.791179
21
9.788603
0
LINE
8
Image
10
56.791179
20
9.788603
11
56.264098
21
9.535840
0
LINE
8
Image
10
56.264098
20
9.535840
11
55.674831
21
9.382561
0
LINE
8
Image
10
55.674831
20
9.382561
11
55.259998
21
9.414830
0
LINE
8
Image
10
55.259998
20
9.414830
11
55.003019
21
9.460909
0
LINE
8
Image
10
55.003019
20
9.460909
11
54.795880
21
9.317863
0
LINE
8
Image
10
54.795880
20
9.317863
11
54.444014
21
9.075590
0
LINE
8
Image
10
54.444014
20
9.075590
11
53.839069
21
8.883103
0
LINE
8
Image
10
53.839069
20
8.883103
11
53.194652
21
8.842878
0
LINE
8
Image
10
53.194652
20
8.842878
11
53.093640
21
9.253620
0
LINE
8
Image
10
53.093640
20
9.253620
11
53.093640
21
9.253620
0
LINE
8
Image
10
49.783461
20
9.531657
11
49.674297
21
9.885138
0
LINE
8
Image
10
49.674297
20
9.885138
11
49.409185
21
10.030689
0
LINE
8
Image
10
49.409185
20
10.030689
11
49.144854
21
9.920746
0
LINE
8
Image
10
49.144854
20
9.920746
11
49.034911
21
9.656416
0
LINE
8
Image
10
49.034911
20
9.656416
11
48.867102
21
9.381426
0
LINE
8
Image
10
48.867102
20
9.381426
11
48.402338
21
9.282139
0
LINE
8
Image
10
48.402338
20
9.282139
11
47.925744
21
9.366641
0
LINE
8
Image
10
47.925744
20
9.366641
11
48.028064
21
9.764770
0
LINE
8
Image
10
48.028064
20
9.764770
11
48.286358
21
10.749855
0
LINE
8
Image
10
48.286358
20
10.749855
11
48.415979
21
11.128952
0
LINE
8
Image
10
48.415979
20
11.128952
11
49.097289
21
10.983003
0
LINE
8
Image
10
49.097289
20
10.983003
11
49.790233
21
10.702283
0
LINE
8
Image
10
49.790233
20
10.702283
11
50.216115
21
10.395900
0
LINE
8
Image
10
50.216115
20
10.395900
11
50.400941
21
10.035457
0
LINE
8
Image
10
50.400941
20
10.035457
11
50.370719
21
9.592558
0
LINE
8
Image
10
50.370719
20
9.592558
11
50.202337
21
9.195013
0
LINE
8
Image
10
50.202337
20
9.195013
11
50.008980
21
9.048267
0
LINE
8
Image
10
50.008980
20
9.048267
11
49.849679
21
9.158441
0
LINE
8
Image
10
49.849679
20
9.158441
11
49.783461
21
9.531657
0
LINE
8
Image
10
49.783461
20
9.531657
11
49.783461
21
9.531657
0
LINE
8
Image
10
46.654661
20
10.193471
11
46.563978
21
10.694617
0
LINE
8
Image
10
46.563978
20
10.694617
11
46.338452
21
10.951942
0
LINE
8
Image
10
46.338452
20
10.951942
11
46.074955
21
10.920666
0
LINE
8
Image
10
46.074955
20
10.920666
11
45.870360
21
10.556008
0
LINE
8
Image
10
45.870360
20
10.556008
11
45.693594
21
10.233708
0
LINE
8
Image
10
45.693594
20
10.233708
11
45.399708
21
10.062207
0
LINE
8
Image
10
45.399708
20
10.062207
11
45.034587
21
10.054016
0
LINE
8
Image
10
45.034587
20
10.054016
11
44.644116
21
10.221647
0
LINE
8
Image
10
44.644116
20
10.221647
11
44.408127
21
10.717592
0
LINE
8
Image
10
44.408127
20
10.717592
11
44.225181
21
11.652549
0
LINE
8
Image
10
44.225181
20
11.652549
11
43.908859
21
13.341935
0
LINE
8
Image
10
43.908859
20
13.341935
11
43.946225
21
13.474660
0
LINE
8
Image
10
43.946225
20
13.474660
11
44.253056
21
13.399632
0
LINE
8
Image
10
44.253056
20
13.399632
11
45.756386
21
12.593385
0
LINE
8
Image
10
45.756386
20
12.593385
11
46.969654
21
11.823267
0
LINE
8
Image
10
46.969654
20
11.823267
11
47.618620
21
11.219547
0
LINE
8
Image
10
47.618620
20
11.219547
11
47.806340
21
10.635983
0
LINE
8
Image
10
47.806340
20
10.635983
11
47.635870
21
9.926338
0
LINE
8
Image
10
47.635870
20
9.926338
11
47.371362
21
9.577603
0
LINE
8
Image
10
47.371362
20
9.577603
11
47.043659
21
9.526571
0
LINE
8
Image
10
47.043659
20
9.526571
11
46.766759
21
9.742206
0
LINE
8
Image
10
46.766759
20
9.742206
11
46.654661
21
10.193471
0
LINE
8
Image
10
46.654661
20
10.193471
11
46.654661
21
10.193471
0
LINE
8
Image
10
13.263743
20
10.404963
11
13.478733
21
10.779240
0
LINE
8
Image
10
13.478733
20
10.779240
11
13.693724
21
10.404963
0
LINE
8
Image
10
13.693724
20
10.404963
11
13.699804
21
10.133190
0
LINE
8
Image
10
13.699804
20
10.133190
11
13.478733
21
10.030689
0
LINE
8
Image
10
13.478733
20
10.030689
11
13.257664
21
10.133190
0
LINE
8
Image
10
13.257664
20
10.133190
11
13.263743
21
10.404963
0
LINE
8
Image
10
13.263743
20
10.404963
11
13.263743
21
10.404963
0
LINE
8
Image
10
14.352043
20
10.171852
11
14.610339
21
10.795641
0
LINE
8
Image
10
14.610339
20
10.795641
11
14.723546
21
11.149156
0
LINE
8
Image
10
14.723546
20
11.149156
11
14.624176
21
11.279917
0
LINE
8
Image
10
14.624176
20
11.279917
11
14.395931
21
11.180033
0
LINE
8
Image
10
14.395931
20
11.180033
11
14.122512
21
10.841618
0
LINE
8
Image
10
14.122512
20
10.841618
11
13.904334
21
10.535353
0
LINE
8
Image
10
13.904334
20
10.535353
11
13.860596
21
10.858260
0
LINE
8
Image
10
13.860596
20
10.858260
11
14.047176
21
11.430050
0
LINE
8
Image
10
14.047176
20
11.430050
11
14.506416
21
12.168226
0
LINE
8
Image
10
14.506416
20
12.168226
11
14.928294
21
12.992931
0
LINE
8
Image
10
14.928294
20
12.992931
11
14.778115
21
13.025233
0
LINE
8
Image
10
14.778115
20
13.025233
11
14.401946
21
12.725467
0
LINE
8
Image
10
14.401946
20
12.725467
11
14.164905
21
12.582310
0
LINE
8
Image
10
14.164905
20
12.582310
11
14.102526
21
12.876692
0
LINE
8
Image
10
14.102526
20
12.876692
11
14.285765
21
13.339099
0
LINE
8
Image
10
14.285765
20
13.339099
11
14.726318
21
13.818015
0
LINE
8
Image
10
14.726318
20
13.818015
11
15.350111
21
14.570650
0
LINE
8
Image
10
15.350111
20
14.570650
11
15.249398
21
14.678536
0
LINE
8
Image
10
15.249398
20
14.678536
11
14.975835
21
14.521988
0
LINE
8
Image
10
14.975835
20
14.521988
11
14.674102
21
14.347301
0
LINE
8
Image
10
14.674102
20
14.347301
11
14.601560
21
14.602088
0
LINE
8
Image
10
14.601560
20
14.602088
11
14.821447
21
15.007926
0
LINE
8
Image
10
14.821447
20
15.007926
11
15.350111
21
15.434990
0
LINE
8
Image
10
15.350111
20
15.434990
11
16.075674
21
16.066834
0
LINE
8
Image
10
16.075674
20
16.066834
11
15.999011
21
16.204746
0
LINE
8
Image
10
15.999011
20
16.204746
11
15.601198
21
16.144348
0
LINE
8
Image
10
15.601198
20
16.144348
11
15.222670
21
16.124515
0
LINE
8
Image
10
15.222670
20
16.124515
11
15.237001
21
16.356007
0
LINE
8
Image
10
15.237001
20
16.356007
11
15.563617
21
16.702283
0
LINE
8
Image
10
15.563617
20
16.702283
11
16.121944
21
17.026804
0
LINE
8
Image
10
16.121944
20
17.026804
11
17.005666
21
17.580562
0
LINE
8
Image
10
17.005666
20
17.580562
11
17.007677
21
17.735243
0
LINE
8
Image
10
17.007677
20
17.735243
11
16.636713
21
17.703617
0
LINE
8
Image
10
16.636713
20
17.703617
11
16.141409
21
17.671840
0
LINE
8
Image
10
16.141409
20
17.671840
11
16.105362
21
17.880400
0
LINE
8
Image
10
16.105362
20
17.880400
11
16.449996
21
18.195860
0
LINE
8
Image
10
16.449996
20
18.195860
11
17.096730
21
18.484783
0
LINE
8
Image
10
17.096730
20
18.484783
11
17.731747
21
18.756858
0
LINE
8
Image
10
17.731747
20
18.756858
11
18.077247
21
19.043152
0
LINE
8
Image
10
18.077247
20
19.043152
11
18.052320
21
19.225406
0
LINE
8
Image
10
18.052320
20
19.225406
11
17.576055
21
19.185362
0
LINE
8
Image
10
17.576055
20
19.185362
11
17.202145
21
19.161547
0
LINE
8
Image
10
17.202145
20
19.161547
11
17.201779
21
19.426185
0
LINE
8
Image
10
17.201779
20
19.426185
11
17.346247
21
19.872412
0
LINE
8
Image
10
17.346247
20
19.872412
11
17.907660
21
19.837429
0
LINE
8
Image
10
17.907660
20
19.837429
11
18.450750
21
19.883127
0
LINE
8
Image
10
18.450750
20
19.883127
11
18.968108
21
20.140067
0
LINE
8
Image
10
18.968108
20
20.140067
11
19.327344
21
20.478361
0
LINE
8
Image
10
19.327344
20
20.478361
11
18.891480
21
20.423793
0
LINE
8
Image
10
18.891480
20
20.423793
11
18.489493
21
20.407714
0
LINE
8
Image
10
18.489493
20
20.407714
11
18.411662
21
20.592411
0
LINE
8
Image
10
18.411662
20
20.592411
11
18.730241
21
20.822371
0
LINE
8
Image
10
18.730241
20
20.822371
11
19.361599
21
20.964841
0
LINE
8
Image
10
19.361599
20
20.964841
11
20.441741
21
21.272490
0
LINE
8
Image
10
20.441741
20
21.272490
11
20.495553
21
21.436963
0
LINE
8
Image
10
20.495553
20
21.436963
11
20.090934
21
21.508467
0
LINE
8
Image
10
20.090934
20
21.508467
11
19.678046
21
21.570845
0
LINE
8
Image
10
19.678046
20
21.570845
11
19.794386
21
21.810758
0
LINE
8
Image
10
19.794386
20
21.810758
11
20.300218
21
22.003144
0
LINE
8
Image
10
20.300218
20
22.003144
11
21.091874
21
22.041194
0
LINE
8
Image
10
21.091874
20
22.041194
11
21.810254
21
22.064038
0
LINE
8
Image
10
21.810254
20
22.064038
11
22.087071
21
22.237938
0
LINE
8
Image
10
22.087071
20
22.237938
11
21.931505
21
22.427634
0
LINE
8
Image
10
21.931505
20
22.427634
11
21.557484
21
22.506534
0
LINE
8
Image
10
21.557484
20
22.506534
11
21.185932
21
22.576306
0
LINE
8
Image
10
21.185932
20
22.576306
11
21.334168
21
22.875567
0
LINE
8
Image
10
21.334168
20
22.875567
11
21.674611
21
23.105023
0
LINE
8
Image
10
21.674611
20
23.105023
11
22.096868
21
23.000326
0
LINE
8
Image
10
22.096868
20
23.000326
11
23.062880
21
22.764156
0
LINE
8
Image
10
23.062880
20
22.764156
11
23.435166
21
22.825361
0
LINE
8
Image
10
23.435166
20
22.825361
11
23.584173
21
23.005564
0
LINE
8
Image
10
23.584173
20
23.005564
11
23.459570
21
23.181787
0
LINE
8
Image
10
23.459570
20
23.181787
11
23.159994
21
23.255082
0
LINE
8
Image
10
23.159994
20
23.255082
11
22.905275
21
23.317461
0
LINE
8
Image
10
22.905275
20
23.317461
11
22.982918
21
23.502187
0
LINE
8
Image
10
22.982918
20
23.502187
11
23.385147
21
23.624531
0
LINE
8
Image
10
23.385147
20
23.624531
11
24.091622
21
23.502187
0
LINE
8
Image
10
24.091622
20
23.502187
11
25.115330
21
23.270800
0
LINE
8
Image
10
25.115330
20
23.270800
11
25.288718
21
23.329472
0
LINE
8
Image
10
25.288718
20
23.329472
11
25.330792
21
23.504568
0
LINE
8
Image
10
25.330792
20
23.504568
11
25.170192
21
23.680790
0
LINE
8
Image
10
25.170192
20
23.680790
11
24.784068
21
23.754086
0
LINE
8
Image
10
24.784068
20
23.754086
11
24.376087
21
23.801664
0
LINE
8
Image
10
24.376087
20
23.801664
11
24.720108
21
24.107090
0
LINE
8
Image
10
24.720108
20
24.107090
11
25.099664
21
24.293938
0
LINE
8
Image
10
25.099664
20
24.293938
11
25.334290
21
24.247459
0
LINE
8
Image
10
25.334290
20
24.247459
11
26.157356
21
23.775328
0
LINE
8
Image
10
26.157356
20
23.775328
11
26.623117
21
23.667694
0
LINE
8
Image
10
26.623117
20
23.667694
11
26.827893
21
23.745534
0
LINE
8
Image
10
26.827893
20
23.745534
11
26.551737
21
24.144824
0
LINE
8
Image
10
26.551737
20
24.144824
11
26.420078
21
24.323693
0
LINE
8
Image
10
26.420078
20
24.323693
11
26.607533
21
24.520654
0
LINE
8
Image
10
26.607533
20
24.520654
11
26.880554
21
24.612750
0
LINE
8
Image
10
26.880554
20
24.612750
11
27.070826
21
24.546080
0
LINE
8
Image
10
27.070826
20
24.546080
11
27.959413
21
23.893691
0
LINE
8
Image
10
27.959413
20
23.893691
11
28.434668
21
23.720128
0
LINE
8
Image
10
28.434668
20
23.720128
11
28.702075
21
23.758621
0
LINE
8
Image
10
28.702075
20
23.758621
11
28.689811
21
23.980458
0
LINE
8
Image
10
28.689811
20
23.980458
11
28.444649
21
24.164845
0
LINE
8
Image
10
28.444649
20
24.164845
11
28.193256
21
24.329787
0
LINE
8
Image
10
28.193256
20
24.329787
11
28.341448
21
24.512804
0
LINE
8
Image
10
28.341448
20
24.512804
11
28.742873
21
24.484667
0
LINE
8
Image
10
28.742873
20
24.484667
11
29.295508
21
24.103804
0
LINE
8
Image
10
29.295508
20
24.103804
11
30.131445
21
23.504568
0
LINE
8
Image
10
30.131445
20
23.504568
11
30.282058
21
23.566192
0
LINE
8
Image
10
30.282058
20
23.566192
11
30.310212
21
23.727119
0
LINE
8
Image
10
30.310212
20
23.727119
11
30.021712
21
24.203215
0
LINE
8
Image
10
30.021712
20
24.203215
11
29.863980
21
24.440257
0
LINE
8
Image
10
29.863980
20
24.440257
11
30.102976
21
24.502636
0
LINE
8
Image
10
30.102976
20
24.502636
11
30.543979
21
24.319397
0
LINE
8
Image
10
30.543979
20
24.319397
11
31.069683
21
23.878844
0
LINE
8
Image
10
31.069683
20
23.878844
11
31.874314
21
23.268416
0
LINE
8
Image
10
31.874314
20
23.268416
11
32.009895
21
23.308777
0
LINE
8
Image
10
32.009895
20
23.308777
11
31.818236
21
23.629327
0
LINE
8
Image
10
31.818236
20
23.629327
11
31.643130
21
23.930984
0
LINE
8
Image
10
31.643130
20
23.930984
11
31.895452
21
24.003601
0
LINE
8
Image
10
31.895452
20
24.003601
11
32.326548
21
23.782853
0
LINE
8
Image
10
32.326548
20
23.782853
11
32.818391
21
23.252116
0
LINE
8
Image
10
32.818391
20
23.252116
11
33.267560
21
22.765416
0
LINE
8
Image
10
33.267560
20
22.765416
11
33.596051
21
22.650539
0
LINE
8
Image
10
33.596051
20
22.650539
11
33.696186
21
22.854285
0
LINE
8
Image
10
33.696186
20
22.854285
11
33.546418
21
23.152506
0
LINE
8
Image
10
33.546418
20
23.152506
11
33.387192
21
23.431458
0
LINE
8
Image
10
33.387192
20
23.431458
11
33.602319
21
23.504568
0
LINE
8
Image
10
33.602319
20
23.504568
11
33.986308
21
23.248033
0
LINE
8
Image
10
33.986308
20
23.248033
11
34.420714
21
22.631259
0
LINE
8
Image
10
34.420714
20
22.631259
11
35.101248
21
21.757950
0
LINE
8
Image
10
35.101248
20
21.757950
11
35.264109
21
21.818234
0
LINE
8
Image
10
35.264109
20
21.818234
11
35.300702
21
21.976927
0
LINE
8
Image
10
35.300702
20
21.976927
11
35.012054
21
22.456597
0
LINE
8
Image
10
35.012054
20
22.456597
11
34.863804
21
22.693638
0
LINE
8
Image
10
34.863804
20
22.693638
11
35.138832
21
22.756018
0
LINE
8
Image
10
35.138832
20
22.756018
11
35.557674
21
22.489442
0
LINE
8
Image
10
35.557674
20
22.489442
11
35.963730
21
21.759566
0
LINE
8
Image
10
35.963730
20
21.759566
11
36.307640
21
21.094344
0
LINE
8
Image
10
36.307640
20
21.094344
11
36.574607
21
20.894248
0
LINE
8
Image
10
36.574607
20
20.894248
11
36.679328
21
21.104456
0
LINE
8
Image
10
36.679328
20
21.104456
11
36.633159
21
21.425710
0
LINE
8
Image
10
36.633159
20
21.425710
11
36.601738
21
21.697067
0
LINE
8
Image
10
36.601738
20
21.697067
11
36.809393
21
21.716090
0
LINE
8
Image
10
36.809393
20
21.716090
11
37.059266
21
21.523205
0
LINE
8
Image
10
37.059266
20
21.523205
11
37.196822
21
21.213861
0
LINE
8
Image
10
37.196822
20
21.213861
11
37.472948
21
20.183017
0
LINE
8
Image
10
37.472948
20
20.183017
11
37.840272
21
19.761811
0
LINE
8
Image
10
37.840272
20
19.761811
11
37.970113
21
19.907942
0
LINE
8
Image
10
37.970113
20
19.907942
11
37.931899
21
20.259278
0
LINE
8
Image
10
37.931899
20
20.259278
11
37.890360
21
20.619420
0
LINE
8
Image
10
37.890360
20
20.619420
11
38.164603
21
20.606855
0
LINE
8
Image
10
38.164603
20
20.606855
11
38.452288
21
20.277287
0
LINE
8
Image
10
38.452288
20
20.277287
11
38.555194
21
19.625083
0
LINE
8
Image
10
38.555194
20
19.625083
11
38.628490
21
18.992263
0
LINE
8
Image
10
38.628490
20
18.992263
11
38.804711
21
18.638985
0
LINE
8
Image
10
38.804711
20
18.638985
11
38.980933
21
18.689966
0
LINE
8
Image
10
38.980933
20
18.689966
11
39.054229
21
19.029088
0
LINE
8
Image
10
39.054229
20
19.029088
11
39.123849
21
19.413621
0
LINE
8
Image
10
39.123849
20
19.413621
11
39.425756
21
19.265059
0
LINE
8
Image
10
39.425756
20
19.265059
11
39.646877
21
18.980513
0
LINE
8
Image
10
39.646877
20
18.980513
11
39.656785
21
18.729385
0
LINE
8
Image
10
39.656785
20
18.729385
11
39.596480
21
18.318046
0
LINE
8
Image
10
39.596480
20
18.318046
11
39.685851
21
17.753309
0
LINE
8
Image
10
39.685851
20
17.753309
11
39.861919
21
17.281188
0
LINE
8
Image
10
39.861919
20
17.281188
11
40.061703
21
17.147697
0
LINE
8
Image
10
40.061703
20
17.147697
11
40.171654
21
17.368909
0
LINE
8
Image
10
40.171654
20
17.368909
11
40.129433
21
17.711288
0
LINE
8
Image
10
40.129433
20
17.711288
11
40.073140
21
17.996776
0
LINE
8
Image
10
40.073140
20
17.996776
11
40.317867
21
17.825183
0
LINE
8
Image
10
40.317867
20
17.825183
11
40.544601
21
17.324472
0
LINE
8
Image
10
40.544601
20
17.324472
11
40.585027
21
16.515219
0
LINE
8
Image
10
40.585027
20
16.515219
11
40.607868
21
15.796839
0
LINE
8
Image
10
40.607868
20
15.796839
11
40.781768
21
15.520022
0
LINE
8
Image
10
40.781768
20
15.520022
11
40.971464
21
15.644625
0
LINE
8
Image
10
40.971464
20
15.644625
11
41.050365
21
15.944201
0
LINE
8
Image
10
41.050365
20
15.944201
11
41.112744
21
16.194477
0
LINE
8
Image
10
41.112744
20
16.194477
11
41.287624
21
16.131121
0
LINE
8
Image
10
41.287624
20
16.131121
11
41.401620
21
15.701617
0
LINE
8
Image
10
41.401620
20
15.701617
11
41.313606
21
14.957061
0
LINE
8
Image
10
41.313606
20
14.957061
11
41.225916
21
14.247266
0
LINE
8
Image
10
41.225916
20
14.247266
11
41.325856
21
13.882108
0
LINE
8
Image
10
41.325856
20
13.882108
11
41.483732
21
13.898804
0
LINE
8
Image
10
41.483732
20
13.898804
11
41.549397
21
14.132953
0
LINE
8
Image
10
41.549397
20
14.132953
11
41.630639
21
14.407685
0
LINE
8
Image
10
41.630639
20
14.407685
11
41.825963
21
14.521954
0
LINE
8
Image
10
41.825963
20
14.521954
11
41.968826
21
14.474654
0
LINE
8
Image
10
41.968826
20
14.474654
11
41.994832
21
14.255467
0
LINE
8
Image
10
41.994832
20
14.255467
11
41.647005
21
12.837714
0
LINE
8
Image
10
41.647005
20
12.837714
11
41.609733
21
12.429489
0
LINE
8
Image
10
41.609733
20
12.429489
11
41.769811
21
12.276300
0
LINE
8
Image
10
41.769811
20
12.276300
11
41.966586
21
12.400903
0
LINE
8
Image
10
41.966586
20
12.400903
11
42.048430
21
12.700480
0
LINE
8
Image
10
42.048430
20
12.700480
11
42.110809
21
12.974625
0
LINE
8
Image
10
42.110809
20
12.974625
11
42.350298
21
12.822791
0
LINE
8
Image
10
42.350298
20
12.822791
11
42.501629
21
12.434058
0
LINE
8
Image
10
42.501629
20
12.434058
11
42.225542
21
11.798699
0
LINE
8
Image
10
42.225542
20
11.798699
11
41.818339
21
10.858348
0
LINE
8
Image
10
41.818339
20
10.858348
11
41.853126
21
10.613275
0
LINE
8
Image
10
41.853126
20
10.613275
11
42.048430
21
10.529682
0
LINE
8
Image
10
42.048430
20
10.529682
11
42.226880
21
10.657950
0
LINE
8
Image
10
42.226880
20
10.657950
11
42.305536
21
10.966337
0
LINE
8
Image
10
42.305536
20
10.966337
11
42.354687
21
11.260491
0
LINE
8
Image
10
42.354687
20
11.260491
11
42.584078
21
10.936622
0
LINE
8
Image
10
42.584078
20
10.936622
11
42.723024
21
10.524275
0
LINE
8
Image
10
42.723024
20
10.524275
11
42.514112
21
10.254273
0
LINE
8
Image
10
42.514112
20
10.254273
11
39.919794
21
10.038555
0
LINE
8
Image
10
39.919794
20
10.038555
11
37.557123
21
10.109583
0
LINE
8
Image
10
37.557123
20
10.109583
11
37.285285
21
11.659028
0
LINE
8
Image
10
37.285285
20
11.659028
11
36.637110
21
13.791486
0
LINE
8
Image
10
36.637110
20
13.791486
11
35.547376
21
15.657301
0
LINE
8
Image
10
35.547376
20
15.657301
11
34.050004
21
17.211628
0
LINE
8
Image
10
34.050004
20
17.211628
11
32.178915
21
18.409625
0
LINE
8
Image
10
32.178915
20
18.409625
11
30.532258
21
19.020271
0
LINE
8
Image
10
30.532258
20
19.020271
11
28.200235
21
19.136271
0
LINE
8
Image
10
28.200235
20
19.136271
11
25.881275
21
19.019172
0
LINE
8
Image
10
25.881275
20
19.019172
11
24.295686
21
18.422021
0
LINE
8
Image
10
24.295686
20
18.422021
11
22.383356
21
17.127919
0
LINE
8
Image
10
22.383356
20
17.127919
11
20.813350
21
15.418924
0
LINE
8
Image
10
20.813350
20
15.418924
11
19.701446
21
13.453652
0
LINE
8
Image
10
19.701446
20
13.453652
11
19.353462
21
12.424479
0
LINE
8
Image
10
19.353462
20
12.424479
11
19.163419
21
11.390717
0
LINE
8
Image
10
19.163419
20
11.390717
11
19.023047
21
10.030650
0
LINE
8
Image
10
19.023047
20
10.030650
11
16.687544
21
10.030650
0
LINE
8
Image
10
16.687544
20
10.030650
11
14.352040
21
10.171813
0
LINE
8
Image
10
14.352040
20
10.171813
11
14.352043
21
10.171852
0
LINE
8
Image
10
19.841417
20
11.144155
11
19.933925
21
12.053056
0
LINE
8
Image
10
19.933925
20
12.053056
11
20.199024
21
12.998603
0
LINE
8
Image
10
20.199024
20
12.998603
11
21.172465
21
14.888657
0
LINE
8
Image
10
21.172465
20
14.888657
11
22.612668
21
16.592362
0
LINE
8
Image
10
22.612668
20
16.592362
11
24.370564
21
17.887759
0
LINE
8
Image
10
24.370564
20
17.887759
11
25.951160
21
18.485733
0
LINE
8
Image
10
25.951160
20
18.485733
11
27.778252
21
18.757048
0
LINE
8
Image
10
27.778252
20
18.757048
11
29.651236
21
18.690597
0
LINE
8
Image
10
29.651236
20
18.690597
11
31.369511
21
18.275273
0
LINE
8
Image
10
31.369511
20
18.275273
11
32.389011
21
17.802259
0
LINE
8
Image
10
32.389011
20
17.802259
11
33.338862
21
17.187090
0
LINE
8
Image
10
33.338862
20
17.187090
11
34.968858
21
15.606302
0
LINE
8
Image
10
34.968858
20
15.606302
11
36.137986
21
13.684944
0
LINE
8
Image
10
36.137986
20
13.684944
11
36.511751
21
12.644062
0
LINE
8
Image
10
36.511751
20
12.644062
11
36.724732
21
11.575050
0
LINE
8
Image
10
36.724732
20
11.575050
11
36.754893
21
10.647923
0
LINE
8
Image
10
36.754893
20
10.647923
11
36.618685
21
10.275724
0
LINE
8
Image
10
36.618685
20
10.275724
11
36.399793
21
10.494589
0
LINE
8
Image
10
36.399793
20
10.494589
11
36.181900
21
11.340653
0
LINE
8
Image
10
36.181900
20
11.340653
11
35.599303
21
13.257697
0
LINE
8
Image
10
35.599303
20
13.257697
11
34.552279
21
15.026020
0
LINE
8
Image
10
34.552279
20
15.026020
11
33.148914
21
16.502494
0
LINE
8
Image
10
33.148914
20
16.502494
11
31.497296
21
17.543989
0
LINE
8
Image
10
31.497296
20
17.543989
11
29.954784
21
18.016694
0
LINE
8
Image
10
29.954784
20
18.016694
11
28.274427
21
18.163798
0
LINE
8
Image
10
28.274427
20
18.163798
11
26.601499
21
17.986604
0
LINE
8
Image
10
26.601499
20
17.986604
11
25.081275
21
17.486416
0
LINE
8
Image
10
25.081275
20
17.486416
11
23.379863
21
16.402676
0
LINE
8
Image
10
23.379863
20
16.402676
11
21.991315
21
14.953337
0
LINE
8
Image
10
21.991315
20
14.953337
11
20.988195
21
13.234524
0
LINE
8
Image
10
20.988195
20
13.234524
11
20.443070
21
11.342362
0
LINE
8
Image
10
20.443070
20
11.342362
11
20.268331
21
10.602465
0
LINE
8
Image
10
20.268331
20
10.602465
11
20.070483
21
10.309842
0
LINE
8
Image
10
20.070483
20
10.309842
11
19.908515
21
10.483927
0
LINE
8
Image
10
19.908515
20
10.483927
11
19.841417
21
11.144155
0
LINE
8
Image
10
19.841417
20
11.144155
11
19.841417
21
11.144155
0
LINE
8
Image
10
22.381988
20
10.903996
11
22.128855
21
11.327422
0
LINE
8
Image
10
22.128855
20
11.327422
11
21.882871
21
11.503267
0
LINE
8
Image
10
21.882871
20
11.503267
11
21.668578
21
11.426261
0
LINE
8
Image
10
21.668578
20
11.426261
11
21.510518
21
11.091135
0
LINE
8
Image
10
21.510518
20
11.091135
11
21.418099
21
10.930297
0
LINE
8
Image
10
21.418099
20
10.930297
11
21.367464
21
11.300799
0
LINE
8
Image
10
21.367464
20
11.300799
11
21.587168
21
12.378206
0
LINE
8
Image
10
21.587168
20
12.378206
11
22.212156
21
13.689902
0
LINE
8
Image
10
22.212156
20
13.689902
11
23.075166
21
14.947119
0
LINE
8
Image
10
23.075166
20
14.947119
11
24.008933
21
15.861088
0
LINE
8
Image
10
24.008933
20
15.861088
11
25.810487
21
16.882883
0
LINE
8
Image
10
25.810487
20
16.882883
11
26.610896
21
17.139238
0
LINE
8
Image
10
26.610896
20
17.139238
11
27.326929
21
17.218753
0
LINE
8
Image
10
27.326929
20
17.218753
11
27.678164
21
17.182024
0
LINE
8
Image
10
27.678164
20
17.182024
11
27.514066
21
17.094682
0
LINE
8
Image
10
27.514066
20
17.094682
11
27.132065
21
16.831598
0
LINE
8
Image
10
27.132065
20
16.831598
11
27.209411
21
16.472424
0
LINE
8
Image
10
27.209411
20
16.472424
11
27.641818
21
16.155482
0
LINE
8
Image
10
27.641818
20
16.155482
11
28.324997
21
16.019097
0
LINE
8
Image
10
28.324997
20
16.019097
11
29.008175
21
16.155482
0
LINE
8
Image
10
29.008175
20
16.155482
11
29.440581
21
16.472424
0
LINE
8
Image
10
29.440581
20
16.472424
11
29.517927
21
16.831598
0
LINE
8
Image
10
29.517927
20
16.831598
11
29.135928
21
17.094682
0
LINE
8
Image
10
29.135928
20
17.094682
11
28.961260
21
17.187150
0
LINE
8
Image
10
28.961260
20
17.187150
11
29.323064
21
17.235300
0
LINE
8
Image
10
29.323064
20
17.235300
11
30.097179
21
17.084335
0
LINE
8
Image
10
30.097179
20
17.084335
11
31.153949
21
16.690929
0
LINE
8
Image
10
31.153949
20
16.690929
11
32.133435
21
16.209689
0
LINE
8
Image
10
32.133435
20
16.209689
11
32.675696
21
15.795223
0
LINE
8
Image
10
32.675696
20
15.795223
11
33.142926
21
15.530203
0
LINE
8
Image
10
33.142926
20
15.530203
11
33.096268
21
15.763938
0
LINE
8
Image
10
33.096268
20
15.763938
11
32.566786
21
16.311649
0
LINE
8
Image
10
32.566786
20
16.311649
11
32.059954
21
16.799170
0
LINE
8
Image
10
32.059954
20
16.799170
11
31.991337
21
16.902949
0
LINE
8
Image
10
31.991337
20
16.902949
11
32.067753
21
16.888183
0
LINE
8
Image
10
32.067753
20
16.888183
11
33.055785
21
16.125602
0
LINE
8
Image
10
33.055785
20
16.125602
11
33.356905
21
15.733577
0
LINE
8
Image
10
33.356905
20
15.733577
11
33.406263
21
15.465322
0
LINE
8
Image
10
33.406263
20
15.465322
11
33.450819
21
15.142181
0
LINE
8
Image
10
33.450819
20
15.142181
11
33.759042
21
14.690660
0
LINE
8
Image
10
33.759042
20
14.690660
11
34.714232
21
13.196317
0
LINE
8
Image
10
34.714232
20
13.196317
11
35.159739
21
11.469711
0
LINE
8
Image
10
35.159739
20
11.469711
11
35.190108
21
10.886993
0
LINE
8
Image
10
35.190108
20
10.886993
11
35.137567
21
10.981169
0
LINE
8
Image
10
35.137567
20
10.981169
11
34.982346
21
11.352815
0
LINE
8
Image
10
34.982346
20
11.352815
11
34.744241
21
11.446015
0
LINE
8
Image
10
34.744241
20
11.446015
11
34.466374
21
11.267869
0
LINE
8
Image
10
34.466374
20
11.267869
11
34.191871
21
10.825475
0
LINE
8
Image
10
34.191871
20
10.825475
11
33.773323
21
10.386184
0
LINE
8
Image
10
33.773323
20
10.386184
11
32.813070
21
10.280204
0
LINE
8
Image
10
32.813070
20
10.280204
11
32.167490
21
10.302663
0
LINE
8
Image
10
32.167490
20
10.302663
11
31.770458
21
10.427463
0
LINE
8
Image
10
31.770458
20
10.427463
11
31.488463
21
10.740735
0
LINE
8
Image
10
31.488463
20
10.740735
11
31.187999
21
11.328612
0
LINE
8
Image
10
31.187999
20
11.328612
11
30.647478
21
12.222009
0
LINE
8
Image
10
30.647478
20
12.222009
11
29.985500
21
12.866348
0
LINE
8
Image
10
29.985500
20
12.866348
11
29.209024
21
13.256623
0
LINE
8
Image
10
29.209024
20
13.256623
11
28.325010
21
13.387827
0
LINE
8
Image
10
28.325010
20
13.387827
11
27.440996
21
13.256623
0
LINE
8
Image
10
27.440996
20
13.256623
11
26.664519
21
12.866348
0
LINE
8
Image
10
26.664519
20
12.866348
11
26.002541
21
12.222009
0
LINE
8
Image
10
26.002541
20
12.222009
11
25.462021
21
11.328612
0
LINE
8
Image
10
25.462021
20
11.328612
11
25.160983
21
10.739149
0
LINE
8
Image
10
25.160983
20
10.739149
11
24.877763
21
10.426054
0
LINE
8
Image
10
24.877763
20
10.426054
11
24.475625
21
10.302135
0
LINE
8
Image
10
24.475625
20
10.302135
11
23.817833
21
10.280204
0
LINE
8
Image
10
23.817833
20
10.280204
11
22.821351
21
10.391768
0
LINE
8
Image
10
22.821351
20
10.391768
11
22.382001
21
10.903996
0
LINE
8
Image
10
22.382001
20
10.903996
11
22.381988
21
10.903996
0
LINE
8
Image
10
24.219307
20
14.385895
11
24.619881
21
14.884517
0
LINE
8
Image
10
24.619881
20
14.884517
11
24.808105
21
15.328778
0
LINE
8
Image
10
24.808105
20
15.328778
11
24.769980
21
15.647519
0
LINE
8
Image
10
24.769980
20
15.647519
11
24.491507
21
15.769579
0
LINE
8
Image
10
24.491507
20
15.769579
11
24.057972
21
15.576345
0
LINE
8
Image
10
24.057972
20
15.576345
11
23.493439
21
15.111762
0
LINE
8
Image
10
23.493439
20
15.111762
11
23.028856
21
14.547229
0
LINE
8
Image
10
23.028856
20
14.547229
11
22.835622
21
14.113694
0
LINE
8
Image
10
22.835622
20
14.113694
11
22.957682
21
13.835221
0
LINE
8
Image
10
22.957682
20
13.835221
11
23.276423
21
13.797096
0
LINE
8
Image
10
23.276423
20
13.797096
11
23.720684
21
13.985320
0
LINE
8
Image
10
23.720684
20
13.985320
11
24.219307
21
14.385895
0
LINE
8
Image
10
24.219307
20
14.385895
11
24.219307
21
14.385895
0
LINE
8
Image
10
33.814372
20
14.071687
11
33.610313
21
14.509926
0
LINE
8
Image
10
33.610313
20
14.509926
11
33.131171
21
15.074360
0
LINE
8
Image
10
33.131171
20
15.074360
11
32.576493
21
15.561931
0
LINE
8
Image
10
32.576493
20
15.561931
11
32.145829
21
15.769579
0
LINE
8
Image
10
32.145829
20
15.769579
11
31.874992
21
15.646610
0
LINE
8
Image
10
31.874992
20
15.646610
11
31.842206
21
15.326354
0
LINE
8
Image
10
31.842206
20
15.326354
11
32.032446
21
14.881790
0
LINE
8
Image
10
32.032446
20
14.881790
11
32.430687
21
14.385895
0
LINE
8
Image
10
32.430687
20
14.385895
11
32.920042
21
13.993269
0
LINE
8
Image
10
32.920042
20
13.993269
11
33.365333
21
13.798318
0
LINE
8
Image
10
33.365333
20
13.798318
11
33.689222
21
13.818603
0
LINE
8
Image
10
33.689222
20
13.818603
11
33.814372
21
14.071687
0
LINE
8
Image
10
33.814372
20
14.071687
11
33.814372
21
14.071687
0
LINE
8
Image
10
27.389307
20
10.439621
11
27.172815
21
10.636646
0
LINE
8
Image
10
27.172815
20
10.636646
11
27.084638
21
10.917601
0
LINE
8
Image
10
27.084638
20
10.917601
11
27.133202
21
11.169228
0
LINE
8
Image
10
27.133202
20
11.169228
11
27.326929
21
11.278272
0
LINE
8
Image
10
27.326929
20
11.278272
11
27.508936
21
11.443188
0
LINE
8
Image
10
27.508936
20
11.443188
11
27.596144
21
11.839686
0
LINE
8
Image
10
27.596144
20
11.839686
11
27.647021
21
12.144564
0
LINE
8
Image
10
27.647021
20
12.144564
11
27.741697
21
12.089203
0
LINE
8
Image
10
27.741697
20
12.089203
11
28.122969
21
11.777308
0
LINE
8
Image
10
28.122969
20
11.777308
11
28.262601
21
11.883518
0
LINE
8
Image
10
28.262601
20
11.883518
11
28.239642
21
12.138876
0
LINE
8
Image
10
28.239642
20
12.138876
11
28.225654
21
12.375685
0
LINE
8
Image
10
28.225654
20
12.375685
11
28.462463
21
12.361697
0
LINE
8
Image
10
28.462463
20
12.361697
11
28.806770
21
12.054610
0
LINE
8
Image
10
28.806770
20
12.054610
11
28.524611
21
11.577693
0
LINE
8
Image
10
28.524611
20
11.577693
11
28.393268
21
11.340651
0
LINE
8
Image
10
28.393268
20
11.340651
11
28.732542
21
11.278272
0
LINE
8
Image
10
28.732542
20
11.278272
11
29.092955
21
11.169876
0
LINE
8
Image
10
29.092955
20
11.169876
11
29.239893
21
10.903996
0
LINE
8
Image
10
29.239893
20
10.903996
11
29.160489
21
10.638663
0
LINE
8
Image
10
29.160489
20
10.638663
11
28.969582
21
10.526314
0
LINE
8
Image
10
28.969582
20
10.526314
11
28.200238
21
10.415422
0
LINE
8
Image
10
28.200238
20
10.415422
11
27.389307
21
10.439631
0
LINE
8
Image
10
27.389307
20
10.439631
11
27.389307
21
10.439621
0
LINE
8
Image
10
28.324997
20
10.764513
11
28.059331
21
11.157229
0
LINE
8
Image
10
28.059331
20
11.157229
11
27.659618
21
11.195101
0
LINE
8
Image
10
27.659618
20
11.195101
11
27.697489
21
10.795386
0
LINE
8
Image
10
27.697489
20
10.795386
11
28.090206
21
10.529722
0
LINE
8
Image
10
28.090206
20
10.529722
11
28.324997
21
10.764513
0
LINE
8
Image
10
28.324997
20
10.764513
11
28.324997
21
10.764513
0
LINE
8
Image
10
35.600389
20
11.527790
11
35.637358
21
11.876723
0
LINE
8
Image
10
35.637358
20
11.876723
11
35.726240
21
11.839686
0
LINE
8
Image
10
35.726240
20
11.839686
11
35.726240
21
11.215894
0
LINE
8
Image
10
35.726240
20
11.215894
11
35.637358
21
11.178855
0
LINE
8
Image
10
35.637358
20
11.178855
11
35.600389
21
11.527790
0
LINE
8
Image
10
35.600389
20
11.527790
11
35.600389
21
11.527790
0
LINE
8
Image
10
42.950467
20
11.418149
11
42.917893
21
11.793385
0
LINE
8
Image
10
42.917893
20
11.793385
11
43.100430
21
12.061258
0
LINE
8
Image
10
43.100430
20
12.061258
11
43.353361
21
12.137800
0
LINE
8
Image
10
43.353361
20
12.137800
11
43.490915
21
12.019556
0
LINE
8
Image
10
43.490915
20
12.019556
11
43.350853
21
11.385119
0
LINE
8
Image
10
43.350853
20
11.385119
11
43.130215
21
11.108410
0
LINE
8
Image
10
43.130215
20
11.108410
11
42.950467
21
11.418149
0
LINE
8
Image
10
42.950467
20
11.418149
11
42.950467
21
11.418149
0
LINE
8
Image
10
12.854940
20
11.969575
11
12.964884
21
12.366931
0
LINE
8
Image
10
12.964884
20
12.366931
11
13.229216
21
12.616089
0
LINE
8
Image
10
13.229216
20
12.616089
11
13.498277
21
12.624911
0
LINE
8
Image
10
13.498277
20
12.624911
11
13.603492
21
12.423821
0
LINE
8
Image
10
13.603492
20
12.423821
11
13.229216
21
11.777308
0
LINE
8
Image
10
13.229216
20
11.777308
11
12.925216
21
11.619433
0
LINE
8
Image
10
12.925216
20
11.619433
11
12.854940
21
11.969575
0
LINE
8
Image
10
12.854940
20
11.969575
11
12.854940
21
11.969575
0
LINE
8
Image
10
21.096644
20
12.650617
11
21.338519
21
13.274408
0
LINE
8
Image
10
21.338519
20
13.274408
11
21.509344
21
13.465445
0
LINE
8
Image
10
21.509344
20
13.465445
11
21.580395
21
13.399167
0
LINE
8
Image
10
21.580395
20
13.399167
11
21.338519
21
12.775375
0
LINE
8
Image
10
21.338519
20
12.775375
11
21.167695
21
12.584338
0
LINE
8
Image
10
21.167695
20
12.584338
11
21.096644
21
12.650617
0
LINE
8
Image
10
21.096644
20
12.650617
11
21.096644
21
12.650617
0
LINE
8
Image
10
34.848436
20
13.711063
11
34.657128
21
14.219004
0
LINE
8
Image
10
34.657128
20
14.219004
11
34.933142
21
13.912889
0
LINE
8
Image
10
34.933142
20
13.912889
11
35.311472
21
13.226720
0
LINE
8
Image
10
35.311472
20
13.226720
11
35.280436
21
13.045860
0
LINE
8
Image
10
35.280436
20
13.045860
11
35.190122
21
13.069222
0
LINE
8
Image
10
35.190122
20
13.069222
11
34.848436
21
13.711063
0
LINE
8
Image
10
34.848436
20
13.711063
11
34.848436
21
13.711063
0
LINE
8
Image
10
42.686885
20
13.250691
11
42.641679
21
13.569719
0
LINE
8
Image
10
42.641679
20
13.569719
11
42.766699
21
13.958604
0
LINE
8
Image
10
42.766699
20
13.958604
11
43.002608
21
14.268455
0
LINE
8
Image
10
43.002608
20
14.268455
11
43.187611
21
13.943814
0
LINE
8
Image
10
43.187611
20
13.943814
11
43.231701
21
13.554621
0
LINE
8
Image
10
43.231701
20
13.554621
11
43.112634
21
13.239731
0
LINE
8
Image
10
43.112634
20
13.239731
11
42.905874
21
13.103603
0
LINE
8
Image
10
42.905874
20
13.103603
11
42.686885
21
13.250696
0
LINE
8
Image
10
42.686885
20
13.250696
11
42.686885
21
13.250691
0
LINE
8
Image
10
13.353975
20
13.989206
11
13.463918
21
14.306746
0
LINE
8
Image
10
13.463918
20
14.306746
11
13.728250
21
14.438822
0
LINE
8
Image
10
13.728250
20
14.438822
11
13.992582
21
14.348936
0
LINE
8
Image
10
13.992582
20
14.348936
11
14.102526
21
14.132826
0
LINE
8
Image
10
14.102526
20
14.132826
11
13.992582
21
13.874530
0
LINE
8
Image
10
13.992582
20
13.874530
11
13.728250
21
13.683210
0
LINE
8
Image
10
13.728250
20
13.683210
11
13.448354
21
13.689179
0
LINE
8
Image
10
13.448354
20
13.689179
11
13.353975
21
13.989206
0
LINE
8
Image
10
13.353975
20
13.989206
11
13.353975
21
13.989206
0
LINE
8
Image
10
21.830116
20
14.258580
11
22.363811
21
14.913095
0
LINE
8
Image
10
22.363811
20
14.913095
11
22.431388
21
14.840453
0
LINE
8
Image
10
22.431388
20
14.840453
11
22.209014
21
14.427956
0
LINE
8
Image
10
22.209014
20
14.427956
11
21.690089
21
13.791751
0
LINE
8
Image
10
21.690089
20
13.791751
11
21.830116
21
14.258580
0
LINE
8
Image
10
21.830116
20
14.258580
11
21.830116
21
14.258580
0
LINE
8
Image
10
34.032060
20
14.958648
11
33.814371
21
15.270545
0
LINE
8
Image
10
33.814371
20
15.270545
11
34.126267
21
15.052856
0
LINE
8
Image
10
34.126267
20
15.052856
11
34.530364
21
14.665189
0
LINE
8
Image
10
34.530364
20
14.665189
11
34.468717
21
14.521994
0
LINE
8
Image
10
34.468717
20
14.521994
11
34.032060
21
14.958648
0
LINE
8
Image
10
34.032060
20
14.958648
11
34.032060
21
14.958648
0
LINE
8
Image
10
42.085710
20
15.100870
11
41.927106
21
15.440443
0
LINE
8
Image
10
41.927106
20
15.440443
11
42.140976
21
15.742843
0
LINE
8
Image
10
42.140976
20
15.742843
11
42.443183
21
15.898542
0
LINE
8
Image
10
42.443183
20
15.898542
11
42.620001
21
15.690943
0
LINE
8
Image
10
42.620001
20
15.690943
11
42.676506
21
15.302345
0
LINE
8
Image
10
42.676506
20
15.302345
11
42.564088
21
15.027856
0
LINE
8
Image
10
42.564088
20
15.027856
11
42.346053
21
14.937391
0
LINE
8
Image
10
42.346053
20
14.937391
11
42.085710
21
15.100870
0
LINE
8
Image
10
42.085710
20
15.100870
11
42.085710
21
15.100870
0
LINE
8
Image
10
44.314157
20
15.121613
11
43.807158
21
16.226411
0
LINE
8
Image
10
43.807158
20
16.226411
11
43.714742
21
16.852160
0
LINE
8
Image
10
43.714742
20
16.852160
11
43.962807
21
17.123903
0
LINE
8
Image
10
43.962807
20
17.123903
11
44.600070
21
17.223877
0
LINE
8
Image
10
44.600070
20
17.223877
11
44.425941
21
16.688746
0
LINE
8
Image
10
44.425941
20
16.688746
11
44.172782
21
16.126743
0
LINE
8
Image
10
44.172782
20
16.126743
11
44.420200
21
15.628300
0
LINE
8
Image
10
44.420200
20
15.628300
11
44.790686
21
15.274815
0
LINE
8
Image
10
44.790686
20
15.274815
11
45.148234
21
15.603932
0
LINE
8
Image
10
45.148234
20
15.603932
11
45.373527
21
16.157811
0
LINE
8
Image
10
45.373527
20
16.157811
11
45.370600
21
16.880031
0
LINE
8
Image
10
45.370600
20
16.880031
11
45.373264
21
17.592137
0
LINE
8
Image
10
45.373264
20
17.592137
11
45.929328
21
17.871554
0
LINE
8
Image
10
45.929328
20
17.871554
11
46.533235
21
17.883587
0
LINE
8
Image
10
46.533235
20
17.883587
11
47.035960
21
17.620127
0
LINE
8
Image
10
47.035960
20
17.620127
11
47.399322
21
17.115057
0
LINE
8
Image
10
47.399322
20
17.115057
11
47.585139
21
16.402258
0
LINE
8
Image
10
47.585139
20
16.402258
11
47.542551
21
15.796707
0
LINE
8
Image
10
47.542551
20
15.796707
11
47.163542
21
15.567110
0
LINE
8
Image
10
47.163542
20
15.567110
11
46.823988
21
15.554064
0
LINE
8
Image
10
46.823988
20
15.554064
11
46.976405
21
15.795281
0
LINE
8
Image
10
46.976405
20
15.795281
11
47.212057
21
16.175371
0
LINE
8
Image
10
47.212057
20
16.175371
11
47.275465
21
16.588877
0
LINE
8
Image
10
47.275465
20
16.588877
11
47.171058
21
16.951915
0
LINE
8
Image
10
47.171058
20
16.951915
11
46.903263
21
17.180598
0
LINE
8
Image
10
46.903263
20
17.180598
11
46.574634
21
17.249783
0
LINE
8
Image
10
46.574634
20
17.249783
11
46.360015
21
17.124325
0
LINE
8
Image
10
46.360015
20
17.124325
11
46.149115
21
16.114646
0
LINE
8
Image
10
46.149115
20
16.114646
11
45.917181
21
15.312853
0
LINE
8
Image
10
45.917181
20
15.312853
11
45.452468
21
14.835938
0
LINE
8
Image
10
45.452468
20
14.835938
11
44.877342
21
14.750121
0
LINE
8
Image
10
44.877342
20
14.750121
11
44.314168
21
15.121623
0
LINE
8
Image
10
44.314168
20
15.121623
11
44.314157
21
15.121613
0
LINE
8
Image
10
13.900126
20
15.705209
11
14.086176
21
16.035445
0
LINE
8
Image
10
14.086176
20
16.035445
11
14.416412
21
16.221495
0
LINE
8
Image
10
14.416412
20
16.221495
11
14.710117
21
16.194560
0
LINE
8
Image
10
14.710117
20
16.194560
11
14.706151
21
15.931758
0
LINE
8
Image
10
14.706151
20
15.931758
11
14.474580
21
15.583858
0
LINE
8
Image
10
14.474580
20
15.583858
11
14.183654
21
15.407818
0
LINE
8
Image
10
14.183654
20
15.407818
11
13.952470
21
15.437110
0
LINE
8
Image
10
13.952470
20
15.437110
11
13.900126
21
15.705209
0
LINE
8
Image
10
13.900126
20
15.705209
11
13.900126
21
15.705209
0
LINE
8
Image
10
23.692106
20
16.241389
11
24.328689
21
16.761337
0
LINE
8
Image
10
24.328689
20
16.761337
11
24.831758
21
16.929882
0
LINE
8
Image
10
24.831758
20
16.929882
11
24.177244
21
16.396186
0
LINE
8
Image
10
24.177244
20
16.396186
11
23.764748
21
16.173813
0
LINE
8
Image
10
23.764748
20
16.173813
11
23.692106
21
16.241389
0
LINE
8
Image
10
23.692106
20
16.241389
11
23.692106
21
16.241389
0
LINE
8
Image
10
41.367893
20
16.799442
11
41.225982
21
17.072398
0
LINE
8
Image
10
41.225982
20
17.072398
11
41.221434
21
17.391002
0
LINE
8
Image
10
41.221434
20
17.391002
11
41.335492
21
17.655394
0
LINE
8
Image
10
41.335492
20
17.655394
11
41.549400
21
17.765715
0
LINE
8
Image
10
41.549400
20
17.765715
11
41.745617
21
17.662162
0
LINE
8
Image
10
41.745617
20
17.662162
11
41.873604
21
17.409830
0
LINE
8
Image
10
41.873604
20
17.409830
11
41.824344
21
16.808790
0
LINE
8
Image
10
41.824344
20
16.808790
11
41.623892
21
16.647764
0
LINE
8
Image
10
41.623892
20
16.647764
11
41.367893
21
16.799450
0
LINE
8
Image
10
41.367893
20
16.799450
11
41.367893
21
16.799442
0
LINE
8
Image
10
14.605381
20
17.227662
11
14.827921
21
17.673201
0
LINE
8
Image
10
14.827921
20
17.673201
11
15.287732
21
17.952852
0
LINE
8
Image
10
15.287732
20
17.952852
11
15.554826
21
17.898221
0
LINE
8
Image
10
15.554826
20
17.898221
11
15.590872
21
17.665259
0
LINE
8
Image
10
15.590872
20
17.665259
11
15.428563
21
17.386477
0
LINE
8
Image
10
15.428563
20
17.386477
11
15.100594
21
17.194385
0
LINE
8
Image
10
15.100594
20
17.194385
11
14.605381
21
17.227662
0
LINE
8
Image
10
14.605381
20
17.227662
11
14.605381
21
17.227662
0
LINE
8
Image
10
42.696309
20
18.763783
11
42.190594
21
19.825469
0
LINE
8
Image
10
42.190594
20
19.825469
11
42.251295
21
19.980643
0
LINE
8
Image
10
42.251295
20
19.980643
11
42.501343
21
20.011369
0
LINE
8
Image
10
42.501343
20
20.011369
11
42.934451
21
20.121313
0
LINE
8
Image
10
42.934451
20
20.121313
11
43.296018
21
20.385645
0
LINE
8
Image
10
43.296018
20
20.385645
11
43.950364
21
20.759919
0
LINE
8
Image
10
43.950364
20
20.759919
11
44.778172
21
21.244005
0
LINE
8
Image
10
44.778172
20
21.244005
11
45.067051
21
21.502791
0
LINE
8
Image
10
45.067051
20
21.502791
11
45.283805
21
21.522500
0
LINE
8
Image
10
45.283805
20
21.522500
11
45.913564
21
20.616719
0
LINE
8
Image
10
45.913564
20
20.616719
11
46.400961
21
19.429219
0
LINE
8
Image
10
46.400961
20
19.429219
11
46.330506
21
19.119163
0
LINE
8
Image
10
46.330506
20
19.119163
11
46.049340
21
19.013301
0
LINE
8
Image
10
46.049340
20
19.013301
11
45.934899
21
19.146688
0
LINE
8
Image
10
45.934899
20
19.146688
11
45.956654
21
19.467386
0
LINE
8
Image
10
45.956654
20
19.467386
11
45.927431
21
19.870936
0
LINE
8
Image
10
45.927431
20
19.870936
11
45.693252
21
20.223020
0
LINE
8
Image
10
45.693252
20
20.223020
11
45.347470
21
20.433143
0
LINE
8
Image
10
45.347470
20
20.433143
11
44.983436
21
20.410812
0
LINE
8
Image
10
44.983436
20
20.410812
11
43.856203
21
19.741469
0
LINE
8
Image
10
43.856203
20
19.741469
11
43.266498
21
19.121438
0
LINE
8
Image
10
43.266498
20
19.121438
11
43.226162
21
18.572688
0
LINE
8
Image
10
43.226162
20
18.572688
11
43.747040
21
18.117190
0
LINE
8
Image
10
43.747040
20
18.117190
11
44.142256
21
17.853983
0
LINE
8
Image
10
44.142256
20
17.853983
11
43.913769
21
17.673164
0
LINE
8
Image
10
43.913769
20
17.673164
11
43.440025
21
17.516197
0
LINE
8
Image
10
43.440025
20
17.516197
11
42.696309
21
18.763783
0
LINE
8
Image
10
42.696309
20
18.763783
11
42.696309
21
18.763783
0
LINE
8
Image
10
8.705871
20
18.259258
11
7.913037
21
18.707454
0
LINE
8
Image
10
7.913037
20
18.707454
11
7.336924
21
19.245931
0
LINE
8
Image
10
7.336924
20
19.245931
11
6.985450
21
19.864807
0
LINE
8
Image
10
6.985450
20
19.864807
11
6.866532
21
20.554203
0
LINE
8
Image
10
6.866532
20
20.554203
11
6.866532
21
21.235515
0
LINE
8
Image
10
6.866532
20
21.235515
11
8.363634
21
20.241111
0
LINE
8
Image
10
8.363634
20
20.241111
11
9.588473
21
19.292885
0
LINE
8
Image
10
9.588473
20
19.292885
11
9.805422
21
18.923685
0
LINE
8
Image
10
9.805422
20
18.923685
11
9.860736
21
18.506211
0
LINE
8
Image
10
9.860736
20
18.506211
11
9.798357
21
17.783342
0
LINE
8
Image
10
9.798357
20
17.783342
11
8.705871
21
18.259258
0
LINE
8
Image
10
8.705871
20
18.259258
11
8.705871
21
18.259258
0
LINE
8
Image
10
40.391664
20
18.465058
11
40.248511
21
18.723295
0
LINE
8
Image
10
40.248511
20
18.723295
11
40.285244
21
19.099870
0
LINE
8
Image
10
40.285244
20
19.099870
11
40.472787
21
19.409605
0
LINE
8
Image
10
40.472787
20
19.409605
11
40.735947
21
19.216260
0
LINE
8
Image
10
40.735947
20
19.216260
11
40.878852
21
18.893542
0
LINE
8
Image
10
40.878852
20
18.893542
11
40.838538
21
18.594070
0
LINE
8
Image
10
40.838538
20
18.594070
11
40.660858
21
18.417892
0
LINE
8
Image
10
40.660858
20
18.417892
11
40.391664
21
18.465058
0
LINE
8
Image
10
40.391664
20
18.465058
11
40.391664
21
18.465058
0
LINE
8
Image
10
15.751957
20
19.119933
11
15.970530
21
19.391625
0
LINE
8
Image
10
15.970530
20
19.391625
11
16.267355
21
19.505203
0
LINE
8
Image
10
16.267355
20
19.505203
11
16.502350
21
19.446272
0
LINE
8
Image
10
16.502350
20
19.446272
11
16.535433
21
19.200438
0
LINE
8
Image
10
16.535433
20
19.200438
11
16.340153
21
18.956513
0
LINE
8
Image
10
16.340153
20
18.956513
11
16.016481
21
18.808035
0
LINE
8
Image
10
16.016481
20
18.808035
11
15.736290
21
18.840316
0
LINE
8
Image
10
15.736290
20
18.840316
11
15.751957
21
19.119933
0
LINE
8
Image
10
15.751957
20
19.119933
11
15.751957
21
19.119933
0
LINE
8
Image
10
44.197810
20
19.371821
11
44.398429
21
19.585326
0
LINE
8
Image
10
44.398429
20
19.585326
11
44.687579
21
19.595193
0
LINE
8
Image
10
44.687579
20
19.595193
11
44.892300
21
19.436058
0
LINE
8
Image
10
44.892300
20
19.436058
11
44.894509
21
19.243612
0
LINE
8
Image
10
44.894509
20
19.243612
11
44.724345
21
19.081483
0
LINE
8
Image
10
44.724345
20
19.081483
11
44.411950
21
19.013301
0
LINE
8
Image
10
44.411950
20
19.013301
11
44.198843
21
19.114866
0
LINE
8
Image
10
44.198843
20
19.114866
11
44.197810
21
19.371821
0
LINE
8
Image
10
44.197810
20
19.371821
11
44.197810
21
19.371821
0
LINE
8
Image
10
39.168873
20
20.072508
11
39.104489
21
20.791314
0
LINE
8
Image
10
39.104489
20
20.791314
11
39.254249
21
20.883288
0
LINE
8
Image
10
39.254249
20
20.883288
11
39.485732
21
20.716533
0
LINE
8
Image
10
39.485732
20
20.716533
11
39.637986
21
20.365894
0
LINE
8
Image
10
39.637986
20
20.365894
11
39.552412
21
20.009993
0
LINE
8
Image
10
39.552412
20
20.009993
11
39.341628
21
19.794373
0
LINE
8
Image
10
39.341628
20
19.794373
11
39.168873
21
20.072508
0
LINE
8
Image
10
39.168873
20
20.072508
11
39.168873
21
20.072508
0
LINE
8
Image
10
16.909466
20
20.572782
11
17.135391
21
20.801075
0
LINE
8
Image
10
17.135391
20
20.801075
11
17.532755
21
20.911969
0
LINE
8
Image
10
17.532755
20
20.911969
11
17.887621
21
20.846404
0
LINE
8
Image
10
17.887621
20
20.846404
11
17.922048
21
20.600071
0
LINE
8
Image
10
17.922048
20
20.600071
11
17.674422
21
20.354842
0
LINE
8
Image
10
17.674422
20
20.354842
11
17.300664
21
20.265251
0
LINE
8
Image
10
17.300664
20
20.265251
11
16.984451
21
20.336247
0
LINE
8
Image
10
16.984451
20
20.336247
11
16.909466
21
20.572782
0
LINE
8
Image
10
16.909466
20
20.572782
11
16.909466
21
20.572782
0
LINE
8
Image
10
41.375995
20
20.921473
11
41.349269
21
21.436135
0
LINE
8
Image
10
41.349269
20
21.436135
11
41.506524
21
22.096264
0
LINE
8
Image
10
41.506524
20
22.096264
11
41.656504
21
22.721248
0
LINE
8
Image
10
41.656504
20
22.721248
11
41.557914
21
23.096864
0
LINE
8
Image
10
41.557914
20
23.096864
11
41.274519
21
23.175228
0
LINE
8
Image
10
41.274519
20
23.175228
11
40.942519
21
23.016268
0
LINE
8
Image
10
40.942519
20
23.016268
11
40.666571
21
22.701529
0
LINE
8
Image
10
40.666571
20
22.701529
11
40.551332
21
22.312555
0
LINE
8
Image
10
40.551332
20
22.312555
11
40.458633
21
22.085085
0
LINE
8
Image
10
40.458633
20
22.085085
11
40.052297
21
22.381781
0
LINE
8
Image
10
40.052297
20
22.381781
11
39.574070
21
23.011294
0
LINE
8
Image
10
39.574070
20
23.011294
11
39.621716
21
23.190957
0
LINE
8
Image
10
39.621716
20
23.190957
11
39.865969
21
23.255090
0
LINE
8
Image
10
39.865969
20
23.255090
11
40.294356
21
23.474977
0
LINE
8
Image
10
40.294356
20
23.474977
11
40.885188
21
24.003640
0
LINE
8
Image
10
40.885188
20
24.003640
11
41.820066
21
24.752193
0
LINE
8
Image
10
41.820066
20
24.752193
11
41.981350
21
24.875849
0
LINE
8
Image
10
41.981350
20
24.875849
11
42.048433
21
25.173150
0
LINE
8
Image
10
42.048433
20
25.173150
11
42.082873
21
25.344925
0
LINE
8
Image
10
42.082873
20
25.344925
11
42.202415
21
25.359657
0
LINE
8
Image
10
42.202415
20
25.359657
11
42.794112
21
24.879701
0
LINE
8
Image
10
42.794112
20
24.879701
11
43.688114
21
23.697976
0
LINE
8
Image
10
43.688114
20
23.697976
11
43.688921
21
23.154914
0
LINE
8
Image
10
43.688921
20
23.154914
11
43.438897
21
22.626447
0
LINE
8
Image
10
43.438897
20
22.626447
11
43.038949
21
22.252653
0
LINE
8
Image
10
43.038949
20
22.252653
11
42.589986
21
22.173607
0
LINE
8
Image
10
42.589986
20
22.173607
11
42.190774
21
22.135063
0
LINE
8
Image
10
42.190774
20
22.135063
11
41.964404
21
21.715725
0
LINE
8
Image
10
41.964404
20
21.715725
11
41.928403
21
21.280436
0
LINE
8
Image
10
41.928403
20
21.280436
11
42.056354
21
21.050505
0
LINE
8
Image
10
42.056354
20
21.050505
11
42.184847
21
20.923809
0
LINE
8
Image
10
42.184847
20
20.923809
11
42.155760
21
20.742850
0
LINE
8
Image
10
42.155760
20
20.742850
11
41.776359
21
20.510404
0
LINE
8
Image
10
41.776359
20
20.510404
11
41.375995
21
20.921473
0
LINE
8
Image
10
41.375995
20
20.921473
11
41.375995
21
20.921473
0
LINE
8
Image
10
43.296018
20
23.611449
11
43.165803
21
23.946838
0
LINE
8
Image
10
43.165803
20
23.946838
11
42.840428
21
24.106304
0
LINE
8
Image
10
42.840428
20
24.106304
11
42.417797
21
24.073296
0
LINE
8
Image
10
42.417797
20
24.073296
11
41.995812
21
23.831262
0
LINE
8
Image
10
41.995812
20
23.831262
11
41.651502
21
23.415705
0
LINE
8
Image
10
41.651502
20
23.415705
11
41.941607
21
23.086363
0
LINE
8
Image
10
41.941607
20
23.086363
11
42.361152
21
22.938828
0
LINE
8
Image
10
42.361152
20
22.938828
11
42.803629
21
23.006976
0
LINE
8
Image
10
42.803629
20
23.006976
11
43.153698
21
23.246088
0
LINE
8
Image
10
43.153698
20
23.246088
11
43.296018
21
23.611449
0
LINE
8
Image
10
43.296018
20
23.611449
11
43.296018
21
23.611449
0
LINE
8
Image
10
37.931402
20
21.200397
11
37.648338
21
21.813716
0
LINE
8
Image
10
37.648338
20
21.813716
11
37.713973
21
22.107987
0
LINE
8
Image
10
37.713973
20
22.107987
11
38.075703
21
21.997048
0
LINE
8
Image
10
38.075703
20
21.997048
11
38.365553
21
21.715261
0
LINE
8
Image
10
38.365553
20
21.715261
11
38.394449
21
21.379906
0
LINE
8
Image
10
38.394449
20
21.379906
11
38.222974
21
21.040598
0
LINE
8
Image
10
38.222974
20
21.040598
11
37.931402
21
21.200397
0
LINE
8
Image
10
37.931402
20
21.200397
11
37.931402
21
21.200397
0
LINE
8
Image
10
18.365276
20
21.908003
11
18.691030
21
22.120215
0
LINE
8
Image
10
18.691030
20
22.120215
11
19.106537
21
22.187387
0
LINE
8
Image
10
19.106537
20
22.187387
11
19.383865
21
22.088000
0
LINE
8
Image
10
19.383865
20
22.088000
11
19.345697
21
21.910369
0
LINE
8
Image
10
19.345697
20
21.910369
11
18.602047
21
21.629238
0
LINE
8
Image
10
18.602047
20
21.629238
11
18.269018
21
21.669200
0
LINE
8
Image
10
18.269018
20
21.669200
11
18.365276
21
21.908003
0
LINE
8
Image
10
18.365276
20
21.908003
11
18.365276
21
21.908003
0
LINE
8
Image
10
16.415560
20
22.779891
11
16.061118
21
23.358879
0
LINE
8
Image
10
16.061118
20
23.358879
11
15.613893
21
23.678097
0
LINE
8
Image
10
15.613893
20
23.678097
11
15.251375
21
23.862932
0
LINE
8
Image
10
15.251375
20
23.862932
11
15.100594
21
24.118829
0
LINE
8
Image
10
15.100594
20
24.118829
11
14.595664
21
24.882286
0
LINE
8
Image
10
14.595664
20
24.882286
11
14.117228
21
25.161774
0
LINE
8
Image
10
14.117228
20
25.161774
11
13.781159
21
25.088172
0
LINE
8
Image
10
13.781159
20
25.088172
11
13.654557
21
24.724847
0
LINE
8
Image
10
13.654557
20
24.724847
11
13.804524
21
24.135167
0
LINE
8
Image
10
13.804524
20
24.135167
11
13.959055
21
23.690375
0
LINE
8
Image
10
13.959055
20
23.690375
11
13.896194
21
23.534359
0
LINE
8
Image
10
13.896194
20
23.534359
11
13.179082
21
24.092778
0
LINE
8
Image
10
13.179082
20
24.092778
11
12.629914
21
24.672326
0
LINE
8
Image
10
12.629914
20
24.672326
11
13.678116
21
25.661787
0
LINE
8
Image
10
13.678116
20
25.661787
11
15.344499
21
27.085108
0
LINE
8
Image
10
15.344499
20
27.085108
11
15.735779
21
27.131367
0
LINE
8
Image
10
15.735779
20
27.131367
11
16.103342
21
26.868852
0
LINE
8
Image
10
16.103342
20
26.868852
11
16.597696
21
26.160719
0
LINE
8
Image
10
16.597696
20
26.160719
11
16.516814
21
26.051289
0
LINE
8
Image
10
16.516814
20
26.051289
11
16.298275
21
26.199391
0
LINE
8
Image
10
16.298275
20
26.199391
11
15.532370
21
26.498811
0
LINE
8
Image
10
15.532370
20
26.498811
11
15.190097
21
26.329514
0
LINE
8
Image
10
15.190097
20
26.329514
11
15.139148
21
25.933257
0
LINE
8
Image
10
15.139148
20
25.933257
11
15.348409
21
25.477494
0
LINE
8
Image
10
15.348409
20
25.477494
11
15.786766
21
25.129679
0
LINE
8
Image
10
15.786766
20
25.129679
11
16.183264
21
24.874524
0
LINE
8
Image
10
16.183264
20
24.874524
11
16.348179
21
24.606940
0
LINE
8
Image
10
16.348179
20
24.606940
11
16.476769
21
24.287050
0
LINE
8
Image
10
16.476769
20
24.287050
11
16.801777
21
23.938497
0
LINE
8
Image
10
16.801777
20
23.938497
11
17.676492
21
23.467987
0
LINE
8
Image
10
17.676492
20
23.467987
11
17.891771
21
23.399022
0
LINE
8
Image
10
17.891771
20
23.399022
11
17.930497
21
23.277728
0
LINE
8
Image
10
17.930497
20
23.277728
11
17.417711
21
22.697884
0
LINE
8
Image
10
17.417711
20
22.697884
11
16.703928
21
22.015918
0
LINE
8
Image
10
16.703928
20
22.015918
11
16.415560
21
22.779891
0
LINE
8
Image
10
36.232091
20
22.775764
11
36.208276
21
23.149672
0
LINE
8
Image
10
36.208276
20
23.149672
11
36.472912
21
23.150037
0
LINE
8
Image
10
36.472912
20
23.150037
11
36.945910
21
23.005570
0
LINE
8
Image
10
36.945910
20
23.005570
11
36.898809
21
22.631296
0
LINE
8
Image
10
36.898809
20
22.631296
11
36.731232
21
22.344797
0
LINE
8
Image
10
36.731232
20
22.344797
11
36.548865
21
22.276710
0
LINE
8
Image
10
36.548865
20
22.276710
11
36.232091
21
22.775764
0
LINE
8
Image
10
36.232091
20
22.775764
11
36.232091
21
22.775764
0
LINE
8
Image
10
19.971741
20
22.745199
11
19.616976
21
22.941602
0
LINE
8
Image
10
19.616976
20
22.941602
11
20.018978
21
23.216577
0
LINE
8
Image
10
20.018978
20
23.216577
11
20.473410
21
23.376002
0
LINE
8
Image
10
20.473410
20
23.376002
11
20.727747
21
23.234013
0
LINE
8
Image
10
20.727747
20
23.234013
11
20.794682
21
22.956778
0
LINE
8
Image
10
20.794682
20
22.956778
11
20.654532
21
22.759321
0
LINE
8
Image
10
20.654532
20
22.759321
11
20.361988
21
22.677004
0
LINE
8
Image
10
20.361988
20
22.677004
11
19.971741
21
22.745191
0
LINE
8
Image
10
19.971741
20
22.745191
11
19.971741
21
22.745199
0
LINE
8
Image
10
34.490624
20
23.754123
11
34.502249
21
24.220527
0
LINE
8
Image
10
34.502249
20
24.220527
11
34.937198
21
24.062198
0
LINE
8
Image
10
34.937198
20
24.062198
11
35.241628
21
23.550727
0
LINE
8
Image
10
35.241628
20
23.550727
11
35.177703
21
23.340730
0
LINE
8
Image
10
35.177703
20
23.340730
11
34.966300
21
23.255087
0
LINE
8
Image
10
34.966300
20
23.255087
11
34.684186
21
23.401679
0
LINE
8
Image
10
34.684186
20
23.401679
11
34.490624
21
23.754123
0
LINE
8
Image
10
34.490624
20
23.754123
11
34.490624
21
23.754123
0
LINE
8
Image
10
38.430437
20
23.754123
11
38.123458
21
24.168811
0
LINE
8
Image
10
38.123458
20
24.168811
11
38.382984
21
24.253155
0
LINE
8
Image
10
38.382984
20
24.253155
11
38.754218
21
24.413453
0
LINE
8
Image
10
38.754218
20
24.413453
11
39.079200
21
24.798850
0
LINE
8
Image
10
39.079200
20
24.798850
11
39.842652
21
25.850538
0
LINE
8
Image
10
39.842652
20
25.850538
11
40.139434
21
26.302087
0
LINE
8
Image
10
40.139434
20
26.302087
11
40.191007
21
26.677185
0
LINE
8
Image
10
40.191007
20
26.677185
11
40.138250
21
26.921005
0
LINE
8
Image
10
40.138250
20
26.921005
11
40.246164
21
26.973987
0
LINE
8
Image
10
40.246164
20
26.973987
11
40.982280
21
26.498809
0
LINE
8
Image
10
40.982280
20
26.498809
11
41.388482
21
26.108478
0
LINE
8
Image
10
41.388482
20
26.108478
11
41.203423
21
25.999776
0
LINE
8
Image
10
41.203423
20
25.999776
11
40.822629
21
25.798213
0
LINE
8
Image
10
40.822629
20
25.798213
11
40.487443
21
25.313604
0
LINE
8
Image
10
40.487443
20
25.313604
11
39.744243
21
24.301386
0
LINE
8
Image
10
39.744243
20
24.301386
11
39.433142
21
23.965330
0
LINE
8
Image
10
39.433142
20
23.965330
11
39.303746
21
23.615214
0
LINE
8
Image
10
39.303746
20
23.615214
11
39.242074
21
23.342070
0
LINE
8
Image
10
39.242074
20
23.342070
11
39.066510
21
23.275677
0
LINE
8
Image
10
39.066510
20
23.275677
11
38.430437
21
23.754123
0
LINE
8
Image
10
38.430437
20
23.754123
11
38.430437
21
23.754123
0
LINE
8
Image
10
21.595029
20
23.744518
11
21.366893
21
23.964033
0
LINE
8
Image
10
21.366893
20
23.964033
11
21.645460
21
24.137083
0
LINE
8
Image
10
21.645460
20
24.137083
11
22.309974
21
24.132517
0
LINE
8
Image
10
22.309974
20
24.132517
11
22.480833
21
23.966174
0
LINE
8
Image
10
22.480833
20
23.966174
11
22.450690
21
23.736877
0
LINE
8
Image
10
22.450690
20
23.736877
11
22.131140
21
23.520820
0
LINE
8
Image
10
22.131140
20
23.520820
11
21.595029
21
23.744524
0
LINE
8
Image
10
21.595029
20
23.744524
11
21.595029
21
23.744518
0
LINE
8
Image
10
23.406837
20
24.386746
11
23.248539
21
24.671767
0
LINE
8
Image
10
23.248539
20
24.671767
11
23.493046
21
24.855325
0
LINE
8
Image
10
23.493046
20
24.855325
11
24.070192
21
24.869532
0
LINE
8
Image
10
24.070192
20
24.869532
11
24.332724
21
24.514640
0
LINE
8
Image
10
24.332724
20
24.514640
11
24.231296
21
24.291574
0
LINE
8
Image
10
24.231296
20
24.291574
11
23.985093
21
24.187881
0
LINE
8
Image
10
23.985093
20
24.187881
11
23.681233
21
24.215593
0
LINE
8
Image
10
23.681233
20
24.215593
11
23.406837
21
24.386746
0
LINE
8
Image
10
23.406837
20
24.386746
11
23.406837
21
24.386746
0
LINE
8
Image
10
32.726070
20
24.377909
11
32.732039
21
24.657806
0
LINE
8
Image
10
32.732039
20
24.657806
11
33.032066
21
24.752185
0
LINE
8
Image
10
33.032066
20
24.752185
11
33.349607
21
24.642241
0
LINE
8
Image
10
33.349607
20
24.642241
11
33.481682
21
24.377909
0
LINE
8
Image
10
33.481682
20
24.377909
11
33.391796
21
24.113577
0
LINE
8
Image
10
33.391796
20
24.113577
11
33.175687
21
24.003632
0
LINE
8
Image
10
33.175687
20
24.003632
11
32.917390
21
24.113577
0
LINE
8
Image
10
32.917390
20
24.113577
11
32.726070
21
24.377909
0
LINE
8
Image
10
32.726070
20
24.377909
11
32.726070
21
24.377909
0
LINE
8
Image
10
19.092866
20
24.718790
11
18.982923
21
25.179587
0
LINE
8
Image
10
18.982923
20
25.179587
11
18.718591
21
25.589850
0
LINE
8
Image
10
18.718591
20
25.589850
11
18.344315
21
26.231464
0
LINE
8
Image
10
18.344315
20
26.231464
11
17.858965
21
26.984155
0
LINE
8
Image
10
17.858965
20
26.984155
11
17.599625
21
27.273626
0
LINE
8
Image
10
17.599625
20
27.273626
11
17.582586
21
27.489056
0
LINE
8
Image
10
17.582586
20
27.489056
11
18.514185
21
28.106981
0
LINE
8
Image
10
18.514185
20
28.106981
11
19.654983
21
28.697415
0
LINE
8
Image
10
19.654983
20
28.697415
11
19.815803
21
28.648075
0
LINE
8
Image
10
19.815803
20
28.648075
11
19.914276
21
28.415456
0
LINE
8
Image
10
19.914276
20
28.415456
11
19.874935
21
28.177460
0
LINE
8
Image
10
19.874935
20
28.177460
11
19.537003
21
28.103560
0
LINE
8
Image
10
19.537003
20
28.103560
11
19.037579
21
27.989894
0
LINE
8
Image
10
19.037579
20
27.989894
11
18.732300
21
27.674904
0
LINE
8
Image
10
18.732300
20
27.674904
11
18.670319
21
27.256718
0
LINE
8
Image
10
18.670319
20
27.256718
11
18.900790
21
26.833461
0
LINE
8
Image
10
18.900790
20
26.833461
11
19.286523
21
26.537358
0
LINE
8
Image
10
19.286523
20
26.537358
11
19.492697
21
26.849707
0
LINE
8
Image
10
19.492697
20
26.849707
11
19.669973
21
27.131809
0
LINE
8
Image
10
19.669973
20
27.131809
11
19.872320
21
26.956384
0
LINE
8
Image
10
19.872320
20
26.956384
11
20.070295
21
26.433854
0
LINE
8
Image
10
20.070295
20
26.433854
11
19.716659
21
26.408578
0
LINE
8
Image
10
19.716659
20
26.408578
11
19.453571
21
26.408270
0
LINE
8
Image
10
19.453571
20
26.408270
11
19.348239
21
26.206029
0
LINE
8
Image
10
19.348239
20
26.206029
11
19.408403
21
25.890578
0
LINE
8
Image
10
19.408403
20
25.890578
11
19.641804
21
25.550644
0
LINE
8
Image
10
19.641804
20
25.550644
11
19.992814
21
25.306344
0
LINE
8
Image
10
19.992814
20
25.306344
11
20.326066
21
25.282421
0
LINE
8
Image
10
20.326066
20
25.282421
11
20.628764
21
25.475474
0
LINE
8
Image
10
20.628764
20
25.475474
11
20.888112
21
25.882098
0
LINE
8
Image
10
20.888112
20
25.882098
11
21.156174
21
26.296438
0
LINE
8
Image
10
21.156174
20
26.296438
11
21.377976
21
26.193993
0
LINE
8
Image
10
21.377976
20
26.193993
11
21.537432
21
25.875655
0
LINE
8
Image
10
21.537432
20
25.875655
11
21.472438
21
25.622308
0
LINE
8
Image
10
21.472438
20
25.622308
11
20.340451
21
24.901032
0
LINE
8
Image
10
20.340451
20
24.901032
11
19.272403
21
24.391218
0
LINE
8
Image
10
19.272403
20
24.391218
11
19.121206
21
24.457583
0
LINE
8
Image
10
19.121206
20
24.457583
11
19.092866
21
24.718795
0
LINE
8
Image
10
19.092866
20
24.718795
11
19.092866
21
24.718790
0
LINE
8
Image
10
25.342666
20
24.862636
11
25.230571
21
25.154901
0
LINE
8
Image
10
25.230571
20
25.154901
11
25.380514
21
25.324200
0
LINE
8
Image
10
25.380514
20
25.324200
11
25.677658
21
25.326464
0
LINE
8
Image
10
25.677658
20
25.326464
11
26.007162
21
25.117627
0
LINE
8
Image
10
26.007162
20
25.117627
11
26.173260
21
24.836002
0
LINE
8
Image
10
26.173260
20
24.836002
11
25.961712
21
24.664688
0
LINE
8
Image
10
25.961712
20
24.664688
11
25.637589
21
24.668234
0
LINE
8
Image
10
25.637589
20
24.668234
11
25.342666
21
24.862636
0
LINE
8
Image
10
25.342666
20
24.862636
11
25.342666
21
24.862636
0
LINE
8
Image
10
30.872709
20
24.886448
11
30.700720
21
25.183283
0
LINE
8
Image
10
30.700720
20
25.183283
11
31.033152
21
25.251231
0
LINE
8
Image
10
31.033152
20
25.251231
11
31.415877
21
25.141288
0
LINE
8
Image
10
31.415877
20
25.141288
11
31.658949
21
24.876957
0
LINE
8
Image
10
31.658949
20
24.876957
11
31.673063
21
24.609285
0
LINE
8
Image
10
31.673063
20
24.609285
11
31.493561
21
24.522285
0
LINE
8
Image
10
31.493561
20
24.522285
11
31.200193
21
24.614996
0
LINE
8
Image
10
31.200193
20
24.614996
11
30.872709
21
24.886456
0
LINE
8
Image
10
30.872709
20
24.886456
11
30.872709
21
24.886448
0
LINE
8
Image
10
27.128640
20
25.157738
11
26.963127
21
25.435518
0
LINE
8
Image
10
26.963127
20
25.435518
11
27.302365
21
25.500749
0
LINE
8
Image
10
27.302365
20
25.500749
11
27.918351
21
25.281787
0
LINE
8
Image
10
27.918351
20
25.281787
11
27.959766
21
25.095122
0
LINE
8
Image
10
27.959766
20
25.095122
11
27.760837
21
24.934367
0
LINE
8
Image
10
27.760837
20
24.934367
11
27.446521
21
24.950631
0
LINE
8
Image
10
27.446521
20
24.950631
11
27.128640
21
25.157738
0
LINE
8
Image
10
27.128640
20
25.157738
11
27.128640
21
25.157738
0
LINE
8
Image
10
28.983316
20
25.126472
11
28.991377
21
25.407395
0
LINE
8
Image
10
28.991377
20
25.407395
11
29.304200
21
25.500749
0
LINE
8
Image
10
29.304200
20
25.500749
11
29.674448
21
25.390806
0
LINE
8
Image
10
29.674448
20
25.390806
11
29.912331
21
25.126472
0
LINE
8
Image
10
29.912331
20
25.126472
11
29.904270
21
24.845552
0
LINE
8
Image
10
29.904270
20
24.845552
11
29.591447
21
24.752199
0
LINE
8
Image
10
29.591447
20
24.752199
11
29.221199
21
24.862141
0
LINE
8
Image
10
29.221199
20
24.862141
11
28.983316
21
25.126472
0
LINE
8
Image
10
28.983316
20
25.126472
11
28.983316
21
25.126472
0
LINE
8
Image
10
36.136357
20
25.199312
11
35.339383
21
25.625508
0
LINE
8
Image
10
35.339383
20
25.625508
11
35.967942
21
26.184714
0
LINE
8
Image
10
35.967942
20
26.184714
11
36.387734
21
26.704936
0
LINE
8
Image
10
36.387734
20
26.704936
11
36.514367
21
27.170408
0
LINE
8
Image
10
36.514367
20
27.170408
11
36.626992
21
27.642245
0
LINE
8
Image
10
36.626992
20
27.642245
11
37.013109
21
28.177771
0
LINE
8
Image
10
37.013109
20
28.177771
11
37.349633
21
28.595830
0
LINE
8
Image
10
37.349633
20
28.595830
11
37.480944
21
28.958494
0
LINE
8
Image
10
37.480944
20
28.958494
11
37.405178
21
29.244014
0
LINE
8
Image
10
37.405178
20
29.244014
11
37.120471
21
29.430642
0
LINE
8
Image
10
37.120471
20
29.430642
11
36.771051
21
29.345554
0
LINE
8
Image
10
36.771051
20
29.345554
11
36.325137
21
29.009582
0
LINE
8
Image
10
36.325137
20
29.009582
11
35.988541
21
28.739253
0
LINE
8
Image
10
35.988541
20
28.739253
11
35.831311
21
28.758594
0
LINE
8
Image
10
35.831311
20
28.758594
11
36.093823
21
29.571805
0
LINE
8
Image
10
36.093823
20
29.571805
11
36.442527
21
30.195208
0
LINE
8
Image
10
36.442527
20
30.195208
11
38.283903
21
29.379229
0
LINE
8
Image
10
38.283903
20
29.379229
11
40.059890
21
28.484856
0
LINE
8
Image
10
40.059890
20
28.484856
11
39.675411
21
27.741354
0
LINE
8
Image
10
39.675411
20
27.741354
11
39.176750
21
27.032322
0
LINE
8
Image
10
39.176750
20
27.032322
11
39.107164
21
27.684024
0
LINE
8
Image
10
39.107164
20
27.684024
11
39.017526
21
28.241471
0
LINE
8
Image
10
39.017526
20
28.241471
11
38.692010
21
28.411476
0
LINE
8
Image
10
38.692010
20
28.411476
11
38.282443
21
28.202161
0
LINE
8
Image
10
38.282443
20
28.202161
11
37.940652
21
27.621644
0
LINE
8
Image
10
37.940652
20
27.621644
11
37.535342
21
26.748334
0
LINE
8
Image
10
37.535342
20
26.748334
11
37.056178
21
25.965975
0
LINE
8
Image
10
37.056178
20
25.965975
11
36.960925
21
25.144549
0
LINE
8
Image
10
36.960925
20
25.144549
11
37.049176
21
24.876854
0
LINE
8
Image
10
37.049176
20
24.876854
11
36.990078
21
24.793502
0
LINE
8
Image
10
36.990078
20
24.793502
11
36.136357
21
25.199312
0
LINE
8
Image
10
36.136357
20
25.199312
11
36.136357
21
25.199312
0
LINE
8
Image
10
22.402208
20
26.874400
11
22.528396
21
27.706986
0
LINE
8
Image
10
22.528396
20
27.706986
11
22.085842
21
28.371504
0
LINE
8
Image
10
22.085842
20
28.371504
11
21.561005
21
28.811133
0
LINE
8
Image
10
21.561005
20
28.811133
11
21.120363
21
28.993988
0
LINE
8
Image
10
21.120363
20
28.993988
11
20.908569
21
29.058392
0
LINE
8
Image
10
20.908569
20
29.058392
11
20.984333
21
29.216779
0
LINE
8
Image
10
20.984333
20
29.216779
11
21.775174
21
29.606550
0
LINE
8
Image
10
21.775174
20
29.606550
11
22.209271
21
29.652351
0
LINE
8
Image
10
22.209271
20
29.652351
11
22.336588
21
29.399803
0
LINE
8
Image
10
22.336588
20
29.399803
11
22.614002
21
28.851989
0
LINE
8
Image
10
22.614002
20
28.851989
11
22.886056
21
28.825935
0
LINE
8
Image
10
22.886056
20
28.825935
11
23.094112
21
29.023248
0
LINE
8
Image
10
23.094112
20
29.023248
11
23.174736
21
29.332598
0
LINE
8
Image
10
23.174736
20
29.332598
11
23.064497
21
29.642653
0
LINE
8
Image
10
23.064497
20
29.642653
11
22.980298
21
29.900165
0
LINE
8
Image
10
22.980298
20
29.900165
11
23.223936
21
30.087676
0
LINE
8
Image
10
23.223936
20
30.087676
11
23.913451
21
30.234614
0
LINE
8
Image
10
23.913451
20
30.234614
11
24.002762
21
30.136747
0
LINE
8
Image
10
24.002762
20
30.136747
11
23.900280
21
29.929678
0
LINE
8
Image
10
23.900280
20
29.929678
11
23.572778
21
29.360274
0
LINE
8
Image
10
23.572778
20
29.360274
11
23.493130
21
28.803368
0
LINE
8
Image
10
23.493130
20
28.803368
11
23.661625
21
28.255366
0
LINE
8
Image
10
23.661625
20
28.255366
11
24.078552
21
27.712671
0
LINE
8
Image
10
24.078552
20
27.712671
11
24.999702
21
27.001673
0
LINE
8
Image
10
24.999702
20
27.001673
11
25.341753
21
27.088638
0
LINE
8
Image
10
25.341753
20
27.088638
11
25.617323
21
27.321712
0
LINE
8
Image
10
25.617323
20
27.321712
11
25.901905
21
28.141398
0
LINE
8
Image
10
25.901905
20
28.141398
11
26.037063
21
28.758617
0
LINE
8
Image
10
26.037063
20
28.758617
11
26.288040
21
29.220508
0
LINE
8
Image
10
26.288040
20
29.220508
11
26.490727
21
29.640270
0
LINE
8
Image
10
26.490727
20
29.640270
11
26.509780
21
30.156198
0
LINE
8
Image
10
26.509780
20
30.156198
11
26.559710
21
30.644306
0
LINE
8
Image
10
26.559710
20
30.644306
11
27.267323
21
30.740606
0
LINE
8
Image
10
27.267323
20
30.740606
11
27.906698
21
30.674196
0
LINE
8
Image
10
27.906698
20
30.674196
11
27.862453
21
30.410298
0
LINE
8
Image
10
27.862453
20
30.410298
11
27.727640
21
30.107927
0
LINE
8
Image
10
27.727640
20
30.107927
11
27.808912
21
29.848885
0
LINE
8
Image
10
27.808912
20
29.848885
11
28.669103
21
28.459797
0
LINE
8
Image
10
28.669103
20
28.459797
11
29.308703
21
27.301816
0
LINE
8
Image
10
29.308703
20
27.301816
11
28.754470
21
27.153242
0
LINE
8
Image
10
28.754470
20
27.153242
11
27.951627
21
27.013785
0
LINE
8
Image
10
27.951627
20
27.013785
11
27.877530
21
27.077013
0
LINE
8
Image
10
27.877530
20
27.077013
11
28.049460
21
27.226007
0
LINE
8
Image
10
28.049460
20
27.226007
11
28.250875
21
27.497811
0
LINE
8
Image
10
28.250875
20
27.497811
11
28.246093
21
27.841639
0
LINE
8
Image
10
28.246093
20
27.841639
11
27.948723
21
28.117220
0
LINE
8
Image
10
27.948723
20
28.117220
11
27.274046
21
28.083344
0
LINE
8
Image
10
27.274046
20
28.083344
11
26.221978
21
27.704027
0
LINE
8
Image
10
26.221978
20
27.704027
11
26.122818
21
27.475296
0
LINE
8
Image
10
26.122818
20
27.475296
11
26.330945
21
27.240800
0
LINE
8
Image
10
26.330945
20
27.240800
11
26.526019
21
27.050936
0
LINE
8
Image
10
26.526019
20
27.050936
11
26.173092
21
27.001673
0
LINE
8
Image
10
26.173092
20
27.001673
11
24.587648
21
26.625483
0
LINE
8
Image
10
24.587648
20
26.625483
11
23.758685
21
26.389429
0
LINE
8
Image
10
23.758685
20
26.389429
11
23.639866
21
26.437716
0
LINE
8
Image
10
23.639866
20
26.437716
11
23.663469
21
26.595080
0
LINE
8
Image
10
23.663469
20
26.595080
11
23.674219
21
26.886617
0
LINE
8
Image
10
23.674219
20
26.886617
11
23.534424
21
27.179876
0
LINE
8
Image
10
23.534424
20
27.179876
11
23.294295
21
27.406188
0
LINE
8
Image
10
23.294295
20
27.406188
11
23.004046
21
27.496885
0
LINE
8
Image
10
23.004046
20
27.496885
11
22.885018
21
27.276998
0
LINE
8
Image
10
22.885018
20
27.276998
11
22.922953
21
26.748334
0
LINE
8
Image
10
22.922953
20
26.748334
11
22.955249
21
26.141737
0
LINE
8
Image
10
22.955249
20
26.141737
11
22.603222
21
25.999784
0
LINE
8
Image
10
22.603222
20
25.999784
11
22.360178
21
26.026051
0
LINE
8
Image
10
22.360178
20
26.026051
11
22.254363
21
26.142714
0
LINE
8
Image
10
22.254363
20
26.142714
11
22.402208
21
26.874400
0
LINE
8
Image
10
22.402208
20
26.874400
11
22.402208
21
26.874400
0
LINE
8
Image
10
27.576446
20
28.838678
11
27.231308
21
29.468838
0
LINE
8
Image
10
27.231308
20
29.468838
11
26.926285
21
29.611076
0
LINE
8
Image
10
26.926285
20
29.611076
11
26.732276
21
29.354226
0
LINE
8
Image
10
26.732276
20
29.354226
11
26.612815
21
28.674807
0
LINE
8
Image
10
26.612815
20
28.674807
11
26.766839
21
28.535546
0
LINE
8
Image
10
26.766839
20
28.535546
11
27.077411
21
28.494953
0
LINE
8
Image
10
27.077411
20
28.494953
11
27.429855
21
28.595922
0
LINE
8
Image
10
27.429855
20
28.595922
11
27.576446
21
28.838678
0
LINE
8
Image
10
27.576446
20
28.838678
11
27.576446
21
28.838678
0
LINE
8
Image
10
30.383513
20
26.924428
11
29.947040
21
27.157064
0
LINE
8
Image
10
29.947040
20
27.157064
11
29.823338
21
27.701378
0
LINE
8
Image
10
29.823338
20
27.701378
11
29.824661
21
28.370194
0
LINE
8
Image
10
29.824661
20
28.370194
11
30.386238
21
27.668456
0
LINE
8
Image
10
30.386238
20
27.668456
11
30.921131
21
27.171017
0
LINE
8
Image
10
30.921131
20
27.171017
11
31.395316
21
27.138438
0
LINE
8
Image
10
31.395316
20
27.138438
11
31.725574
21
27.398450
0
LINE
8
Image
10
31.725574
20
27.398450
11
31.733542
21
27.753207
0
LINE
8
Image
10
31.733542
20
27.753207
11
31.443218
21
28.139709
0
LINE
8
Image
10
31.443218
20
28.139709
11
30.878601
21
28.494953
0
LINE
8
Image
10
30.878601
20
28.494953
11
30.225692
21
28.938046
0
LINE
8
Image
10
30.225692
20
28.938046
11
30.130048
21
29.617779
0
LINE
8
Image
10
30.130048
20
29.617779
11
30.195027
21
30.033974
0
LINE
8
Image
10
30.195027
20
30.033974
11
30.360718
21
30.267597
0
LINE
8
Image
10
30.360718
20
30.267597
11
31.381666
21
30.442381
0
LINE
8
Image
10
31.381666
20
30.442381
11
32.404671
21
30.413647
0
LINE
8
Image
10
32.404671
20
30.413647
11
32.537033
21
30.213798
0
LINE
8
Image
10
32.537033
20
30.213798
11
32.551054
21
29.818590
0
LINE
8
Image
10
32.551054
20
29.818590
11
32.506236
21
29.290181
0
LINE
8
Image
10
32.506236
20
29.290181
11
32.303084
21
29.697715
0
LINE
8
Image
10
32.303084
20
29.697715
11
31.996650
21
30.119447
0
LINE
8
Image
10
31.996650
20
30.119447
11
31.527514
21
30.196750
0
LINE
8
Image
10
31.527514
20
30.196750
11
31.045366
21
30.030710
0
LINE
8
Image
10
31.045366
20
30.030710
11
30.911741
21
29.748716
0
LINE
8
Image
10
30.911741
20
29.748716
11
31.122585
21
29.384692
0
LINE
8
Image
10
31.122585
20
29.384692
11
31.673842
21
28.972562
0
LINE
8
Image
10
31.673842
20
28.972562
11
32.255923
21
28.532399
0
LINE
8
Image
10
32.255923
20
28.532399
11
32.522598
21
28.084378
0
LINE
8
Image
10
32.522598
20
28.084378
11
32.474076
21
27.627629
0
LINE
8
Image
10
32.474076
20
27.627629
11
32.110568
21
27.161282
0
LINE
8
Image
10
32.110568
20
27.161282
11
31.473905
21
26.811766
0
LINE
8
Image
10
31.473905
20
26.811766
11
30.383598
21
26.924428
0
LINE
8
Image
10
30.383598
20
26.924428
11
30.383513
21
26.924428
0
LINE
8
Image
10
26.834855
20
57.658439
11
26.942965
21
56.421590
0
LINE
8
Image
10
26.942965
20
56.421590
11
26.696025
21
55.506496
0
LINE
8
Image
10
26.696025
20
55.506496
11
26.218320
21
54.919520
0
LINE
8
Image
10
26.218320
20
54.919520
11
25.634130
21
54.667032
0
LINE
8
Image
10
25.634130
20
54.667032
11
25.067740
21
54.755396
0
LINE
8
Image
10
25.067740
20
54.755396
11
24.643431
21
55.190980
0
LINE
8
Image
10
24.643431
20
55.190980
11
24.485487
21
55.980150
0
LINE
8
Image
10
24.485487
20
55.980150
11
24.718190
21
57.129273
0
LINE
8
Image
10
24.718190
20
57.129273
11
23.395275
21
56.864690
0
LINE
8
Image
10
23.395275
20
56.864690
11
23.659858
21
55.806358
0
LINE
8
Image
10
23.659858
20
55.806358
11
21.278611
21
56.335524
0
LINE
8
Image
10
21.278611
20
56.335524
11
21.278611
21
55.806358
0
LINE
8
Image
10
21.278611
20
55.806358
11
22.219756
21
55.125248
0
LINE
8
Image
10
22.219756
20
55.125248
11
22.629797
21
54.368091
0
LINE
8
Image
10
22.629797
20
54.368091
11
22.628827
21
53.470173
0
LINE
8
Image
10
22.628827
20
53.470173
11
22.336943
21
52.366779
0
LINE
8
Image
10
22.336943
20
52.366779
11
23.659858
21
52.631362
0
LINE
8
Image
10
23.659858
20
52.631362
11
23.659858
21
54.218860
0
LINE
8
Image
10
23.659858
20
54.218860
11
24.189024
21
52.895945
0
LINE
8
Image
10
24.189024
20
52.895945
11
27.628604
21
53.689694
0
LINE
8
Image
10
27.628604
20
53.689694
11
27.628604
21
53.954277
0
LINE
8
Image
10
27.628604
20
53.954277
11
27.099438
21
54.748026
0
LINE
8
Image
10
27.099438
20
54.748026
11
29.216102
21
54.483443
0
LINE
8
Image
10
29.216102
20
54.483443
11
28.686936
21
53.689694
0
LINE
8
Image
10
28.686936
20
53.689694
11
30.684719
21
53.511312
0
LINE
8
Image
10
30.684719
20
53.511312
11
31.706648
21
53.449835
0
LINE
8
Image
10
31.706648
20
53.449835
11
32.640165
21
53.550256
0
LINE
8
Image
10
32.640165
20
53.550256
11
33.287049
21
53.811791
0
LINE
8
Image
10
33.287049
20
53.811791
11
33.603211
21
54.157842
0
LINE
8
Image
10
33.603211
20
54.157842
11
33.647703
21
54.558526
0
LINE
8
Image
10
33.647703
20
54.558526
11
33.479577
21
54.983961
0
LINE
8
Image
10
33.479577
20
54.983961
11
32.741679
21
55.789544
0
LINE
8
Image
10
32.741679
20
55.789544
11
31.861932
21
56.335524
0
LINE
8
Image
10
31.861932
20
56.335524
11
32.391498
21
56.690656
0
LINE
8
Image
10
32.391498
20
56.690656
11
32.821944
21
56.730881
0
LINE
8
Image
10
32.821944
20
56.730881
11
33.235405
21
56.507281
0
LINE
8
Image
10
33.235405
20
56.507281
11
33.714013
21
56.070941
0
LINE
8
Image
10
33.714013
20
56.070941
11
33.978596
21
57.393856
0
LINE
8
Image
10
33.978596
20
57.393856
11
33.079787
21
57.386918
0
LINE
8
Image
10
33.079787
20
57.386918
11
32.323822
21
57.237219
0
LINE
8
Image
10
32.323822
20
57.237219
11
31.748780
21
56.969882
0
LINE
8
Image
10
31.748780
20
56.969882
11
31.392744
21
56.610035
0
LINE
8
Image
10
31.392744
20
56.610035
11
31.293793
21
56.182800
0
LINE
8
Image
10
31.293793
20
56.182800
11
31.490008
21
55.713304
0
LINE
8
Image
10
31.490008
20
55.713304
11
32.019472
21
55.226671
0
LINE
8
Image
10
32.019472
20
55.226671
11
32.920264
21
54.748026
0
LINE
8
Image
10
32.920264
20
54.748026
11
32.920264
21
54.218860
0
LINE
8
Image
10
32.920264
20
54.218860
11
31.068183
21
55.277192
0
LINE
8
Image
10
31.068183
20
55.277192
11
30.803600
21
55.277192
0
LINE
8
Image
10
30.803600
20
55.277192
11
30.803600
21
53.954277
0
LINE
8
Image
10
30.803600
20
53.954277
11
29.745268
21
55.806358
0
LINE
8
Image
10
29.745268
20
55.806358
11
28.951519
21
57.658439
0
LINE
8
Image
10
28.951519
20
57.658439
11
26.834855
21
57.658439
0
LINE
8
Image
10
37.682758
20
57.129273
11
36.889009
21
55.541775
0
LINE
8
Image
10
36.889009
20
55.541775
11
37.153592
21
55.277192
0
LINE
8
Image
10
37.153592
20
55.277192
11
38.741090
21
56.070941
0
LINE
8
Image
10
38.741090
20
56.070941
11
37.682758
21
54.483443
0
LINE
8
Image
10
37.682758
20
54.483443
11
36.624426
21
52.631362
0
LINE
8
Image
10
36.624426
20
52.631362
11
36.624426
21
52.102196
0
LINE
8
Image
10
36.624426
20
52.102196
11
38.476507
21
51.308447
0
LINE
8
Image
10
38.476507
20
51.308447
11
39.534839
21
53.425111
0
LINE
8
Image
10
39.534839
20
53.425111
11
40.328588
21
55.277192
0
LINE
8
Image
10
40.328588
20
55.277192
11
40.328588
21
53.689694
0
LINE
8
Image
10
40.328588
20
53.689694
11
41.044648
21
54.264939
0
LINE
8
Image
10
41.044648
20
54.264939
11
41.257187
21
54.833318
0
LINE
8
Image
10
41.257187
20
54.833318
11
41.068423
21
55.377507
0
LINE
8
Image
10
41.068423
20
55.377507
11
40.580577
21
55.880183
0
LINE
8
Image
10
40.580577
20
55.880183
11
39.116515
21
56.691698
0
LINE
8
Image
10
39.116515
20
56.691698
11
37.682758
21
57.129273
0
LINE
8
Image
10
28.157770
20
56.335524
11
28.422353
21
55.277192
0
LINE
8
Image
10
28.422353
20
55.277192
11
27.364021
21
55.277192
0
LINE
8
Image
10
27.364021
20
55.277192
11
27.628604
21
56.335524
0
LINE
8
Image
10
27.628604
20
56.335524
11
28.157770
21
56.335524
0
LINE
8
Image
10
17.309866
20
54.218860
11
17.309866
21
53.954277
0
LINE
8
Image
10
17.309866
20
53.954277
11
18.368198
21
52.366779
0
LINE
8
Image
10
18.368198
20
52.366779
11
19.426530
21
50.779281
0
LINE
8
Image
10
19.426530
20
50.779281
11
20.407885
21
51.172459
0
LINE
8
Image
10
20.407885
20
51.172459
11
21.380064
21
51.789350
0
LINE
8
Image
10
21.380064
20
51.789350
11
21.705034
21
52.160660
0
LINE
8
Image
10
21.705034
20
52.160660
11
21.838496
21
52.562664
0
LINE
8
Image
10
21.838496
20
52.562664
11
21.717379
21
52.986951
0
LINE
8
Image
10
21.717379
20
52.986951
11
21.278611
21
53.425111
0
LINE
8
Image
10
21.278611
20
53.425111
11
21.070183
21
52.703470
0
LINE
8
Image
10
21.070183
20
52.703470
11
20.737265
21
52.369531
0
LINE
8
Image
10
20.737265
20
52.369531
11
20.278146
21
52.431090
0
LINE
8
Image
10
20.278146
20
52.431090
11
19.691113
21
52.895945
0
LINE
8
Image
10
19.691113
20
52.895945
11
20.484862
21
52.895945
0
LINE
8
Image
10
20.484862
20
52.895945
11
19.691113
21
54.218860
0
LINE
8
Image
10
19.691113
20
54.218860
11
19.691113
21
53.425111
0
LINE
8
Image
10
19.691113
20
53.425111
11
19.426530
21
53.425111
0
LINE
8
Image
10
19.426530
20
53.425111
11
18.897364
21
54.483443
0
LINE
8
Image
10
18.897364
20
54.483443
11
20.484862
21
54.748026
0
LINE
8
Image
10
20.484862
20
54.748026
11
20.220279
21
55.541775
0
LINE
8
Image
10
20.220279
20
55.541775
11
17.309866
21
54.218860
0
LINE
8
Image
10
12.547372
20
51.308447
11
12.547372
21
51.043864
0
LINE
8
Image
10
12.547372
20
51.043864
11
14.134870
21
49.985532
0
LINE
8
Image
10
14.134870
20
49.985532
11
13.605704
21
51.308447
0
LINE
8
Image
10
13.605704
20
51.308447
11
14.222909
21
51.211604
0
LINE
8
Image
10
14.222909
20
51.211604
11
14.647053
21
50.972479
0
LINE
8
Image
10
14.647053
20
50.972479
11
14.947396
21
50.570609
0
LINE
8
Image
10
14.947396
20
50.570609
11
15.193202
21
49.985532
0
LINE
8
Image
10
15.193202
20
49.985532
11
16.780700
21
48.398034
0
LINE
8
Image
10
16.780700
20
48.398034
11
18.368198
21
49.985532
0
LINE
8
Image
10
18.368198
20
49.985532
11
15.193202
21
52.895945
0
LINE
8
Image
10
15.193202
20
52.895945
11
15.457785
21
53.160528
0
LINE
8
Image
10
15.457785
20
53.160528
11
16.780700
21
52.631362
0
LINE
8
Image
10
16.780700
20
52.631362
11
15.986951
21
54.218860
0
LINE
8
Image
10
15.986951
20
54.218860
11
12.547372
21
51.308447
0
LINE
8
Image
10
41.651503
20
53.689694
11
39.534839
21
50.779281
0
LINE
8
Image
10
39.534839
20
50.779281
11
39.534839
21
50.250115
0
LINE
8
Image
10
39.534839
20
50.250115
11
42.445252
21
48.398034
0
LINE
8
Image
10
42.445252
20
48.398034
11
43.239001
21
49.456366
0
LINE
8
Image
10
43.239001
20
49.456366
11
43.073307
21
48.585870
0
LINE
8
Image
10
43.073307
20
48.585870
11
43.016424
21
47.838094
0
LINE
8
Image
10
43.016424
20
47.838094
11
43.269267
21
47.237997
0
LINE
8
Image
10
43.269267
20
47.237997
11
44.032750
21
46.810536
0
LINE
8
Image
10
44.032750
20
46.810536
11
44.032750
21
48.662617
0
LINE
8
Image
10
44.032750
20
48.662617
11
44.822300
21
48.777664
0
LINE
8
Image
10
44.822300
20
48.777664
11
45.273122
21
49.110292
0
LINE
8
Image
10
45.273122
20
49.110292
11
45.432339
21
49.596696
0
LINE
8
Image
10
45.432339
20
49.596696
11
45.347070
21
50.173071
0
LINE
8
Image
10
45.347070
20
50.173071
11
45.064439
21
50.775614
0
LINE
8
Image
10
45.064439
20
50.775614
11
44.631566
21
51.340518
0
LINE
8
Image
10
44.631566
20
51.340518
11
44.095574
21
51.803980
0
LINE
8
Image
10
44.095574
20
51.803980
11
43.503584
21
52.102196
0
LINE
8
Image
10
43.503584
20
52.102196
11
43.114330
21
51.269269
0
LINE
8
Image
10
43.114330
20
51.269269
11
42.494711
21
50.583300
0
LINE
8
Image
10
42.494711
20
50.583300
11
41.718072
21
50.061467
0
LINE
8
Image
10
41.718072
20
50.061467
11
40.857754
21
49.720949
0
LINE
8
Image
10
40.857754
20
49.720949
11
43.239001
21
52.366779
0
LINE
8
Image
10
43.239001
20
52.366779
11
41.651503
21
53.689694
0
LINE
8
Image
10
27.628604
20
52.102196
11
29.216102
21
51.573030
0
LINE
8
Image
10
29.216102
20
51.573030
11
28.686936
21
52.366779
0
LINE
8
Image
10
28.686936
20
52.366779
11
27.628604
21
52.102196
0
LINE
8
Image
10
25.511938
20
51.837613
11
26.041104
21
51.043864
0
LINE
8
Image
10
26.041104
20
51.043864
11
24.982772
21
50.514698
0
LINE
8
Image
10
24.982772
20
50.514698
11
25.776521
21
49.720949
0
LINE
8
Image
10
25.776521
20
49.720949
11
24.189024
21
50.250115
0
LINE
8
Image
10
24.189024
20
50.250115
11
24.189024
21
50.514698
0
LINE
8
Image
10
24.189024
20
50.514698
11
25.247355
21
51.043864
0
LINE
8
Image
10
25.247355
20
51.043864
11
23.659858
21
51.308447
0
LINE
8
Image
10
23.659858
20
51.308447
11
23.130692
21
49.985532
0
LINE
8
Image
10
23.130692
20
49.985532
11
23.130692
21
49.720949
0
LINE
8
Image
10
23.130692
20
49.720949
11
24.189024
21
49.720949
0
LINE
8
Image
10
24.189024
20
49.720949
11
24.189024
21
49.191783
0
LINE
8
Image
10
24.189024
20
49.191783
11
22.336943
21
49.456366
0
LINE
8
Image
10
22.336943
20
49.456366
11
23.395275
21
50.250115
0
LINE
8
Image
10
23.395275
20
50.250115
11
23.395275
21
50.514698
0
LINE
8
Image
10
23.395275
20
50.514698
11
21.807777
21
50.514698
0
LINE
8
Image
10
21.807777
20
50.514698
11
21.543194
21
48.927200
0
LINE
8
Image
10
21.543194
20
48.927200
11
22.336943
21
48.398034
0
LINE
8
Image
10
22.336943
20
48.398034
11
19.955696
21
47.868868
0
LINE
8
Image
10
19.955696
20
47.868868
11
21.014028
21
47.868868
0
LINE
8
Image
10
21.014028
20
47.868868
11
21.014028
21
47.604285
0
LINE
8
Image
10
21.014028
20
47.604285
11
18.897364
21
47.604285
0
LINE
8
Image
10
18.897364
20
47.604285
11
18.368198
21
46.545953
0
LINE
8
Image
10
18.368198
20
46.545953
11
19.426530
21
46.810536
0
LINE
8
Image
10
19.426530
20
46.810536
11
17.839032
21
46.016787
0
LINE
8
Image
10
17.839032
20
46.016787
11
18.368198
21
47.339702
0
LINE
8
Image
10
18.368198
20
47.339702
11
16.780700
21
46.281370
0
LINE
8
Image
10
16.780700
20
46.281370
11
17.574449
21
46.545953
0
LINE
8
Image
10
17.574449
20
46.545953
11
17.309866
21
45.223038
0
LINE
8
Image
10
17.309866
20
45.223038
11
18.368198
21
45.487621
0
LINE
8
Image
10
18.368198
20
45.487621
11
18.368198
21
45.223038
0
LINE
8
Image
10
18.368198
20
45.223038
11
16.516117
21
44.693872
0
LINE
8
Image
10
16.516117
20
44.693872
11
16.251534
21
43.635540
0
LINE
8
Image
10
16.251534
20
43.635540
11
17.045283
21
43.900123
0
LINE
8
Image
10
17.045283
20
43.900123
11
15.193202
21
41.783459
0
LINE
8
Image
10
15.193202
20
41.783459
11
16.251534
21
42.312625
0
LINE
8
Image
10
16.251534
20
42.312625
11
14.664036
21
41.254293
0
LINE
8
Image
10
14.664036
20
41.254293
11
14.664036
21
40.195961
0
LINE
8
Image
10
14.664036
20
40.195961
11
15.457785
21
40.725127
0
LINE
8
Image
10
15.457785
20
40.725127
11
14.134870
21
39.402212
0
LINE
8
Image
10
14.134870
20
39.402212
11
14.134870
21
40.725127
0
LINE
8
Image
10
14.134870
20
40.725127
11
13.341121
21
39.137629
0
LINE
8
Image
10
13.341121
20
39.137629
11
13.605704
21
39.137629
0
LINE
8
Image
10
13.605704
20
39.137629
11
13.870287
21
39.666795
0
LINE
8
Image
10
13.870287
20
39.666795
11
14.134870
21
38.343880
0
LINE
8
Image
10
14.134870
20
38.343880
11
15.193202
21
38.873046
0
LINE
8
Image
10
15.193202
20
38.873046
11
14.134870
21
37.285548
0
LINE
8
Image
10
14.134870
20
37.285548
11
13.605704
21
38.608463
0
LINE
8
Image
10
13.605704
20
38.608463
11
12.811955
21
37.285548
0
LINE
8
Image
10
12.811955
20
37.285548
11
13.605704
21
37.550131
0
LINE
8
Image
10
13.605704
20
37.550131
11
13.870287
21
36.227216
0
LINE
8
Image
10
13.870287
20
36.227216
11
12.811955
21
35.962633
0
LINE
8
Image
10
12.811955
20
35.962633
11
12.811955
21
35.698050
0
LINE
8
Image
10
12.811955
20
35.698050
11
14.928619
21
37.020965
0
LINE
8
Image
10
14.928619
20
37.020965
11
14.134870
21
35.698050
0
LINE
8
Image
10
14.134870
20
35.698050
11
19.426530
21
35.698050
0
LINE
8
Image
10
19.426530
20
35.698050
11
19.556090
21
37.077719
0
LINE
8
Image
10
19.556090
20
37.077719
11
19.875092
21
38.393732
0
LINE
8
Image
10
19.875092
20
38.393732
11
20.366641
21
39.634304
0
LINE
8
Image
10
20.366641
20
39.634304
11
21.013846
21
40.787652
0
LINE
8
Image
10
21.013846
20
40.787652
11
21.799813
21
41.841992
0
LINE
8
Image
10
21.799813
20
41.841992
11
22.707649
21
42.785540
0
LINE
8
Image
10
22.707649
20
42.785540
11
23.720460
21
43.606514
0
LINE
8
Image
10
23.720460
20
43.606514
11
24.821355
21
44.293128
0
LINE
8
Image
10
24.821355
20
44.293128
11
25.993440
21
44.833600
0
LINE
8
Image
10
25.993440
20
44.833600
11
27.219822
21
45.216146
0
LINE
8
Image
10
27.219822
20
45.216146
11
28.483609
21
45.428983
0
LINE
8
Image
10
28.483609
20
45.428983
11
29.767906
21
45.460326
0
LINE
8
Image
10
29.767906
20
45.460326
11
31.055821
21
45.298393
0
LINE
8
Image
10
31.055821
20
45.298393
11
32.330461
21
44.931399
0
LINE
8
Image
10
32.330461
20
44.931399
11
33.574933
21
44.347561
0
LINE
8
Image
10
33.574933
20
44.347561
11
34.772345
21
43.535096
0
LINE
8
Image
10
34.772345
20
43.535096
11
36.691851
21
41.672655
0
LINE
8
Image
10
36.691851
20
41.672655
11
37.479052
21
40.583993
0
LINE
8
Image
10
37.479052
20
40.583993
11
38.086165
21
39.402212
0
LINE
8
Image
10
38.086165
20
39.402212
11
38.477357
21
37.576926
0
LINE
8
Image
10
38.477357
20
37.576926
11
38.727777
21
36.632865
0
LINE
8
Image
10
38.727777
20
36.632865
11
39.165118
21
35.969980
0
LINE
8
Image
10
39.165118
20
35.969980
11
39.685912
21
35.697755
0
LINE
8
Image
10
39.685912
20
35.697755
11
40.341693
21
35.552626
0
LINE
8
Image
10
40.341693
20
35.552626
11
41.895029
21
35.525595
0
LINE
8
Image
10
41.895029
20
35.525595
11
44.826499
21
35.698050
0
LINE
8
Image
10
44.826499
20
35.698050
11
44.297333
21
37.020965
0
LINE
8
Image
10
44.297333
20
37.020965
11
44.032750
21
37.020965
0
LINE
8
Image
10
44.032750
20
37.020965
11
43.768167
21
36.227216
0
LINE
8
Image
10
43.768167
20
36.227216
11
43.503584
21
36.227216
0
LINE
8
Image
10
43.503584
20
36.227216
11
44.561916
21
37.814714
0
LINE
8
Image
10
44.561916
20
37.814714
11
44.826499
21
36.756382
0
LINE
8
Image
10
44.826499
20
36.756382
11
45.620248
21
37.020965
0
LINE
8
Image
10
45.620248
20
37.020965
11
45.355665
21
38.343880
0
LINE
8
Image
10
45.355665
20
38.343880
11
44.561916
21
37.814714
0
LINE
8
Image
10
44.561916
20
37.814714
11
44.032750
21
38.873046
0
LINE
8
Image
10
44.032750
20
38.873046
11
43.239001
21
38.079297
0
LINE
8
Image
10
43.239001
20
38.079297
11
43.768167
21
39.666795
0
LINE
8
Image
10
43.768167
20
39.666795
11
44.032750
21
39.666795
0
LINE
8
Image
10
44.032750
20
39.666795
11
44.561916
21
38.608463
0
LINE
8
Image
10
44.561916
20
38.608463
11
44.826499
21
40.460544
0
LINE
8
Image
10
44.826499
20
40.460544
11
44.561916
21
40.460544
0
LINE
8
Image
10
44.561916
20
40.460544
11
44.561916
21
39.666795
0
LINE
8
Image
10
44.561916
20
39.666795
11
43.736086
21
40.395440
0
LINE
8
Image
10
43.736086
20
40.395440
11
43.424223
21
40.444948
0
LINE
8
Image
10
43.424223
20
40.444948
11
43.239001
21
39.931378
0
LINE
8
Image
10
43.239001
20
39.931378
11
42.974418
21
39.931378
0
LINE
8
Image
10
42.974418
20
39.931378
11
42.974418
21
41.518876
0
LINE
8
Image
10
42.974418
20
41.518876
11
44.032750
21
40.460544
0
LINE
8
Image
10
44.032750
20
40.460544
11
44.263221
21
40.992598
0
LINE
8
Image
10
44.263221
20
40.992598
11
44.295907
21
41.442252
0
LINE
8
Image
10
44.295907
20
41.442252
11
44.130868
21
41.864071
0
LINE
8
Image
10
44.130868
20
41.864071
11
43.768167
21
42.312625
0
LINE
8
Image
10
43.768167
20
42.312625
11
43.768167
21
41.518876
0
LINE
8
Image
10
43.768167
20
41.518876
11
43.503584
21
41.518876
0
LINE
8
Image
10
43.503584
20
41.518876
11
42.974418
21
42.577208
0
LINE
8
Image
10
42.974418
20
42.577208
11
42.709835
21
42.577208
0
LINE
8
Image
10
42.709835
20
42.577208
11
42.445252
21
41.518876
0
LINE
8
Image
10
42.445252
20
41.518876
11
42.180669
21
41.518876
0
LINE
8
Image
10
42.180669
20
41.518876
11
41.651503
21
44.164706
0
LINE
8
Image
10
41.651503
20
44.164706
11
41.651503
21
43.106374
0
LINE
8
Image
10
41.651503
20
43.106374
11
41.386920
21
43.106374
0
LINE
8
Image
10
41.386920
20
43.106374
11
41.386920
21
44.958455
0
LINE
8
Image
10
41.386920
20
44.958455
11
42.445252
21
44.164706
0
LINE
8
Image
10
42.445252
20
44.164706
11
41.916086
21
45.752204
0
LINE
8
Image
10
41.916086
20
45.752204
11
41.651503
21
44.958455
0
LINE
8
Image
10
41.651503
20
44.958455
11
40.593171
21
45.752204
0
LINE
8
Image
10
40.593171
20
45.752204
11
40.593171
21
44.693872
0
LINE
8
Image
10
40.593171
20
44.693872
11
40.328588
21
44.693872
0
LINE
8
Image
10
40.328588
20
44.693872
11
39.270256
21
47.075119
0
LINE
8
Image
10
39.270256
20
47.075119
11
39.534839
21
46.016787
0
LINE
8
Image
10
39.534839
20
46.016787
11
38.741090
21
48.133451
0
LINE
8
Image
10
38.741090
20
48.133451
11
37.682758
21
48.398034
0
LINE
8
Image
10
37.682758
20
48.398034
11
37.947341
21
47.339702
0
LINE
8
Image
10
37.947341
20
47.339702
11
37.682758
21
47.339702
0
LINE
8
Image
10
37.682758
20
47.339702
11
37.153592
21
49.191783
0
LINE
8
Image
10
37.153592
20
49.191783
11
36.095260
21
49.191783
0
LINE
8
Image
10
36.095260
20
49.191783
11
36.624426
21
48.398034
0
LINE
8
Image
10
36.624426
20
48.398034
11
35.301511
21
49.720949
0
LINE
8
Image
10
35.301511
20
49.720949
11
36.624426
21
49.720949
0
LINE
8
Image
10
36.624426
20
49.720949
11
35.301511
21
50.779281
0
LINE
8
Image
10
35.301511
20
50.779281
11
35.830677
21
49.985532
0
LINE
8
Image
10
35.830677
20
49.985532
11
34.507762
21
49.985532
0
LINE
8
Image
10
34.507762
20
49.985532
11
34.772345
21
49.191783
0
LINE
8
Image
10
34.772345
20
49.191783
11
33.714013
21
50.514698
0
LINE
8
Image
10
33.714013
20
50.514698
11
34.772345
21
50.514698
0
LINE
8
Image
10
34.772345
20
50.514698
11
33.714013
21
51.573030
0
LINE
8
Image
10
33.714013
20
51.573030
11
33.978596
21
50.779281
0
LINE
8
Image
10
33.978596
20
50.779281
11
32.655681
21
50.779281
0
LINE
8
Image
10
32.655681
20
50.779281
11
33.184847
21
49.720949
0
LINE
8
Image
10
33.184847
20
49.720949
11
31.861932
21
51.043864
0
LINE
8
Image
10
31.861932
20
51.043864
11
33.184847
21
51.043864
0
LINE
8
Image
10
33.184847
20
51.043864
11
33.184847
21
51.308447
0
LINE
8
Image
10
33.184847
20
51.308447
11
32.920264
21
51.837613
0
LINE
8
Image
10
32.920264
20
51.837613
11
31.597349
21
51.837613
0
LINE
8
Image
10
31.597349
20
51.837613
11
31.597349
21
51.573030
0
LINE
8
Image
10
31.597349
20
51.573030
11
32.126515
21
51.308447
0
LINE
8
Image
10
32.126515
20
51.308447
11
30.539017
21
51.043864
0
LINE
8
Image
10
30.539017
20
51.043864
11
30.539017
21
50.779281
0
LINE
8
Image
10
30.539017
20
50.779281
11
31.332766
21
49.985532
0
LINE
8
Image
10
31.332766
20
49.985532
11
30.009851
21
51.308447
0
LINE
8
Image
10
30.009851
20
51.308447
11
31.068183
21
51.308447
0
LINE
8
Image
10
31.068183
20
51.308447
11
29.480685
21
52.102196
0
LINE
8
Image
10
29.480685
20
52.102196
11
29.480685
21
51.837613
0
LINE
8
Image
10
29.480685
20
51.837613
11
30.009851
21
51.308447
0
LINE
8
Image
10
30.009851
20
51.308447
11
28.686936
21
51.043864
0
LINE
8
Image
10
28.686936
20
51.043864
11
28.686936
21
50.779281
0
LINE
8
Image
10
28.686936
20
50.779281
11
29.480685
21
50.514698
0
LINE
8
Image
10
29.480685
20
50.514698
11
29.480685
21
50.250115
0
LINE
8
Image
10
29.480685
20
50.250115
11
27.893187
21
51.308447
0
LINE
8
Image
10
27.893187
20
51.308447
11
26.834855
21
50.779281
0
LINE
8
Image
10
26.834855
20
50.779281
11
27.628604
21
49.985532
0
LINE
8
Image
10
27.628604
20
49.985532
11
26.041104
21
50.514698
0
LINE
8
Image
10
26.041104
20
50.514698
11
27.099438
21
51.308447
0
LINE
8
Image
10
27.099438
20
51.308447
11
26.834855
21
52.102196
0
LINE
8
Image
10
26.834855
20
52.102196
11
25.511938
21
51.837613
0
LINE
8
Image
10
44.561916
20
50.779281
11
45.091082
21
50.250115
0
LINE
8
Image
10
45.091082
20
50.250115
11
45.091082
21
49.985532
0
LINE
8
Image
10
45.091082
20
49.985532
11
43.503584
21
49.720949
0
LINE
8
Image
10
43.503584
20
49.720949
11
43.503584
21
50.250115
0
LINE
8
Image
10
43.503584
20
50.250115
11
44.561916
21
50.779281
0
LINE
8
Image
10
19.955696
20
49.191783
11
21.543194
21
49.720949
0
LINE
8
Image
10
21.543194
20
49.720949
11
19.955696
21
49.191783
0
LINE
8
Image
10
37.418175
20
49.720949
11
38.476507
21
48.398034
0
LINE
8
Image
10
38.476507
20
48.398034
11
38.476507
21
49.456366
0
LINE
8
Image
10
38.476507
20
49.456366
11
37.418175
21
49.720949
0
LINE
8
Image
10
10.959874
20
48.927200
11
10.635892
21
47.656803
0
LINE
8
Image
10
10.635892
20
47.656803
11
10.494772
21
46.241171
0
LINE
8
Image
10
10.494772
20
46.241171
11
10.319783
21
44.873301
0
LINE
8
Image
10
10.319783
20
44.873301
11
9.894192
21
43.746191
0
LINE
8
Image
10
9.894192
20
43.746191
11
9.121944
21
43.008386
0
LINE
8
Image
10
9.121944
20
43.008386
11
8.088497
21
42.426615
0
LINE
8
Image
10
8.088497
20
42.426615
11
7.008481
21
41.861752
0
LINE
8
Image
10
7.008481
20
41.861752
11
6.096528
21
41.174672
0
LINE
8
Image
10
6.096528
20
41.174672
11
5.170826
21
39.949711
0
LINE
8
Image
10
5.170826
20
39.949711
11
4.443343
21
38.608446
0
LINE
8
Image
10
4.443343
20
38.608446
11
3.748092
21
37.247284
0
LINE
8
Image
10
3.748092
20
37.247284
11
2.919082
21
35.962633
0
LINE
8
Image
10
2.919082
20
35.962633
11
1.568012
21
34.569426
0
LINE
8
Image
10
1.568012
20
34.569426
11
1.025471
21
33.721679
0
LINE
8
Image
10
1.025471
20
33.721679
11
0.962331
21
33.317151
0
LINE
8
Image
10
0.962331
20
33.317151
11
1.104565
21
32.947284
0
LINE
8
Image
10
1.104565
20
32.947284
11
1.575539
21
32.555711
0
LINE
8
Image
10
1.575539
20
32.555711
11
2.184670
21
32.379337
0
LINE
8
Image
10
2.184670
20
32.379337
11
3.635733
21
32.503851
0
LINE
8
Image
10
3.635733
20
32.503851
11
5.094416
21
32.984160
0
LINE
8
Image
10
5.094416
20
32.984160
11
6.197380
21
33.483596
0
LINE
8
Image
10
6.197380
20
33.483596
11
7.476661
21
33.952335
0
LINE
8
Image
10
7.476661
20
33.952335
11
8.864866
21
34.299396
0
LINE
8
Image
10
8.864866
20
34.299396
11
10.221215
21
34.679937
0
LINE
8
Image
10
10.221215
20
34.679937
11
11.404929
21
35.249116
0
LINE
8
Image
10
11.404929
20
35.249116
11
11.953998
21
35.862881
0
LINE
8
Image
10
11.953998
20
35.862881
11
12.418071
21
36.831076
0
LINE
8
Image
10
12.418071
20
36.831076
11
12.776883
21
38.038562
0
LINE
8
Image
10
12.776883
20
38.038562
11
13.010171
21
39.370202
0
LINE
8
Image
10
13.010171
20
39.370202
11
13.097670
21
40.710857
0
LINE
8
Image
10
13.097670
20
40.710857
11
13.019115
21
41.945391
0
LINE
8
Image
10
13.019115
20
41.945391
11
12.754243
21
42.958664
0
LINE
8
Image
10
12.754243
20
42.958664
11
12.282789
21
43.635540
0
LINE
8
Image
10
12.282789
20
43.635540
11
12.654282
21
45.162782
0
LINE
8
Image
10
12.654282
20
45.162782
11
12.662361
21
46.582330
0
LINE
8
Image
10
12.662361
20
46.582330
11
12.481026
21
47.238348
0
LINE
8
Image
10
12.481026
20
47.238348
11
12.149925
21
47.851398
0
LINE
8
Image
10
12.149925
20
47.851398
11
11.649420
21
48.416131
0
LINE
8
Image
10
11.649420
20
48.416131
11
10.959874
21
48.927200
0
LINE
8
Image
10
18.897364
20
48.927200
11
18.368198
21
47.868868
0
LINE
8
Image
10
18.368198
20
47.868868
11
19.955696
21
48.662617
0
LINE
8
Image
10
19.955696
20
48.662617
11
18.897364
21
48.927200
0
LINE
8
Image
10
39.005673
20
48.662617
11
39.005673
21
47.604285
0
LINE
8
Image
10
39.005673
20
47.604285
11
40.064005
21
47.339702
0
LINE
8
Image
10
40.064005
20
47.339702
11
39.005673
21
48.662617
0
LINE
8
Image
10
46.943163
20
48.398034
11
45.355665
21
47.339702
0
LINE
8
Image
10
45.355665
20
47.339702
11
43.768167
21
46.281370
0
LINE
8
Image
10
43.768167
20
46.281370
11
44.156975
21
45.307862
0
LINE
8
Image
10
44.156975
20
45.307862
11
44.696918
21
44.411439
0
LINE
8
Image
10
44.696918
20
44.411439
11
45.037923
21
44.094858
0
LINE
8
Image
10
45.037923
20
44.094858
11
45.433943
21
43.920816
0
LINE
8
Image
10
45.433943
20
43.920816
11
45.890719
21
43.930402
0
LINE
8
Image
10
45.890719
20
43.930402
11
46.413997
21
44.164706
0
LINE
8
Image
10
46.413997
20
44.164706
11
44.826499
21
45.487621
0
LINE
8
Image
10
44.826499
20
45.487621
11
45.884831
21
46.016787
0
LINE
8
Image
10
45.884831
20
46.016787
11
46.149414
21
44.958455
0
LINE
8
Image
10
46.149414
20
44.958455
11
47.207746
21
46.016787
0
LINE
8
Image
10
47.207746
20
46.016787
11
46.413997
21
46.545953
0
LINE
8
Image
10
46.413997
20
46.545953
11
47.472329
21
46.810536
0
LINE
8
Image
10
47.472329
20
46.810536
11
47.736912
21
45.223038
0
LINE
8
Image
10
47.736912
20
45.223038
11
48.530661
21
45.487621
0
LINE
8
Image
10
48.530661
20
45.487621
11
46.943163
21
48.398034
0
LINE
8
Image
10
6.461963
20
47.604285
11
6.703519
21
46.199606
0
LINE
8
Image
10
6.703519
20
46.199606
11
7.331147
21
45.185943
0
LINE
8
Image
10
7.331147
20
45.185943
11
8.317932
21
44.455411
0
LINE
8
Image
10
8.317932
20
44.455411
11
9.636959
21
43.900123
0
LINE
8
Image
10
9.636959
20
43.900123
11
9.349942
21
45.224996
0
LINE
8
Image
10
9.349942
20
45.224996
11
8.657363
21
46.190724
0
LINE
8
Image
10
8.657363
20
46.190724
11
7.660833
21
46.937192
0
LINE
8
Image
10
7.660833
20
46.937192
11
6.461963
21
47.604285
0
LINE
8
Image
10
40.328588
20
47.339702
11
40.328588
21
46.281370
0
LINE
8
Image
10
40.328588
20
46.281370
11
41.386920
21
45.752204
0
LINE
8
Image
10
41.386920
20
45.752204
11
40.328588
21
47.339702
0
LINE
8
Image
10
16.780700
20
46.016787
11
15.722368
21
44.693872
0
LINE
8
Image
10
15.722368
20
44.693872
11
16.780700
21
46.016787
0
LINE
8
Image
10
19.955696
20
35.962633
11
20.342863
21
36.117022
0
LINE
8
Image
10
20.342863
20
36.117022
11
20.631913
21
36.376598
0
LINE
8
Image
10
20.631913
20
36.376598
11
20.985152
21
37.120598
0
LINE
8
Image
10
20.985152
20
37.120598
11
21.278611
21
38.873046
0
LINE
8
Image
10
21.278611
20
38.873046
11
21.543194
21
38.873046
0
LINE
8
Image
10
21.543194
20
38.873046
11
21.014028
21
35.962633
0
LINE
8
Image
10
21.014028
20
35.962633
11
21.278611
21
35.962633
0
LINE
8
Image
10
21.278611
20
35.962633
11
21.543194
21
38.079297
0
LINE
8
Image
10
21.543194
20
38.079297
11
21.807777
21
38.079297
0
LINE
8
Image
10
21.807777
20
38.079297
11
21.543194
21
35.962633
0
LINE
8
Image
10
21.543194
20
35.962633
11
22.072360
21
37.285548
0
LINE
8
Image
10
22.072360
20
37.285548
11
23.032173
21
36.594030
0
LINE
8
Image
10
23.032173
20
36.594030
11
23.897121
21
36.193146
0
LINE
8
Image
10
23.897121
20
36.193146
11
24.841874
21
36.007734
0
LINE
8
Image
10
24.841874
20
36.007734
11
26.041104
21
35.962633
0
LINE
8
Image
10
26.041104
20
35.962633
11
26.417772
21
37.315533
0
LINE
8
Image
10
26.417772
20
37.315533
11
27.128990
21
38.264388
0
LINE
8
Image
10
27.128990
20
38.264388
11
28.067066
21
38.817949
0
LINE
8
Image
10
28.067066
20
38.817949
11
29.124308
21
38.984968
0
LINE
8
Image
10
29.124308
20
38.984968
11
30.193025
21
38.774194
0
LINE
8
Image
10
30.193025
20
38.774194
11
31.165523
21
38.194380
0
LINE
8
Image
10
31.165523
20
38.194380
11
31.934111
21
37.254276
0
LINE
8
Image
10
31.934111
20
37.254276
11
32.391098
21
35.962633
0
LINE
8
Image
10
32.391098
20
35.962633
11
33.470983
21
35.952956
0
LINE
8
Image
10
33.470983
20
35.952956
11
34.410071
21
36.047071
0
LINE
8
Image
10
34.410071
20
36.047071
11
35.199567
21
36.429696
0
LINE
8
Image
10
35.199567
20
36.429696
11
35.830677
21
37.285548
0
LINE
8
Image
10
35.830677
20
37.285548
11
36.095260
21
37.285548
0
LINE
8
Image
10
36.095260
20
37.285548
11
36.359843
21
35.962633
0
LINE
8
Image
10
36.359843
20
35.962633
11
36.624426
21
35.962633
0
LINE
8
Image
10
36.624426
20
35.962633
11
36.095260
21
39.402212
0
LINE
8
Image
10
36.095260
20
39.402212
11
36.359843
21
39.402212
0
LINE
8
Image
10
36.359843
20
39.402212
11
36.889009
21
35.962633
0
LINE
8
Image
10
36.889009
20
35.962633
11
37.153592
21
35.962633
0
LINE
8
Image
10
37.153592
20
35.962633
11
37.153592
21
38.079297
0
LINE
8
Image
10
37.153592
20
38.079297
11
37.418175
21
38.079297
0
LINE
8
Image
10
37.418175
20
38.079297
11
38.211924
21
35.962633
0
LINE
8
Image
10
38.211924
20
35.962633
11
38.124556
21
37.209783
0
LINE
8
Image
10
38.124556
20
37.209783
11
37.877841
21
38.399088
0
LINE
8
Image
10
37.877841
20
38.399088
11
37.484325
21
39.521707
0
LINE
8
Image
10
37.484325
20
39.521707
11
36.956554
21
40.568800
0
LINE
8
Image
10
36.956554
20
40.568800
11
35.548431
21
42.401044
0
LINE
8
Image
10
35.548431
20
42.401044
11
33.753842
21
43.825094
0
LINE
8
Image
10
33.753842
20
43.825094
11
31.673155
21
44.770226
0
LINE
8
Image
10
31.673155
20
44.770226
11
30.556889
21
45.041096
0
LINE
8
Image
10
30.556889
20
45.041096
11
29.406738
21
45.165715
0
LINE
8
Image
10
29.406738
20
45.165715
11
28.235246
21
45.135241
0
LINE
8
Image
10
28.235246
20
45.135241
11
27.054960
21
44.940834
0
LINE
8
Image
10
27.054960
20
44.940834
11
25.878426
21
44.573654
0
LINE
8
Image
10
25.878426
20
44.573654
11
24.718190
21
44.024860
0
LINE
8
Image
10
24.718190
20
44.024860
11
23.608055
21
43.296454
0
LINE
8
Image
10
23.608055
20
43.296454
11
22.694415
21
42.476995
0
LINE
8
Image
10
22.694415
20
42.476995
11
21.952567
21
41.572101
0
LINE
8
Image
10
21.952567
20
41.572101
11
21.357812
21
40.587385
0
LINE
8
Image
10
21.357812
20
40.587385
11
20.510774
21
38.400956
0
LINE
8
Image
10
20.510774
20
38.400956
11
19.955696
21
35.962633
0
LINE
8
Image
10
37.153592
20
38.079297
11
36.889009
21
38.079297
0
LINE
8
Image
10
36.889009
20
38.079297
11
36.359843
21
39.931378
0
LINE
8
Image
10
36.359843
20
39.931378
11
35.830677
21
39.402212
0
LINE
8
Image
10
35.830677
20
39.402212
11
35.036928
21
40.460544
0
LINE
8
Image
10
35.036928
20
40.460544
11
34.772345
21
39.666795
0
LINE
8
Image
10
34.772345
20
39.666795
11
32.920264
21
41.518876
0
LINE
8
Image
10
32.920264
20
41.518876
11
35.036928
21
40.460544
0
LINE
8
Image
10
35.036928
20
40.460544
11
34.325232
21
41.309548
0
LINE
8
Image
10
34.325232
20
41.309548
11
33.530694
21
42.010066
0
LINE
8
Image
10
33.530694
20
42.010066
11
32.668249
21
42.565407
0
LINE
8
Image
10
32.668249
20
42.565407
11
31.752831
21
42.978880
0
LINE
8
Image
10
31.752831
20
42.978880
11
29.822820
21
43.393457
0
LINE
8
Image
10
29.822820
20
43.393457
11
27.860142
21
43.280269
0
LINE
8
Image
10
27.860142
20
43.280269
11
25.984276
21
42.665787
0
LINE
8
Image
10
25.984276
20
42.665787
11
24.314703
21
41.576483
0
LINE
8
Image
10
24.314703
20
41.576483
11
22.970904
21
40.038829
0
LINE
8
Image
10
22.970904
20
40.038829
11
22.458508
21
39.110143
0
LINE
8
Image
10
22.458508
20
39.110143
11
22.072360
21
38.079297
0
LINE
8
Image
10
22.072360
20
38.079297
11
21.767709
21
38.967432
0
LINE
8
Image
10
21.767709
20
38.967432
11
21.838840
21
39.852102
0
LINE
8
Image
10
21.838840
20
39.852102
11
22.212255
21
40.709845
0
LINE
8
Image
10
22.212255
20
40.709845
11
22.814454
21
41.517201
0
LINE
8
Image
10
22.814454
20
41.517201
11
24.411206
21
42.886911
0
LINE
8
Image
10
24.411206
20
42.886911
11
26.041104
21
43.773549
0
LINE
8
Image
10
26.041104
20
43.773549
11
27.771592
21
44.250894
0
LINE
8
Image
10
27.771592
20
44.250894
11
29.547225
21
44.344748
0
LINE
8
Image
10
29.547225
20
44.344748
11
31.296655
21
44.076980
0
LINE
8
Image
10
31.296655
20
44.076980
11
32.948534
21
43.469463
0
LINE
8
Image
10
32.948534
20
43.469463
11
34.431516
21
42.544065
0
LINE
8
Image
10
34.431516
20
42.544065
11
35.674251
21
41.322657
0
LINE
8
Image
10
35.674251
20
41.322657
11
36.605392
21
39.827111
0
LINE
8
Image
10
36.605392
20
39.827111
11
37.153592
21
38.079297
0
LINE
8
Image
10
14.664036
20
43.106374
11
15.722368
21
44.164706
0
LINE
8
Image
10
15.722368
20
44.164706
11
14.664036
21
43.106374
0
LINE
8
Image
10
21.807777
20
38.873046
11
22.072360
21
38.873046
0
LINE
8
Image
10
22.072360
20
38.873046
11
22.638609
21
39.969282
0
LINE
8
Image
10
22.638609
20
39.969282
11
23.298551
21
40.915735
0
LINE
8
Image
10
23.298551
20
40.915735
11
24.040500
21
41.715070
0
LINE
8
Image
10
24.040500
20
41.715070
11
24.852768
21
42.369953
0
LINE
8
Image
10
24.852768
20
42.369953
11
26.641512
21
43.257021
0
LINE
8
Image
10
26.641512
20
43.257021
11
28.571285
21
43.598262
0
LINE
8
Image
10
28.571285
20
43.598262
11
30.548586
21
43.414996
0
LINE
8
Image
10
30.548586
20
43.414996
11
32.479918
21
42.728545
0
LINE
8
Image
10
32.479918
20
42.728545
11
34.271781
21
41.560232
0
LINE
8
Image
10
34.271781
20
41.560232
11
35.830677
21
39.931378
0
LINE
8
Image
10
35.830677
20
39.931378
11
35.731880
21
40.640221
0
LINE
8
Image
10
35.731880
20
40.640221
11
35.396183
21
41.295018
0
LINE
8
Image
10
35.396183
20
41.295018
11
34.223066
21
42.419731
0
LINE
8
Image
10
34.223066
20
42.419731
11
32.729276
21
43.260044
0
LINE
8
Image
10
32.729276
20
43.260044
11
31.332766
21
43.770485
0
LINE
8
Image
10
31.332766
20
43.770485
11
29.868533
21
44.023567
0
LINE
8
Image
10
29.868533
20
44.023567
11
28.387809
21
44.003965
0
LINE
8
Image
10
28.387809
20
44.003965
11
26.937927
21
43.724414
0
LINE
8
Image
10
26.937927
20
43.724414
11
25.566219
21
43.197644
0
LINE
8
Image
10
25.566219
20
43.197644
11
24.320018
21
42.436390
0
LINE
8
Image
10
24.320018
20
42.436390
11
23.246655
21
41.453384
0
LINE
8
Image
10
23.246655
20
41.453384
11
22.393464
21
40.261358
0
LINE
8
Image
10
22.393464
20
40.261358
11
21.807777
21
38.873046
0
LINE
8
Image
10
42.974418
20
44.164706
11
43.503584
21
42.577208
0
LINE
8
Image
10
43.503584
20
42.577208
11
42.974418
21
44.164706
0
LINE
8
Image
10
47.207746
20
43.900123
11
47.207746
21
41.518876
0
LINE
8
Image
10
47.207746
20
41.518876
11
46.149414
21
41.518876
0
LINE
8
Image
10
46.149414
20
41.518876
11
46.678580
21
43.635540
0
LINE
8
Image
10
46.678580
20
43.635540
11
45.355665
21
43.106374
0
LINE
8
Image
10
45.355665
20
43.106374
11
45.674675
21
42.060185
0
LINE
8
Image
10
45.674675
20
42.060185
11
46.070642
21
41.387047
0
LINE
8
Image
10
46.070642
20
41.387047
11
46.516210
21
41.054615
0
LINE
8
Image
10
46.516210
20
41.054615
11
46.984025
21
41.030544
0
LINE
8
Image
10
46.984025
20
41.030544
11
47.446732
21
41.282487
0
LINE
8
Image
10
47.446732
20
41.282487
11
47.876976
21
41.778101
0
LINE
8
Image
10
47.876976
20
41.778101
11
48.247404
21
42.485039
0
LINE
8
Image
10
48.247404
20
42.485039
11
48.530661
21
43.370957
0
LINE
8
Image
10
48.530661
20
43.370957
11
48.885587
21
42.828070
0
LINE
8
Image
10
48.885587
20
42.828070
11
48.964296
21
42.349767
0
LINE
8
Image
10
48.964296
20
42.349767
11
48.530661
21
41.254293
0
LINE
8
Image
10
48.530661
20
41.254293
11
49.227705
21
41.629369
0
LINE
8
Image
10
49.227705
20
41.629369
11
49.589203
21
42.077289
0
LINE
8
Image
10
49.589203
20
42.077289
11
49.659725
21
42.555296
0
LINE
8
Image
10
49.659725
20
42.555296
11
49.483844
21
43.020633
0
LINE
8
Image
10
49.483844
20
43.020633
11
49.106134
21
43.430541
0
LINE
8
Image
10
49.106134
20
43.430541
11
48.571165
21
43.742264
0
LINE
8
Image
10
48.571165
20
43.742264
11
47.923512
21
43.913044
0
LINE
8
Image
10
47.923512
20
43.913044
11
47.207746
21
43.900123
0
LINE
8
Image
10
12.282789
20
43.635540
11
12.018206
21
43.370957
0
LINE
8
Image
10
12.018206
20
43.370957
11
12.282789
21
43.635540
0
LINE
8
Image
10
30.539017
20
43.106374
11
29.928326
21
42.431561
0
LINE
8
Image
10
29.928326
20
42.431561
11
29.216102
21
42.206623
0
LINE
8
Image
10
29.216102
20
42.206623
11
28.503877
21
42.431561
0
LINE
8
Image
10
28.503877
20
42.431561
11
27.893187
21
43.106374
0
LINE
8
Image
10
27.893187
20
43.106374
11
30.539017
21
43.106374
0
LINE
8
Image
10
2.228635
20
34.110552
11
4.525324
21
37.872239
0
LINE
8
Image
10
4.525324
20
37.872239
11
5.782725
21
39.701011
0
LINE
8
Image
10
5.782725
20
39.701011
11
7.279394
21
41.242656
0
LINE
8
Image
10
7.279394
20
41.242656
11
8.728951
21
42.171903
0
LINE
8
Image
10
8.728951
20
42.171903
11
9.573654
21
42.414261
0
LINE
8
Image
10
9.573654
20
42.414261
11
10.370279
21
42.280573
0
LINE
8
Image
10
10.370279
20
42.280573
11
10.758335
21
41.988046
0
LINE
8
Image
10
10.758335
20
41.988046
11
11.005450
21
41.603411
0
LINE
8
Image
10
11.005450
20
41.603411
11
11.133857
21
40.672839
0
LINE
8
Image
10
11.133857
20
40.672839
11
10.869501
21
39.718903
0
LINE
8
Image
10
10.869501
20
39.718903
11
10.326385
21
38.971650
0
LINE
8
Image
10
10.326385
20
38.971650
11
9.727150
21
38.687917
0
LINE
8
Image
10
9.727150
20
38.687917
11
9.112172
21
38.703347
0
LINE
8
Image
10
9.112172
20
38.703347
11
8.490410
21
38.764377
0
LINE
8
Image
10
8.490410
20
38.764377
11
7.870827
21
38.617445
0
LINE
8
Image
10
7.870827
20
38.617445
11
6.437428
21
37.542940
0
LINE
8
Image
10
6.437428
20
37.542940
11
5.222222
21
36.272445
0
LINE
8
Image
10
5.222222
20
36.272445
11
3.920770
21
35.047728
0
LINE
8
Image
10
3.920770
20
35.047728
11
3.142565
21
34.528087
0
LINE
8
Image
10
3.142565
20
34.528087
11
2.228635
21
34.110552
0
LINE
8
Image
10
14.664036
20
42.577208
11
13.870287
21
42.312625
0
LINE
8
Image
10
13.870287
20
42.312625
11
13.870287
21
41.254293
0
LINE
8
Image
10
13.870287
20
41.254293
11
14.664036
21
42.577208
0
LINE
8
Image
10
25.511938
20
41.518876
11
23.659858
21
39.666795
0
LINE
8
Image
10
23.659858
20
39.666795
11
23.774304
21
40.460977
0
LINE
8
Image
10
23.774304
20
40.460977
11
24.132741
21
41.045993
0
LINE
8
Image
10
24.132741
20
41.045993
11
24.717757
21
41.404430
0
LINE
8
Image
10
24.717757
20
41.404430
11
25.511938
21
41.518876
0
LINE
8
Image
10
45.620248
20
39.666795
11
45.776145
21
38.347857
0
LINE
8
Image
10
45.776145
20
38.347857
11
46.044742
21
37.094781
0
LINE
8
Image
10
46.044742
20
37.094781
11
46.630258
21
36.069379
0
LINE
8
Image
10
46.630258
20
36.069379
11
47.105679
21
35.692624
0
LINE
8
Image
10
47.105679
20
35.692624
11
47.736912
21
35.433467
0
LINE
8
Image
10
47.736912
20
35.433467
11
48.001495
21
36.756382
0
LINE
8
Image
10
48.001495
20
36.756382
11
48.530661
21
36.756382
0
LINE
8
Image
10
48.530661
20
36.756382
11
48.530661
21
35.168884
0
LINE
8
Image
10
48.530661
20
35.168884
11
49.588993
21
34.904301
0
LINE
8
Image
10
49.588993
20
34.904301
11
49.700827
21
35.867974
0
LINE
8
Image
10
49.700827
20
35.867974
11
49.564056
21
36.679490
0
LINE
8
Image
10
49.564056
20
36.679490
11
49.216135
21
37.362304
0
LINE
8
Image
10
49.216135
20
37.362304
11
48.694520
21
37.939873
0
LINE
8
Image
10
48.694520
20
37.939873
11
47.280034
21
38.873093
0
LINE
8
Image
10
47.280034
20
38.873093
11
45.620248
21
39.666795
0
LINE
8
Image
10
28.157770
20
38.079297
11
28.205321
21
36.973338
0
LINE
8
Image
10
28.205321
20
36.973338
11
28.486902
21
36.358612
0
LINE
8
Image
10
28.486902
20
36.358612
11
29.133083
21
36.075062
0
LINE
8
Image
10
29.133083
20
36.075062
11
30.274434
21
35.962633
0
LINE
8
Image
10
30.274434
20
35.962633
11
29.480685
21
37.020965
0
LINE
8
Image
10
29.480685
20
37.020965
11
29.745268
21
38.079297
0
LINE
8
Image
10
29.745268
20
38.079297
11
28.157770
21
38.079297
0
LINE
8
Image
10
8.843210
20
38.079297
11
7.784878
21
37.285548
0
LINE
8
Image
10
7.784878
20
37.285548
11
8.843210
21
38.079297
0
LINE
8
Image
10
29.127905
20
37.902910
11
29.039715
21
37.726518
0
LINE
8
Image
10
29.039715
20
37.726518
11
29.127905
21
37.902910
0
LINE
8
Image
10
50.118159
20
37.020965
11
49.853576
21
34.904301
0
LINE
8
Image
10
49.853576
20
34.904301
11
51.176491
21
34.639718
0
LINE
8
Image
10
51.176491
20
34.639718
11
51.970240
21
35.698050
0
LINE
8
Image
10
51.970240
20
35.698050
11
51.705657
21
34.639718
0
LINE
8
Image
10
51.705657
20
34.639718
11
52.499406
21
34.375135
0
LINE
8
Image
10
52.499406
20
34.375135
11
52.555522
21
35.556733
0
LINE
8
Image
10
52.555522
20
35.556733
11
52.125900
21
36.316364
0
LINE
8
Image
10
52.125900
20
36.316364
11
51.287719
21
36.766838
0
LINE
8
Image
10
51.287719
20
36.766838
11
50.118159
21
37.020965
0
LINE
8
Image
10
29.216102
20
36.756382
11
29.216102
21
36.491799
0
LINE
8
Image
10
29.216102
20
36.491799
11
28.422353
21
36.491799
0
LINE
8
Image
10
28.422353
20
36.491799
11
29.216102
21
36.756382
0
LINE
8
Image
10
45.091082
20
36.227216
11
45.091082
21
35.698050
0
LINE
8
Image
10
45.091082
20
35.698050
11
45.620248
21
35.698050
0
LINE
8
Image
10
45.620248
20
35.698050
11
45.091082
21
36.227216
0
LINE
8
Image
10
53.028572
20
36.227216
11
53.028572
21
34.375135
0
LINE
8
Image
10
53.028572
20
34.375135
11
54.351487
21
35.168884
0
LINE
8
Image
10
54.351487
20
35.168884
11
54.351487
21
34.375135
0
LINE
8
Image
10
54.351487
20
34.375135
11
54.945599
21
34.578689
0
LINE
8
Image
10
54.945599
20
34.578689
11
55.163671
21
34.829649
0
LINE
8
Image
10
55.163671
20
34.829649
11
55.085225
21
35.108305
0
LINE
8
Image
10
55.085225
20
35.108305
11
54.789785
21
35.394950
0
LINE
8
Image
10
54.789785
20
35.394950
11
53.866021
21
35.913363
0
LINE
8
Image
10
53.866021
20
35.913363
11
53.028572
21
36.227216
0
LINE
8
Image
10
55.938985
20
34.904301
11
55.674402
21
35.698050
0
LINE
8
Image
10
55.674402
20
35.698050
11
55.409819
21
35.698050
0
LINE
8
Image
10
55.409819
20
35.698050
11
55.409819
21
34.375135
0
LINE
8
Image
10
55.409819
20
34.375135
11
57.526483
21
35.168884
0
LINE
8
Image
10
57.526483
20
35.168884
11
58.249254
21
35.067809
0
LINE
8
Image
10
58.249254
20
35.067809
11
58.847063
21
35.159761
0
LINE
8
Image
10
58.847063
20
35.159761
11
59.379893
21
35.454711
0
LINE
8
Image
10
59.379893
20
35.454711
11
59.907730
21
35.962633
0
LINE
8
Image
10
59.907730
20
35.962633
11
55.938985
21
34.904301
0
LINE
8
Image
10
16.780700
20
34.375135
11
17.309866
21
32.523054
0
LINE
8
Image
10
17.309866
20
32.523054
11
18.103615
21
32.523054
0
LINE
8
Image
10
18.103615
20
32.523054
11
18.632781
21
34.375135
0
LINE
8
Image
10
18.632781
20
34.375135
11
16.780700
21
34.375135
0
LINE
8
Image
10
18.897364
20
34.375135
11
18.897364
21
32.523054
0
LINE
8
Image
10
18.897364
20
32.523054
11
19.955696
21
33.052220
0
LINE
8
Image
10
19.955696
20
33.052220
11
23.395275
21
32.523054
0
LINE
8
Image
10
23.395275
20
32.523054
11
22.601526
21
34.375135
0
LINE
8
Image
10
22.601526
20
34.375135
11
21.807777
21
34.375135
0
LINE
8
Image
10
21.807777
20
34.375135
11
20.749445
21
32.787637
0
LINE
8
Image
10
20.749445
20
32.787637
11
20.582250
21
33.570899
0
LINE
8
Image
10
20.582250
20
33.570899
11
20.250986
21
34.046692
0
LINE
8
Image
10
20.250986
20
34.046692
11
19.705931
21
34.289833
0
LINE
8
Image
10
19.705931
20
34.289833
11
18.897364
21
34.375135
0
LINE
8
Image
10
23.659858
20
34.375135
11
23.659858
21
32.523054
0
LINE
8
Image
10
23.659858
20
32.523054
11
24.189024
21
32.523054
0
LINE
8
Image
10
24.189024
20
32.523054
11
24.189024
21
34.375135
0
LINE
8
Image
10
24.189024
20
34.375135
11
23.659858
21
34.375135
0
LINE
8
Image
10
24.718190
20
34.375135
11
24.718190
21
32.523054
0
LINE
8
Image
10
24.718190
20
32.523054
11
26.305687
21
32.523054
0
LINE
8
Image
10
26.305687
20
32.523054
11
26.305687
21
32.787637
0
LINE
8
Image
10
26.305687
20
32.787637
11
25.247355
21
34.375135
0
LINE
8
Image
10
25.247355
20
34.375135
11
24.718190
21
34.375135
0
LINE
8
Image
10
26.570272
20
34.375135
11
26.570272
21
32.523054
0
LINE
8
Image
10
26.570272
20
32.523054
11
28.422353
21
32.523054
0
LINE
8
Image
10
28.422353
20
32.523054
11
28.422353
21
32.787637
0
LINE
8
Image
10
28.422353
20
32.787637
11
27.364021
21
32.787637
0
LINE
8
Image
10
27.364021
20
32.787637
11
27.364021
21
33.316803
0
LINE
8
Image
10
27.364021
20
33.316803
11
28.422353
21
33.316803
0
LINE
8
Image
10
28.422353
20
33.316803
11
28.422353
21
33.581386
0
LINE
8
Image
10
28.422353
20
33.581386
11
27.364021
21
33.581386
0
LINE
8
Image
10
27.364021
20
33.581386
11
27.364021
21
33.845969
0
LINE
8
Image
10
27.364021
20
33.845969
11
28.422353
21
33.845969
0
LINE
8
Image
10
28.422353
20
33.845969
11
28.422353
21
34.375135
0
LINE
8
Image
10
28.422353
20
34.375135
11
26.570272
21
34.375135
0
LINE
8
Image
10
28.686936
20
32.523054
11
29.745268
21
33.052220
0
LINE
8
Image
10
29.745268
20
33.052220
11
30.803600
21
32.523054
0
LINE
8
Image
10
30.803600
20
32.523054
11
30.274434
21
33.052220
0
LINE
8
Image
10
30.274434
20
33.052220
11
30.274434
21
33.316803
0
LINE
8
Image
10
30.274434
20
33.316803
11
30.803600
21
34.110552
0
LINE
8
Image
10
30.803600
20
34.110552
11
29.850226
21
34.254131
0
LINE
8
Image
10
29.850226
20
34.254131
11
29.204201
21
34.042380
0
LINE
8
Image
10
29.204201
20
34.042380
11
28.828709
21
33.467840
0
LINE
8
Image
10
28.828709
20
33.467840
11
28.686936
21
32.523054
0
LINE
8
Image
10
32.126515
20
34.375135
11
32.126515
21
32.523054
0
LINE
8
Image
10
32.126515
20
32.523054
11
33.978596
21
33.581386
0
LINE
8
Image
10
33.978596
20
33.581386
11
32.126515
21
34.375135
0
LINE
8
Image
10
34.507762
20
34.375135
11
33.714013
21
32.523054
0
LINE
8
Image
10
33.714013
20
32.523054
11
35.830677
21
32.523054
0
LINE
8
Image
10
35.830677
20
32.523054
11
35.301511
21
34.375135
0
LINE
8
Image
10
35.301511
20
34.375135
11
34.507762
21
34.375135
0
LINE
8
Image
10
36.359843
20
34.375135
11
36.359843
21
32.523054
0
LINE
8
Image
10
36.359843
20
32.523054
11
37.153592
21
33.316803
0
LINE
8
Image
10
37.153592
20
33.316803
11
38.211924
21
32.523054
0
LINE
8
Image
10
38.211924
20
32.523054
11
38.211924
21
34.110552
0
LINE
8
Image
10
38.211924
20
34.110552
11
36.359843
21
34.375135
0
LINE
8
Image
10
38.476507
20
34.375135
11
39.005673
21
32.523054
0
LINE
8
Image
10
39.005673
20
32.523054
11
39.799422
21
32.523054
0
LINE
8
Image
10
39.799422
20
32.523054
11
40.328588
21
34.375135
0
LINE
8
Image
10
40.328588
20
34.375135
11
38.476507
21
34.375135
0
LINE
8
Image
10
40.593171
20
34.110552
11
40.593171
21
33.581386
0
LINE
8
Image
10
40.593171
20
33.581386
11
41.651503
21
32.787637
0
LINE
8
Image
10
41.651503
20
32.787637
11
40.593171
21
33.052220
0
LINE
8
Image
10
40.593171
20
33.052220
11
40.593171
21
32.787637
0
LINE
8
Image
10
40.593171
20
32.787637
11
42.445252
21
32.787637
0
LINE
8
Image
10
42.445252
20
32.787637
11
42.445252
21
33.316803
0
LINE
8
Image
10
42.445252
20
33.316803
11
41.386920
21
34.110552
0
LINE
8
Image
10
41.386920
20
34.110552
11
42.445252
21
33.845969
0
LINE
8
Image
10
42.445252
20
33.845969
11
40.593171
21
34.110552
0
LINE
8
Image
10
19.955696
20
33.757773
11
20.037297
21
33.697354
0
LINE
8
Image
10
20.037297
20
33.697354
11
19.867501
21
33.669582
0
LINE
8
Image
10
19.867501
20
33.669582
11
19.955696
21
33.757773
0
LINE
8
Image
10
29.745268
20
33.757773
11
29.826869
21
33.697354
0
LINE
8
Image
10
29.826869
20
33.697354
11
29.657071
21
33.669582
0
LINE
8
Image
10
29.657071
20
33.669582
11
29.745268
21
33.757773
0
LINE
8
Image
10
32.920264
20
33.757773
11
33.001865
21
33.697354
0
LINE
8
Image
10
33.001865
20
33.697354
11
32.832067
21
33.669582
0
LINE
8
Image
10
32.832067
20
33.669582
11
32.920264
21
33.757773
0
LINE
8
Image
10
37.153592
20
33.757773
11
37.235191
21
33.697354
0
LINE
8
Image
10
37.235191
20
33.697354
11
37.065398
21
33.669582
0
LINE
8
Image
10
37.065398
20
33.669582
11
37.153592
21
33.757773
0
LINE
8
Image
10
22.248748
20
33.404999
11
22.160555
21
33.228607
0
LINE
8
Image
10
22.160555
20
33.228607
11
22.248748
21
33.404999
0
LINE
8
Image
10
34.948734
20
33.404999
11
34.860538
21
33.228607
0
LINE
8
Image
10
34.860538
20
33.228607
11
34.948734
21
33.404999
 0 
ENDSEC
 0 
EOF